EBGaramond12-Bold.sfdir
StartChar: exclam
Encoding: 833 33 832
GlifName: exclam
Width: 299
VWidth: 0
Flags: W
LayerCount: 2
Back
SplineSet
147 172 m 256
 164 172 174 194 179 225 c 256
 203 377 229 484 229 568 c 256
 229 613 198 649 152 649 c 256
 105 649 70 610 71 566 c 256
 71 482 89 379 114 225 c 256
 120 186 129 172 147 172 c 256
145 -14 m 256
 186 -14 220 20 220 61 c 256
 220 102 186 136 145 136 c 256
 104 136 70 102 70 61 c 256
 70 20 104 -14 145 -14 c 256
EndSplineSet
Fore
SplineSet
147 172 m 256
 164 172 174 194 179 225 c 256
 203 377 229 473 229 557 c 256
 229 606 198 649 152 649 c 256
 105 649 70 603 71 555 c 256
 73 471 89 379 114 225 c 256
 120 186 129 172 147 172 c 256
145 -14 m 256
 186 -14 220 20 220 61 c 256
 220 102 186 136 145 136 c 256
 104 136 70 102 70 61 c 256
 70 20 104 -14 145 -14 c 256
EndSplineSet
Validated: 41
PickledDataWithLists: "(dp0
Vpublic.markColor
p1
V0.67,0.95,0.38,1
p2
s."
Substitution2: "'smcp' Lowercase to Small Capitals lookup 22 subtable" exclam.sc
Substitution2: "'c2sc' Capitals to Small Capitals lookup 21 subtable" exclam.sc
Substitution2: "'ordn' Ordinals lookup 15 subtable" exclam.ordn
Substitution2: "'sups' Superscript lookup 9 subtable" exclam.sups
Substitution2: "'sinf' Scientific Inferiors lookup 8 subtable" exclam.sinf
Substitution2: "'subs' Subscript lookup 7 subtable" exclam.subs
Comment: "+AAoA-exclam+AAoA"
EndChar

StartChar: quotedbl
Encoding: 34 34 68
Width: 365
VWidth: 0
Flags: HW
LayerCount: 3
Back
SplineSet
65 467 m 0
 67 520 67 557 62 619 c 0
 61 633 72 648 81 655 c 0
 97 667 108 676 124 676 c 0
 139 676 139 645 136 624 c 4
 126 555 107 505 91 469 c 0
 86 457 77 444 72 444 c 0
 67 444 65 458 65 467 c 0
196 467 m 0
 198 520 198 557 193 619 c 0
 192 633 203 648 212 655 c 0
 228 667 239 676 255 676 c 0
 270 676 270 645 267 624 c 0
 257 555 238 505 222 469 c 0
 217 457 208 444 203 444 c 0
 198 444 196 458 196 467 c 0
EndSplineSet
Fore
SplineSet
61 620 m 0
 61 637 78 651 90 658 c 0
 114 671 130 679 154 679 c 0
 170 679 177 662 177 644 c 0
 177 590 130 502 106 466 c 0
 98 454 85 440 77 440 c 0
 68 440 66 457 66 466 c 0
 67 487 66 505 66 523 c 0
 66 559 61 618 61 620 c 0
211 620 m 0
 211 637 228 651 240 658 c 0
 264 671 280 679 304 679 c 0
 320 679 327 662 327 644 c 0
 327 590 280 502 256 466 c 0
 248 454 235 440 227 440 c 0
 218 440 216 457 216 466 c 0
 217 487 216 505 216 523 c 0
 216 559 211 618 211 620 c 0
EndSplineSet
Substitution2: "sups subtable" quotedbl.sups
Substitution2: "sinf subtable" quotedbl.sinf
Substitution2: "ordn subtable" quotedbl.ordn
Substitution2: "subs subtable" quotedbl.subs
EndChar
StartChar: numbersign
Encoding: 1167 35 1166
GlifName: numbersign
Width: 488
VWidth: 0
Flags: W
LayerCount: 2
Back
SplineSet
72 -96 m 256
 93 -96 116 -93 121 -72 c 258
 160 88 l 257
 250 92 l 257
 213 -56 l 257
 213 -61 l 258
 213 -70 219 -80 229 -80 c 256
 250 -80 273 -77 278 -56 c 258
 315 95 l 257
 393 98 l 258
 413 99 435 135 435 170 c 256
 435 183 425 193 408 192 c 258
 338 189 l 257
 364 296 l 257
 432 299 l 258
 452 300 474 336 474 371 c 256
 474 384 464 394 447 393 c 258
 388 390 l 257
 423 534 l 257
 423 537 425 538 425 542 c 256
 425 551 420 561 412 561 c 256
 389 561 363 556 359 534 c 257
 323 387 l 257
 233 383 l 257
 267 523 l 257
 267 526 269 527 269 531 c 256
 269 540 264 550 256 550 c 256
 233 550 207 545 203 523 c 257
 168 380 l 257
 93 377 l 258
 73 376 54 360 54 304 c 256
 54 295 62 282 77 283 c 258
 144 286 l 257
 118 180 l 257
 54 177 l 258
 34 176 15 160 15 104 c 256
 15 95 23 82 38 83 c 258
 95 85 l 257
 56 -72 l 257
 56 -77 l 258
 56 -86 62 -96 72 -96 c 256
183 182 m 257
 210 289 l 257
 299 293 l 257
 273 186 l 257
 183 182 l 257
EndSplineSet
Fore
SplineSet
72 -96 m 256
 93 -96 104 -93 109 -72 c 258
 148 88 l 257
 262 92 l 257
 225 -56 l 257
 225 -61 l 258
 225 -70 231 -80 241 -80 c 256
 262 -80 273 -77 278 -56 c 258
 315 95 l 257
 393 98 l 258
 413 99 435 135 435 170 c 256
 435 183 425 193 408 192 c 258
 338 189 l 257
 364 296 l 257
 432 299 l 258
 452 300 474 336 474 371 c 256
 474 384 464 394 447 393 c 258
 388 390 l 257
 423 534 l 257
 423 537 425 538 425 542 c 256
 425 551 420 561 412 561 c 256
 389 561 375 556 371 534 c 257
 335 387 l 257
 221 383 l 257
 255 523 l 257
 255 526 257 527 257 531 c 256
 257 540 252 550 244 550 c 256
 221 550 207 545 203 523 c 257
 168 380 l 257
 93 377 l 258
 73 376 54 360 54 304 c 256
 54 295 62 282 77 283 c 258
 144 286 l 257
 118 180 l 257
 54 177 l 258
 34 176 15 160 15 104 c 256
 15 95 23 82 38 83 c 258
 95 85 l 257
 56 -72 l 257
 56 -77 l 258
 56 -86 62 -96 72 -96 c 256
171 182 m 257
 198 289 l 257
 311 293 l 257
 285 186 l 257
 171 182 l 257
EndSplineSet
Validated: 41
PickledDataWithLists: "(dp0
Vpublic.markColor
p1
V0.67,0.95,0.38,1
p2
s."
Substitution2: "'smcp' Lowercase to Small Capitals lookup 22 subtable" numbersign.sc
Substitution2: "'c2sc' Capitals to Small Capitals lookup 21 subtable" numbersign.sc
Substitution2: "'ordn' Ordinals lookup 15 subtable" numbersign.ordn
Substitution2: "'sups' Superscript lookup 9 subtable" numbersign.sups
Substitution2: "'sinf' Scientific Inferiors lookup 8 subtable" numbersign.sinf
Substitution2: "'subs' Subscript lookup 7 subtable" numbersign.subs
Comment: "+AAoA-numbersign+AAoA"
EndChar
StartChar: dollar
Encoding: 36 36 82
Width: 458
VWidth: 0
Flags: HMW
LayerCount: 3
Fore
SplineSet
235 413 m 0
 236 412 237 411 238 411 c 0
 239 411 239.879324942 411.999402643 240 413 c 2
 264 612 l 2
 264.130699662 613.984698576 263.24717598 617.235628209 261 617 c 0
 216.434782609 612.327102804 186 562.794392523 186 517 c 0
 186 479 207.260912055 440.739087945 235 413 c 0
318 693 m 0
 318 692.667 318.033134738 692.331347384 318 692 c 0
 317 682 314 673.062257748 314 665 c 0
 314 664 319 660 319 660 c 1
 359 657 382.949684389 648.73642102 398 646 c 0
 409 644 415 634 417 623 c 1
 417 623 l 1
 423 589 431 551 431 515 c 0
 431 505 426 488 420 488 c 0
 415 488 397.70888421 497.182556392 393 514 c 0
 379 564 342 616 311 616 c 0
 310 616 308 613 308 613 c 1
 280 385 l 2
 279.259248029 378.968162523 277.944353415 378.921632884 292 369 c 0
 343 333 443 276 443 171 c 0
 443 88 386 -21 236 -21 c 0
 233 -21 228.247396278 -23.910875875 228 -26 c 2
 219 -102 l 2
 217.351203688 -115.923168858 204 -119 193 -119 c 0
 185 -119 176 -112 176 -102 c 0
 176 -101.667 175.963226302 -101.330963284 176 -101 c 0
 179 -74 183 -47 186 -22 c 1
 185 -20 183 -18 181 -18 c 1
 181 -17.6667 181.328765095 -17.0547941825 181 -17 c 0
 145 -11 122.189495805 0.816536613139 98 6 c 0
 84 9 85 14 83 18 c 1
 83 18 53 141 52 158 c 1
 52 158 l 1
 52 169 62 176 73 176 c 0
 82.7394434126 176 107.168606386 28 189 28 c 0
 190 28 192 29 192 29 c 1
 225 297 l 2
 225.121295242 297.985064392 226.313578027 303.434032677 214 312 c 0
 145 360 82 414 82 497 c 0
 82 558 139.155205913 636.631041183 261 661 c 0
 266 662 269.833557047 663.876510067 270 665 c 2
 274 692 l 2
 276.362416107 707.946308725 291 710 304 710 c 0
 311 710 318 703 318 693 c 0
264 269 m 2
 235 26 l 2
 234.292011946 20.0675483773 236.010105346 18.7158510096 240 19 c 0
 310.207792208 24 342 57 342 148 c 0
 342 183 284.25 259 265 274 c 1
 265 273 264.235996018 270.977483874 264 269 c 2
EndSplineSet
Substitution2: "sups subtable" dollar.sups
Substitution2: "sinf subtable" dollar.sinf
Substitution2: "ordn subtable" dollar.ordn
Substitution2: "subs subtable" dollar.subs
EndChar
StartChar: ampersand
Encoding: 536 38 535
GlifName: ampersand
Width: 809
VWidth: 0
Flags: W
LayerCount: 2
Back
SplineSet
207 -16 m 256
 281 -16 358 16 416 85 c 258
 421 91 l 257
 440 70 l 258
 492 13 531 -15 612 -15 c 256
 713 -15 783 44 783 75 c 256
 783 92 776 100 763 100 c 256
 755 100 746 97 739 93 c 257
 705 76 684 68 662 68 c 256
 623 68 587 114 546 163 c 257
 527 185 l 257
 575 228 627 268 673 313 c 256
 695 335 725 361 769 369 c 256
 791 373 804 386 804 398 c 256
 804 404 798 412 787 412 c 256
 752 412 693 389 650 389 c 256
 612 389 578 397 549 397 c 256
 532 397 518 396 518 382 c 256
 518 370 528 367 540 362 c 256
 554 356 569 348 569 327 c 256
 569 303 552 263 515 229 c 258
 502 217 l 257
 482 237 l 257
 449 270 408 314 375 347 c 257
 353 370 l 257
 377 379 l 258
 442 403 483 431 483 494 c 256
 483 557 414 600 322 600 c 256
 207 600 131 544 131 474 c 256
 131 415 178 374 199 352 c 258
 206 345 l 257
 185 335 l 258
 85 287 30 204 30 131 c 256
 30 31 129 -16 207 -16 c 256
290 85 m 256
 219 85 174 133 174 215 c 256
 174 252 186 284 212 301 c 258
 229 312 l 257
 241 298 l 257
 287 245 329 193 375 140 c 257
 391 121 l 257
 384 114 l 258
 355 85 317 85 290 85 c 256
332 396 m 257
 314 412 l 258
 302 422 274 454 274 511 c 256
 274 541 295 562 317 562 c 256
 352 562 365 526 364 488 c 256
 364 456 357 421 342 406 c 258
 332 396 l 257
EndSplineSet
Fore
SplineSet
207 -16 m 256
 281 -16 358 16 416 85 c 258
 421 91 l 257
 440 70 l 258
 492 13 531 -15 612 -15 c 256
 713 -15 783 48 783 79 c 256
 783 92 776 94 765 94 c 256
 757 94 748 89 741 87 c 256
 713 77 684 73 662 73 c 256
 623 73 587 114 546 163 c 257
 527 185 l 257
 575 228 627 268 673 313 c 256
 695 335 725 361 769 369 c 256
 791 373 804 386 804 398 c 256
 804 404 798 412 787 412 c 256
 752 412 693 389 650 389 c 256
 612 389 578 397 549 397 c 256
 532 397 518 396 518 382 c 256
 518 370 528 367 540 362 c 256
 554 356 569 348 569 327 c 256
 569 303 552 263 515 229 c 258
 502 217 l 257
 482 237 l 257
 449 270 408 314 375 347 c 257
 353 370 l 257
 377 379 l 258
 442 403 483 431 483 494 c 256
 483 557 414 600 322 600 c 256
 207 600 131 544 131 474 c 256
 131 415 178 374 199 352 c 258
 206 345 l 257
 185 335 l 258
 85 287 30 204 30 131 c 256
 30 31 129 -16 207 -16 c 256
290 85 m 256
 219 85 174 133 174 215 c 256
 174 252 186 284 212 301 c 258
 229 312 l 257
 241 298 l 257
 287 245 329 193 375 140 c 257
 391 121 l 257
 384 114 l 258
 355 85 317 85 290 85 c 256
332 396 m 257
 311 416 l 258
 300 427 274 454 274 511 c 256
 274 541 295 562 317 562 c 256
 352 562 365 526 364 488 c 256
 364 456 357 421 342 406 c 258
 332 396 l 257
EndSplineSet
Validated: 41
PickledDataWithLists: "(dp0
Vpublic.markColor
p1
V0.67,0.95,0.38,1
p2
s."
Substitution2: "'smcp' Lowercase to Small Capitals lookup 22 subtable" ampersand.sc
Substitution2: "'c2sc' Capitals to Small Capitals lookup 21 subtable" ampersand.sc
Substitution2: "'ordn' Ordinals lookup 15 subtable" ampersand.ordn
Substitution2: "'sups' Superscript lookup 9 subtable" ampersand.sups
Substitution2: "'sinf' Scientific Inferiors lookup 8 subtable" ampersand.sinf
Substitution2: "'subs' Subscript lookup 7 subtable" ampersand.subs
Comment: "+AAoA-ampersand+AAoA"
EndChar
StartChar: quotesingle
Encoding: 1331 39 1330
GlifName: quotesingle
Width: 245
VWidth: 0
Flags: W
LayerCount: 2
Fore
SplineSet
81 400 m 256
 88 400 105 417 113 432 c 256
 137 478 183 582 183 647 c 256
 183 667 172 685 156 685 c 256
 130 685 115 676 91 660 c 257
 78 652 61 637 61 617 c 256
 61 582 67 543 67 496 c 256
 67 474 70 455 69 429 c 257
 69 418 71 400 81 400 c 256
EndSplineSet
Validated: 41
PickledDataWithLists: "(dp0
Vpublic.markColor
p1
V0.67,0.95,0.38,1
p2
s."
Substitution2: "'smcp' Lowercase to Small Capitals lookup 22 subtable" quotesingle.sc
Substitution2: "'c2sc' Capitals to Small Capitals lookup 21 subtable" quotesingle.sc
Substitution2: "'ordn' Ordinals lookup 15 subtable" quotesingle.ordn
Substitution2: "'sups' Superscript lookup 9 subtable" quotesingle.sups
Substitution2: "'sinf' Scientific Inferiors lookup 8 subtable" quotesingle.sinf
Substitution2: "'subs' Subscript lookup 7 subtable" quotesingle.subs
Comment: "+AAoA-quotesingle+AAoA"
EndChar
StartChar: parenleft
Encoding: 1251 40 1250
GlifName: parenleft
Width: 302
VWidth: 0
Flags: W
LayerCount: 2
Back
SplineSet
283 -192 m 256
 283 -190 269 -175 267 -173 c 256
 196 -102 119 111 119 281 c 256
 119 451 200 599 271 670 c 256
 273 672 284 687 284 689 c 256
 284 698 269 705 262 705 c 256
 252 705 241 700 235 694 c 256
 164 623 59 439 59 269 c 256
 59 99 168 -136 239 -207 c 256
 244 -212 250 -214 256 -214 c 256
 269 -214 283 -206 283 -192 c 256
EndSplineSet
Fore
SplineSet
239 -215 m 256
 263 -215 288 -200 288 -174 c 256
 288 -171 264 -143 261 -139 c 257
 211 -75 160 124 160 270 c 256
 160 441 219 578 269 642 c 257
 272 646 292 673 292 677 c 256
 292 693 265 706 252 706 c 256
 233 706 213 697 202 686 c 256
 133 616 35 435 35 267 c 256
 35 100 139 -132 208 -202 c 256
 217 -211 228 -215 239 -215 c 256
EndSplineSet
Validated: 9
PickledDataWithLists: "(dp0
Vpublic.markColor
p1
V0.67,0.95,0.38,1
p2
s."
Substitution2: "'ss04' Style Set 4 lookup 33 subtable" uni2619
Substitution2: "'ss02' Style Set 2 lookup 30 subtable" uni261C
Substitution2: "'smcp' Lowercase to Small Capitals lookup 22 subtable" parenleft.sc
Substitution2: "'c2sc' Capitals to Small Capitals lookup 21 subtable" parenleft.sc
Substitution2: "'ordn' Ordinals lookup 15 subtable" parenleft.ordn
Substitution2: "'sups' Superscript lookup 9 subtable" parenleft.sups
Substitution2: "'sinf' Scientific Inferiors lookup 8 subtable" parenleft.sinf
Substitution2: "'subs' Subscript lookup 7 subtable" parenleft.subs
Comment: "+AAoA-parenleft+AAoA"
EndChar
StartChar: parenright
Encoding: 1257 41 1256
GlifName: parenright
Width: 302
VWidth: 0
Flags: W
LayerCount: 2
Back
SplineSet
46 -215 m 256
 57 -215 68 -211 77 -202 c 256
 146 -132 250 100 250 267 c 256
 250 435 152 616 83 686 c 256
 72 697 52 706 33 706 c 256
 20 706 -7 693 -7 677 c 256
 -7 673 13 646 17 642 c 257
 76 578 145 441 145 270 c 256
 145 124 85 -75 26 -139 c 257
 22 -143 -3 -171 -3 -174 c 256
 -3 -200 22 -215 46 -215 c 256
EndSplineSet
Fore
Refer: 1250 40 N -1 0 0 1 302 0 2
Validated: 17
PickledDataWithLists: "(dp0
Vcom.schriftgestaltung.Glyphs.glyph.leftMetricsKey
p1
V=|parenleft
p2
sVcom.schriftgestaltung.Glyphs.glyph.rightMetricsKey
p3
V=|parenleft
p4
sVpublic.markColor
p5
V0.67,0.95,0.38,1
p6
s."
Substitution2: "'ss04' Style Set 4 lookup 33 subtable" uni2767
Substitution2: "'ss02' Style Set 2 lookup 30 subtable" uni261E
Substitution2: "'smcp' Lowercase to Small Capitals lookup 22 subtable" parenright.sc
Substitution2: "'c2sc' Capitals to Small Capitals lookup 21 subtable" parenright.sc
Substitution2: "'ordn' Ordinals lookup 15 subtable" parenright.ordn
Substitution2: "'sups' Superscript lookup 9 subtable" parenright.sups
Substitution2: "'sinf' Scientific Inferiors lookup 8 subtable" parenright.sinf
Substitution2: "'subs' Subscript lookup 7 subtable" parenright.subs
Comment: "+AAoA-parenright+AAoA"
EndChar
StartChar: asterisk
Encoding: 573 42 572
GlifName: asterisk
Width: 361
VWidth: 0
Flags: W
LayerCount: 2
Fore
SplineSet
199 348 m 256
 222 348 231 367 231 386 c 256
 231 411 227 449 227 458 c 257
 248 451 270 443 291 436 c 257
 320 430 341 441 341 466 c 256
 341 480 330 492 316 499 c 256
 294 510 262 523 254 528 c 257
 306 572 l 258
 315 580 321 592 321 603 c 256
 321 621 307 634 291 634 c 256
 282 634 273 630 265 625 c 256
 244 612 216 591 208 587 c 257
 199 654 l 258
 197 672 183 688 165 689 c 257
 142 688 132 668 132 648 c 256
 132 623 132 603 134 579 c 257
 113 587 92 596 71 604 c 256
 42 614 20 602 20 578 c 256
 20 563 30 550 43 543 c 256
 65 531 97 516 104 510 c 257
 51 468 l 257
 41 461 34 448 34 436 c 256
 34 418 48 407 64 407 c 256
 73 407 81 410 89 414 c 256
 111 427 142 447 151 450 c 257
 164 382 l 257
 167 362 181 348 199 348 c 256
EndSplineSet
Validated: 41
PickledDataWithLists: "(dp0
Vpublic.markColor
p1
V0.67,0.95,0.38,1
p2
s."
Substitution2: "'ss04' Style Set 4 lookup 33 subtable" uni2766
Substitution2: "'smcp' Lowercase to Small Capitals lookup 22 subtable" asterisk.sc
Substitution2: "'c2sc' Capitals to Small Capitals lookup 21 subtable" asterisk.sc
Substitution2: "'ordn' Ordinals lookup 15 subtable" asterisk.ordn
Substitution2: "'sups' Superscript lookup 9 subtable" asterisk.sups
Substitution2: "'sinf' Scientific Inferiors lookup 8 subtable" asterisk.sinf
Substitution2: "'subs' Subscript lookup 7 subtable" asterisk.subs
Comment: "+AAoA-asterisk+AAoA"
EndChar
StartChar: plus
Encoding: 1289 43 1288
GlifName: plus
Width: 604
VWidth: 0
Flags: W
LayerCount: 2
Back
SplineSet
329 278 m 258
 329 469 l 258
 329 476 322 482 315 482 c 256
 309 482 269 473 269 451 c 258
 269 280 l 258
 269 274 268 272 262 272 c 258
 73 272 l 258
 55 272 49 243 49 234 c 256
 49 228 56 222 63 222 c 258
 265 222 l 258
 268 222 269 220 269 217 c 258
 269 6 l 258
 269 -1 275 -8 281 -8 c 256
 290 -8 329 -5 329 16 c 258
 329 218 l 258
 329 221 330 222 333 222 c 258
 518 222 l 258
 537 222 549 245 549 262 c 256
 549 268 543 272 536 272 c 258
 331 272 l 258
 329 272 329 273 329 278 c 258
EndSplineSet
Fore
SplineSet
284 -12 m 256
 299 -12 334 -4 334 17 c 258
 334 206 l 258
 334 215 338 219 347 219 c 258
 540 219 l 258
 559 219 574 249 574 266 c 256
 574 276 563 282 551 282 c 258
 347 282 l 258
 338 282 334 286 334 296 c 258
 334 489 l 258
 334 501 328 512 318 512 c 256
 301 512 271 497 271 478 c 258
 271 296 l 258
 271 286 270 282 257 282 c 258
 59 282 l 258
 38 282 30 247 30 232 c 256
 30 226 38 219 47 219 c 258
 258 219 l 258
 268 219 271 213 271 206 c 258
 271 5 l 258
 271 -4 278 -12 284 -12 c 256
EndSplineSet
Validated: 9
PickledDataWithLists: "(dp0
Vpublic.markColor
p1
V0.67,0.95,0.38,1
p2
s."
Substitution2: "'smcp' Lowercase to Small Capitals lookup 22 subtable" plus.sc
Substitution2: "'c2sc' Capitals to Small Capitals lookup 21 subtable" plus.sc
Substitution2: "'ordn' Ordinals lookup 15 subtable" plus.ordn
Substitution2: "'sups' Superscript lookup 9 subtable" plus.sups
Substitution2: "'sinf' Scientific Inferiors lookup 8 subtable" plus.sinf
Substitution2: "'subs' Subscript lookup 7 subtable" plus.subs
Comment: "+AAoA-plus+AAoA"
EndChar
StartChar: comma
Encoding: 698 44 697
GlifName: comma
Width: 251
VWidth: 0
Flags: W
LayerCount: 2
Back
SplineSet
39 -168 m 256
 126 -168 214 -94 214 15 c 256
 214 77 172 120 109 120 c 256
 72 120 36 91 36 55 c 256
 36 20 56 1 78 -6 c 256
 100 -13 120 -24 120 -50 c 256
 120 -92 84 -123 36 -129 c 256
 21 -131 12 -138 12 -149 c 256
 12 -160 23 -168 39 -168 c 256
EndSplineSet
Fore
SplineSet
49 -168 m 256
 136 -168 224 -94 224 15 c 256
 224 77 182 120 119 120 c 256
 82 120 46 91 46 55 c 256
 46 20 66 1 88 -6 c 256
 110 -13 130 -24 130 -50 c 256
 130 -89 101 -119 46 -134 c 256
 31 -138 22 -140 22 -151 c 256
 22 -162 33 -168 49 -168 c 256
EndSplineSet
Validated: 9
PickledDataWithLists: "(dp0
Vpublic.markColor
p1
V0.67,0.95,0.38,1
p2
s."
Substitution2: "'smcp' Lowercase to Small Capitals lookup 22 subtable" comma.sc
Substitution2: "'c2sc' Capitals to Small Capitals lookup 21 subtable" comma.sc
Substitution2: "'ordn' Ordinals lookup 15 subtable" comma.ordn
Substitution2: "'sups' Superscript lookup 9 subtable" comma.sups
Substitution2: "'sinf' Scientific Inferiors lookup 8 subtable" comma.sinf
Substitution2: "'subs' Subscript lookup 7 subtable" comma.subs
Comment: "+AAoA-comma+AAoA"
EndChar
StartChar: hyphen
Encoding: 45 45 93
Width: 459
VWidth: 0
Flags: HW
LayerCount: 3
Fore
SplineSet
33 167 m 0
 29 167 28 170 28 176 c 0
 28 199 37 231 53 232 c 0
 179 241 306 251 432 258 c 1
 401 258 354 257 354 249 c 0
 354 221 346 188 321 186 c 0
 230 179 137 172 33 167 c 0
EndSplineSet
Substitution2: "sups subtable" hyphen.sups
Substitution2: "sinf subtable" hyphen.sinf
Substitution2: "ordn subtable" hyphen.ordn
Substitution2: "subs subtable" hyphen.subs
EndChar
StartChar: period
Encoding: 1272 46 1271
GlifName: period
Width: 251
VWidth: 0
Flags: W
LayerCount: 2
Fore
SplineSet
124 -34 m 256
 174 -34 213 5 213 52 c 256
 213 102 174 141 124 141 c 256
 77 141 38 102 38 52 c 256
 38 5 77 -34 124 -34 c 256
EndSplineSet
Validated: 9
PickledDataWithLists: "(dp0
Vpublic.markColor
p1
V0.67,0.95,0.38,1
p2
s."
Substitution2: "'smcp' Lowercase to Small Capitals lookup 22 subtable" period.sc
Substitution2: "'c2sc' Capitals to Small Capitals lookup 21 subtable" period.sc
Substitution2: "'ordn' Ordinals lookup 15 subtable" period.ordn
Substitution2: "'sups' Superscript lookup 9 subtable" period.sups
Substitution2: "'sinf' Scientific Inferiors lookup 8 subtable" period.sinf
Substitution2: "'subs' Subscript lookup 7 subtable" period.subs
Comment: "+AAoA-period+AAoA"
EndChar
StartChar: slash
Encoding: 47 47 80
Width: 293
VWidth: 0
Flags: HMW
LayerCount: 3
Fore
SplineSet
237 650 m 2
 242 666 253 668 265 668 c 0
 270 668 275 662 275 652 c 0
 275 648 274 648 274 648 c 1
 274 647 l 1
 66 -49 l 2
 61 -64 51 -64 41 -64 c 0
 36 -64 28 -61 28 -50 c 0
 28 -47 29 -46 29 -46 c 1
 237 650 l 2
EndSplineSet
Substitution2: "frac_slash subtable" fraction
Substitution2: "sups subtable" slash.sups
Substitution2: "sinf subtable" slash.sinf
Substitution2: "ordn subtable" slash.ordn
Substitution2: "subs subtable" slash.subs
EndChar
StartChar: one
Encoding: 1208 49 1207
GlifName: one
Width: 540
VWidth: 0
Flags: W
LayerCount: 2
Back
SplineSet
50 -3 m 256
 104 -3 135 2 189 2 c 256
 242 2 267 -3 324 -3 c 256
 332 -3 336 2 336 8 c 256
 336 14 332 20 324 22 c 257
 293 28 272 35 248 57 c 256
 232 72 229 87 229 109 c 258
 229 557 l 258
 229 585 230 608 233 628 c 257
 234 633 227 637 221 637 c 256
 219 637 217 637 216 636 c 257
 180 611 131 593 73 589 c 257
 64 588 60 581 60 575 c 256
 60 568 65 561 74 560 c 256
 99 558 117 551 124 548 c 256
 133 544 145 535 145 517 c 258
 145 109 l 258
 145 87 142 72 126 57 c 256
 102 35 80 28 50 22 c 257
 42 21 39 15 39 10 c 256
 39 4 43 -3 50 -3 c 256
EndSplineSet
Fore
SplineSet
119 -3 m 256
 163 -3 249 2 289 2 c 256
 328 2 420 -2 462 -2 c 256
 472 -2 478 3 478 13 c 256
 478 26 471 30 459 34 c 257
 407 49 364 61 364 98 c 258
 364 552 l 258
 364 589 370 609 370 625 c 256
 370 632 358 636 348 636 c 256
 343 636 338 633 336 632 c 256
 270 599 209 578 126 573 c 256
 109 572 94 564 94 546 c 256
 94 530 109 524 120 522 c 256
 164 514 206 505 206 455 c 258
 206 97 l 258
 206 56 171 47 120 34 c 256
 108 31 101 24 101 12 c 256
 101 3 111 -3 119 -3 c 256
EndSplineSet
Guideline: "" "" 5 269 90 0 0
Guideline: "" "" -699 10 90 0 0
Validated: 9
PickledDataWithLists: "(dp0
Vpublic.markColor
p1
V0.67,0.95,0.38,1
p2
s."
Substitution2: "'case' Case-Sensitive Forms lookup 25 subtable" one.lf
Substitution2: "'smcp' Lowercase to Small Capitals lookup 22 subtable" one.sc
Substitution2: "'c2sc' Capitals to Small Capitals lookup 21 subtable" one.sc
Substitution2: "'onum' Oldstyle Figures lookup 19 subtable" one.tosf
Substitution2: "'pnum' Proportional Numbers lookup 17 subtable" one.lf
Substitution2: "'ordn' Ordinals lookup 15 subtable" one.ordn
Substitution2: "UP subtable" one.numr
Substitution2: "'sups' Superscript lookup 9 subtable" onesuperior
Substitution2: "'sinf' Scientific Inferiors lookup 8 subtable" oneinferior
Substitution2: "'subs' Subscript lookup 7 subtable" one.subs
Comment: "+AAoA-one.tablining+AAoA"
EndChar

StartChar: two
Encoding: 50 50 77
Width: 403
VWidth: 0
Flags: HW
HStem: -3 73<139.094 147 246 300.451> 340 73<94.0217 202>
VStem: 164 104<219.998 330.558>
LayerCount: 3
Fore
SplineSet
286 -3 m 0
 301 -4 312 -4 316 -4 c 0
 317 -4 327 0 327 14 c 0
 327 22 339 80 350 125 c 0
 351 128 351 131 351 133 c 0
 351 138 350 142 347 142 c 0
 339 142 332 136 329 131 c 0
 312 94 280 70 246 70 c 2
 147 70 l 2
 144 70 141 72 139 73 c 1
 150 80 194 153 225 189 c 0
 250 218 268 256 268 289 c 0
 268 354 231 413 173 413 c 0
 67 413 23 315 23 302 c 0
 23 295 24 286 29 286 c 0
 33 286 35 289 38 293 c 0
 62 330 87 340 119 340 c 0
 146 340 164 310 164 266 c 0
 164 189 85 96 69 78 c 0
 58 65 38 38 26 21 c 0
 23 17 21 14 21 7 c 0
 21 0 25 -3 28 -3 c 0
 32 -3 115 0 172 -0 c 0
 209 0 254 -2 286 -3 c 0
EndSplineSet
Substitution2: "'tnum' Tabular Numbers lookup 32 subtable" two.taboldstyle
Substitution2: "'lnum' Lining Figures lookup 30 subtable" two.lnum
Substitution2: "Single Substitution lookup 29 subtable" two.ordn
Substitution2: "Single Substitution lookup 28 subtable" two.subs
Substitution2: "sups subtable" two.sups
Substitution2: "sinf subtable" two.sinf
Substitution2: "ordn subtable" two.ordn
Substitution2: "subs subtable" two.subs
EndChar
StartChar: four
Encoding: 52 52 67
Width: 418
VWidth: 0
Flags: HMW
LayerCount: 3
Fore
SplineSet
342 51 m 0
 329 51 318 50 312 44 c 1
 312 -134 l 2
 312 -163 234 -184 224 -184 c 0
 213 -184 200 -181 200 -168 c 2
 200 40 l 1
 199 44 191 47 190 47 c 0
 133 47 104 41 30 40 c 0
 27 40 20 38 20 47 c 0
 20 51 23 57 24 58 c 0
 82 136 178 253 277 377 c 0
 290 394 305 420 312 421 c 1
 313 421 l 2
 323 421 316 409 316 407 c 0
 316 291 310 224 310 108 c 1
 310 108 311 105 313 105 c 0
 324 104 333 104 342 104 c 0
 355 104 367 105 383 106 c 0
 387 106 392 105 392 97 c 0
 392 79 382 50 377 50 c 0
 366 50 353 51 342 51 c 0
192 106 m 0
 195 106 199 110 200 112 c 1
 200 221 l 1
 199 223 195 223 194 221 c 0
 161 179 144 154 113 110 c 0
 112 109 111 107 111 106 c 1
 138 106 165 106 192 106 c 0
EndSplineSet
Substitution2: "'tnum' Tabular Numbers lookup 32 subtable" four.taboldstyle
Substitution2: "'lnum' Lining Figures lookup 30 subtable" four.lnum
Substitution2: "Single Substitution lookup 29 subtable" four.ordn
Substitution2: "Single Substitution lookup 28 subtable" four.subs
Substitution2: "sups subtable" four.sups
Substitution2: "sinf subtable" four.sinf
Substitution2: "ordn subtable" four.ordn
Substitution2: "subs subtable" four.subs
EndChar
StartChar: six
Encoding: 54 54 69
Width: 492
VWidth: 0
Flags: HMW
LayerCount: 3
Fore
SplineSet
234 -14 m 0
 101 -14 40 73 40 195 c 0
 40 346 121 440 156 481 c 5
 326 630.299987793 386 644.299987793 430 643 c 1
 435 643 l 2
 438 643 445 643 445 636 c 0
 445 620 424 615 421 613 c 0
 342 574 290 528 245 455 c 0
 215 406 167 310 167 192 c 0
 167 144 177 105 190 83 c 0
 202 62 232 27 262 27 c 0
 282 27 297 35 308 48 c 0
 323 65 338 97 338 144 c 0
 338 202 310 259 273 259 c 0
 248 259 233 256 217 244 c 0
 212 241 209 241 208 247 c 1
 206 252 210 257 212 260 c 0
 221 271 227 276 237 284 c 0
 251 295 294 317 328 317 c 0
 392 317 444 267 444 192 c 0
 444 84 375 -14 234 -14 c 0
EndSplineSet
Substitution2: "'tnum' Tabular Numbers lookup 32 subtable" six.taboldstyle
Substitution2: "'lnum' Lining Figures lookup 30 subtable" six.lnum
Substitution2: "Single Substitution lookup 29 subtable" six.ordn
Substitution2: "Single Substitution lookup 28 subtable" six.subs
Substitution2: "sups subtable" six.sups
Substitution2: "sinf subtable" six.sinf
Substitution2: "ordn subtable" six.ordn
Substitution2: "subs subtable" six.subs
EndChar
StartChar: eight
Encoding: 56 56 73
Width: 478
VWidth: 0
Flags: HMW
LayerCount: 3
Fore
SplineSet
266 343 m 0
 295 378 302 418 302 472 c 0
 302 516 279 562 247 562 c 0
 214 562 184 528 184 486 c 0
 184 417 214 396 258 343 c 0
 261 340 263 340 266 343 c 0
284 318 m 0
 370 272 430 236 430 159 c 0
 430 59 333 -13 234 -13 c 0
 143 -13 60 46 60 134 c 0
 60 219 151 259 209 285 c 0
 211 286 212 287 213 288 c 1
 212 290 211 292 209 294 c 0
 140 341 77 386 77 467 c 0
 77 546 170 591 255 591 c 0
 332 591 409 543 409 465 c 0
 409 418 376 391 350 372 c 0
 328 356 316 349 290 333 c 0
 282 328 277 325 276 323 c 1
 277 322 280 320 284 318 c 0
218 260 m 0
 187 228 167 206 167 149 c 0
 167 89 199 29 248 29 c 0
 292 29 323 70 323 120 c 0
 323 175 280 221 238 258 c 0
 232 263 230 266 226 266 c 0
 224 266 222 264 218 260 c 0
EndSplineSet
Substitution2: "'tnum' Tabular Numbers lookup 32 subtable" eight.taboldstyle
Substitution2: "'lnum' Lining Figures lookup 30 subtable" eight.lnum
Substitution2: "Single Substitution lookup 29 subtable" eight.ordn
Substitution2: "Single Substitution lookup 28 subtable" eight.subs
Substitution2: "sups subtable" eight.sups
Substitution2: "sinf subtable" eight.sinf
Substitution2: "ordn subtable" eight.ordn
Substitution2: "subs subtable" eight.subs
EndChar
StartChar: colon
Encoding: 691 58 690
GlifName: colon
Width: 289
VWidth: 0
Flags: W
LayerCount: 2
Back
SplineSet
125 373 m 256
 95 373 70 348 70 318 c 256
 70 288 95 263 125 263 c 256
 155 263 180 288 180 318 c 256
 180 348 155 373 125 373 c 256
125 96 m 256
 95 96 70 71 70 41 c 256
 70 11 95 -14 125 -14 c 256
 155 -14 180 11 180 41 c 256
 180 71 155 96 125 96 c 256
EndSplineSet
Fore
Refer: 1271 46 N 1 0 0 1 10 276 2
Refer: 1271 46 N 1 0 0 1 10 0 2
Validated: 9
PickledDataWithLists: "(dp0
Vpublic.markColor
p1
V0.67,0.95,0.38,1
p2
s."
Substitution2: "'smcp' Lowercase to Small Capitals lookup 22 subtable" colon.sc
Substitution2: "'c2sc' Capitals to Small Capitals lookup 21 subtable" colon.sc
Substitution2: "'ordn' Ordinals lookup 15 subtable" colon.ordn
Substitution2: "'sups' Superscript lookup 9 subtable" colon.sups
Substitution2: "'sinf' Scientific Inferiors lookup 8 subtable" colon.sinf
Substitution2: "'subs' Subscript lookup 7 subtable" colon.subs
Comment: "+AAoA-colon+AAoA"
EndChar
StartChar: semicolon
Encoding: 59 59 63
Width: 259
VWidth: 0
Flags: HMW
LayerCount: 3
Fore
SplineSet
42 -150 m 0
 28 -150 20 -146 20 -136 c 0
 20 -128 26 -124 35 -122 c 0
 79 -113 132 -82 132 -15 c 0
 132 -2 110 24 81 26 c 0
 43 29 18 46 18 71 c 0
 18 102 55 120 95 120 c 0
 161 120 212 79 212 20 c 0
 212 -85 102 -150 42 -150 c 0
100 376 m 0
 144 376 184 351 184 318 c 0
 184 285 144 260 100 260 c 0
 56 260 17 285 17 318 c 0
 17 351 56 376 100 376 c 0
EndSplineSet
Substitution2: "sups subtable" semicolon.sups
Substitution2: "sinf subtable" semicolon.sinf
Substitution2: "ordn subtable" semicolon.ordn
Substitution2: "subs subtable" semicolon.subs
EndChar
StartChar: less
Encoding: 1081 60 1080
GlifName: less
Width: 537
VWidth: 0
Flags: W
LayerCount: 2
Back
SplineSet
503 0 m 258
 511 -4 521 0 523 5 c 256
 536 29 519 59 490 72 c 258
 111 242 l 258
 100 247 64 254 60 245 c 256
 54 230 34 242 34 222 c 256
 34 206 63 201 77 194 c 257
 503 0 l 258
503 469 m 258
 82 275 l 258
 47 259 34 241 34 222 c 256
 34 207 72 238 78 223 c 256
 82 214 101 222 112 227 c 258
 490 397 l 258
 519 410 536 440 523 464 c 256
 521 469 511 473 503 469 c 258
EndSplineSet
Fore
SplineSet
478 0 m 257
 489 -6 502 1 502 22 c 256
 502 42 487 62 465 72 c 258
 137 229 l 258
 130 232 132 237 137 239 c 258
 465 397 l 258
 487 407 502 427 502 447 c 256
 502 459 498 471 485 471 c 256
 483 471 480 470 478 469 c 258
 75 272 l 257
 51 263 35 230 35 220 c 256
 35 212 64 198 85 188 c 257
 478 0 l 257
EndSplineSet
Validated: 41
PickledDataWithLists: "(dp0
Vpublic.markColor
p1
V0.67,0.95,0.38,1
p2
s."
Substitution2: "'ss04' Style Set 4 lookup 33 subtable" bullet.03
Substitution2: "'ss02' Style Set 2 lookup 30 subtable" bullet.02
Substitution2: "'smcp' Lowercase to Small Capitals lookup 22 subtable" less.sc
Substitution2: "'c2sc' Capitals to Small Capitals lookup 21 subtable" less.sc
Substitution2: "'ordn' Ordinals lookup 15 subtable" less.ordn
Substitution2: "'sups' Superscript lookup 9 subtable" less.sups
Substitution2: "'sinf' Scientific Inferiors lookup 8 subtable" less.sinf
Substitution2: "'subs' Subscript lookup 7 subtable" less.subs
Comment: "+AAoA-less+AAoA"
EndChar
StartChar: equal
Encoding: 817 61 816
GlifName: equal
Width: 643
VWidth: 0
Flags: W
LayerCount: 2
Back
SplineSet
539 364 m 258
 86 364 l 258
 68 364 62 335 62 326 c 256
 62 320 69 314 76 314 c 258
 521 314 l 258
 540 314 546 333 552 350 c 257
 552 351 553 352 553 353 c 256
 553 359 545 364 539 364 c 258
539 193 m 258
 86 193 l 258
 68 193 62 164 62 155 c 256
 62 149 69 143 76 143 c 258
 521 143 l 258
 540 143 546 162 552 179 c 257
 552 180 553 181 553 182 c 256
 553 188 545 193 539 193 c 258
64 217 m 258
 592 217 l 258
 613 217 630 248 630 267 c 256
 630 277 618 285 603 285 c 258
 78 285 l 258
 54 285 45 246 45 232 c 256
 45 226 54 217 64 217 c 258
EndSplineSet
Fore
SplineSet
61 316 m 258
 566 316 l 258
 583 316 598 342 598 358 c 256
 598 367 588 374 575 374 c 258
 73 374 l 258
 52 374 45 341 45 329 c 256
 45 324 52 316 61 316 c 258
61 133 m 258
 566 133 l 258
 583 133 598 159 598 175 c 256
 598 184 588 191 575 191 c 258
 73 191 l 258
 52 191 45 158 45 146 c 256
 45 141 52 133 61 133 c 258
EndSplineSet
Validated: 9
PickledDataWithLists: "(dp0
Vpublic.markColor
p1
V0.67,0.95,0.38,1
p2
s."
Substitution2: "'smcp' Lowercase to Small Capitals lookup 22 subtable" equal.sc
Substitution2: "'c2sc' Capitals to Small Capitals lookup 21 subtable" equal.sc
Substitution2: "'ordn' Ordinals lookup 15 subtable" equal.ordn
Substitution2: "'sups' Superscript lookup 9 subtable" equal.sups
Substitution2: "'sinf' Scientific Inferiors lookup 8 subtable" equal.sinf
Substitution2: "'subs' Subscript lookup 7 subtable" equal.subs
Comment: "+AAoA-equal+AAoA"
EndChar
StartChar: question
Encoding: 1310 63 1309
GlifName: question
Width: 399
VWidth: 0
Flags: W
LayerCount: 2
Back
SplineSet
148 171 m 256
 161 171 169 179 171 195 c 256
 176 235 184 248 213 263 c 256
 246 281 276 300 304 314 c 256
 329 326 354 357 354 412 c 256
 354 472 326 534 281 582 c 256
 236 630 183 661 126 661 c 256
 86 661 55 639 55 614 c 256
 55 578 84 541 114 541 c 256
 128 541 139 544 149 548 c 257
 158 551 167 555 180 555 c 256
 227 555 274 526 274 468 c 256
 274 437 251 418 222 405 c 256
 148 372 88 345 88 291 c 256
 88 254 101 223 113 202 c 256
 125 182 138 171 148 171 c 256
144 -14 m 256
 185 -14 219 20 219 61 c 256
 219 102 185 136 144 136 c 256
 103 136 69 102 69 61 c 256
 69 20 103 -14 144 -14 c 256
EndSplineSet
Fore
SplineSet
148 171 m 256
 161 171 169 179 171 195 c 256
 176 235 184 248 213 263 c 256
 246 281 276 300 304 314 c 256
 329 326 354 357 354 412 c 256
 354 472 326 534 281 582 c 256
 236 630 183 661 126 661 c 256
 86 661 51 634 51 609 c 256
 51 573 84 517 114 517 c 256
 128 517 139 520 149 524 c 256
 158 528 172 536 204 536 c 256
 239 536 274 520 274 486 c 256
 274 449 251 428 209 409 c 256
 127 372 88 340 88 291 c 256
 88 254 101 223 113 202 c 256
 125 182 138 171 148 171 c 256
144 -14 m 256
 185 -14 219 20 219 61 c 256
 219 102 185 136 144 136 c 256
 103 136 69 102 69 61 c 256
 69 20 103 -14 144 -14 c 256
EndSplineSet
Validated: 9
PickledDataWithLists: "(dp0
Vpublic.markColor
p1
V0.67,0.95,0.38,1
p2
s."
Substitution2: "'smcp' Lowercase to Small Capitals lookup 22 subtable" question.sc
Substitution2: "'c2sc' Capitals to Small Capitals lookup 21 subtable" question.sc
Substitution2: "'ordn' Ordinals lookup 15 subtable" question.ordn
Substitution2: "'sups' Superscript lookup 9 subtable" question.sups
Substitution2: "'sinf' Scientific Inferiors lookup 8 subtable" question.sinf
Substitution2: "'subs' Subscript lookup 7 subtable" question.subs
Comment: "+AAoA-question+AAoA"
EndChar
StartChar: at
Encoding: 579 64 578
GlifName: at
Width: 788
VWidth: 0
Flags: W
LayerCount: 2
Fore
SplineSet
402 -158 m 256
 522 -158 689 -63 689 -29 c 256
 689 -17 680 -10 662 -10 c 256
 652 -10 637 -20 625 -28 c 256
 570 -66 476 -96 414 -96 c 256
 247 -96 104 31 104 196 c 256
 104 371 249 481 415 481 c 256
 578 481 683 379 683 226 c 256
 683 144 621 94 551 94 c 256
 537 94 533 108 533 123 c 256
 533 132 535 140 536 148 c 257
 560 285 l 258
 564 306 576 355 588 386 c 257
 588 394 558 397 553 397 c 256
 540 397 535 370 523 370 c 256
 518 370 505 376 494 379 c 256
 478 383 446 390 421 390 c 256
 287 390 177 296 177 148 c 256
 177 64 241 17 323 17 c 256
 399 17 452 64 464 64 c 256
 476 64 487 22 547 22 c 256
 651 22 758 116 758 244 c 256
 758 417 606 543 429 543 c 256
 216 543 30 420 30 185 c 256
 30 -18 204 -158 402 -158 c 256
364 75 m 256
 328 75 286 106 286 181 c 256
 286 282 338 342 394 342 c 256
 434 342 467 314 467 276 c 256
 467 271 467 266 466 264 c 257
 444 147 l 258
 439 117 432 104 420 95 c 256
 402 82 386 75 364 75 c 256
EndSplineSet
Validated: 9
Substitution2: "'smcp' Lowercase to Small Capitals lookup 22 subtable" at.sc
Substitution2: "'c2sc' Capitals to Small Capitals lookup 21 subtable" at.sc
Substitution2: "'ordn' Ordinals lookup 15 subtable" at.ordn
Substitution2: "'sups' Superscript lookup 9 subtable" at.sups
Substitution2: "'sinf' Scientific Inferiors lookup 8 subtable" at.sinf
Substitution2: "'subs' Subscript lookup 7 subtable" at.subs
Comment: "+AAoA-at+AAoA"
EndChar
StartChar: A
Encoding: 65 65 31
Width: 641
VWidth: 0
Flags: HWO
HStem: -5 41<-2.43177 68.5091 189.715 242.854 368.013 427.451 626.051 709.2> 239 48<249 374.999>
VStem: 434 277<2 90.5>
AnchorPoint: "cedilla" 142 11 basechar 0
AnchorPoint: "ogonek" 450 21 basechar 0
AnchorPoint: "below_accent" 289 -98 basechar 0
AnchorPoint: "top_accent" 309 708 basechar 0
LayerCount: 3
UndoRedoHistory
Layer: 0
Undoes
EndUndoes
Redoes
EndRedoes
EndUndoRedoHistory
Fore
SplineSet
674 -5 m 0
 639 -5 556 1 500 1 c 0
 451 1 436 0 406 0 c 0
 386 0 368 3 368 15 c 0
 368 28 380 33 392 36 c 0
 423 43 434 59 434 77 c 0
 434 104 405 180 394 229 c 0
 392 237 388 239 375 239 c 2
 237 239 l 2
 233 239 229 235 226 222 c 0
 220 197 179 98 179 88 c 0
 179 63 196 43 219 35 c 0
 235 29 243 26 243 13 c 0
 243 1 233 -1 222 -1 c 0
 209 -1 184 1 158 1 c 0
 127 1 41 -5 18 -5 c 0
 7 -5 -3 -1 -3 11 c 0
 -3 24 9 29 29 36 c 0
 61 46 89.4363 63.8205 109 112 c 2
 298 578 l 2
 314.178 617.841 304.704 618.347 310.5 619.9 c 0
 324.989 623.783 344.365 651.084 356.5 659.9 c 0
 369.291 669.193 374 686 380 686 c 0
 385 686 385.511 673.2 390 661 c 2
 390 661 554 225 585 131 c 0
 611 52 641 40 679 33 c 0
 700 29 711 20 711 8 c 0
 711 -4 694 -5 674 -5 c 0
374 298 m 2
 320 464 l 2
 317 476 316 481 314 481 c 0
 313 481 312 476 309 465 c 1
 245 298 l 2
 243.868 295.045 244 291 244 291 c 2
 244 288 248 287 258 287 c 2
 366 287 l 2
 374 287 375 289 375 290 c 0
 375 291 375.275 294.081 374 298 c 2
EndSplineSet
Substitution2: "c2sc subtable" A.sc
Substitution2: "sups subtable" A.sups
Substitution2: "sinf subtable" A.sinf
Substitution2: "ordn subtable" A.ordn
Substitution2: "subs subtable" A.subs
EndChar
StartChar: B
Encoding: 35 66 35
GlifName: B_
Width: 635
VWidth: 0
Flags: W
AnchorPoint: "bottom.cap" 318 -30 basechar 0
AnchorPoint: "top.cap" 302 675 basechar 0
LayerCount: 2
Back
SplineSet
68 -5 m 256
 126 -5 146 0 198 0 c 256
 238 0 275 -4 293 -4 c 256
 359 -4 411 9 453 30 c 256
 494 51 557 84 557 194 c 256
 557 310 475 340 415 359 c 256
 409 361 410 367 415 369 c 256
 448 382 461 392 482 412 c 256
 497 427 516 463 516 508 c 256
 516 617 440 657 294 657 c 256
 236 657 221 652 183 652 c 256
 142 652 133 653 79 653 c 256
 62 653 50 650 50 642 c 256
 50 633 60 624 83 622 c 256
 132 618 150 597 150 549 c 258
 150 99 l 258
 150 51 122 33 72 24 c 256
 49 20 39 15 39 6 c 256
 39 -2 51 -5 68 -5 c 256
307 37 m 256
 256 37 228 52 228 108 c 258
 228 307 l 258
 228 320 242 343 285 343 c 256
 335 343 371 328 389 318 c 256
 416 303 463 266 463 189 c 256
 463 103 385 37 307 37 c 256
274 371 m 256
 258 371 228 373 228 408 c 258
 228 582 l 258
 228 612 239 627 294 627 c 256
 407 627 430 552 430 495 c 256
 430 437 399 408 385 400 c 256
 345 376 300 371 274 371 c 256
EndSplineSet
Fore
SplineSet
35 -5 m 256
 74 -5 138 0 179 0 c 256
 231 0 275 -4 326 -4 c 256
 403 -4 457 6 501 27 c 256
 543 48 607 81 607 194 c 256
 607 310 515 342 443 355 c 256
 437 356 438 364 443 365 c 256
 471 371 496 384 517 402 c 256
 550 429 571 468 571 508 c 256
 571 617 486 657 327 657 c 256
 254 657 226 647 178 647 c 256
 126 647 100 655 35 655 c 256
 23 655 15 648 15 639 c 256
 15 631 20 622 36 618 c 256
 83 607 96 594 96 551 c 258
 96 95 l 258
 96 54 80 45 36 32 c 256
 23 28 16 19 16 11 c 256
 16 3 23 -5 35 -5 c 256
323 54 m 256
 287 54 266 76 266 116 c 258
 266 288 l 258
 266 311 293 320 310 320 c 256
 346 320 371 307 381 298 c 256
 398 284 426 253 426 186 c 256
 426 111 379 54 323 54 c 256
305 368 m 256
 289 368 266 379 266 403 c 258
 266 568 l 258
 266 596 283 610 317 610 c 256
 379 610 411 574 411 485 c 256
 411 431 391 404 382 395 c 256
 358 374 336 368 305 368 c 256
EndSplineSet
Validated: 9
PickledDataWithLists: "(dp0
Vpublic.markColor
p1
V0.67,0.95,0.38,1
p2
s."
Substitution2: "'c2pc' Capitals to Petite Capitals lookup 23 subtable" B.pc
Substitution2: "'c2sc' Capitals to Small Capitals lookup 21 subtable" B.sc
Substitution2: "'ordn' Ordinals lookup 15 subtable" B.ordn
Substitution2: "'sups' Superscript lookup 9 subtable" B.sups
Substitution2: "'sinf' Scientific Inferiors lookup 8 subtable" B.sinf
Substitution2: "'subs' Subscript lookup 7 subtable" B.subs
Comment: "+AAoA-B+AAoA"
EndChar
StartChar: C
Encoding: 44 67 44
GlifName: C_
Width: 709
VWidth: 0
Flags: W
AnchorPoint: "bottom.cap" 412 -30 basechar 0
AnchorPoint: "top.cap" 405 675 basechar 0
LayerCount: 2
Back
SplineSet
389 -14 m 256
 474 -14 540 1 589 24 c 256
 601 30 610 39 614 54 c 256
 628 102 634 143 634 172 c 256
 634 193 602 196 592 172 c 256
 553 82 504 43 408 43 c 256
 268 43 208 165 208 344 c 256
 208 483 279 609 408 609 c 256
 473 609 516 588 541 560 c 256
 561 538 571 507 579 480 c 256
 586 456 623 456 623 480 c 256
 623 509 622 553 615 601 c 256
 613 616 605 623 594 628 c 256
 549 647 477 664 417 664 c 256
 168 664 25 495 25 315 c 256
 25 118 186 -14 389 -14 c 256
EndSplineSet
Fore
SplineSet
404 -14 m 256
 492 -14 561 1 612 24 c 256
 624 30 634 39 638 54 c 256
 652 102 659 143 659 172 c 256
 659 193 632 196 621 172 c 256
 580 82 524 43 424 43 c 256
 278 43 208 165 208 344 c 256
 208 483 290 609 424 609 c 256
 493 609 539 588 566 560 c 256
 588 538 598 507 607 480 c 256
 615 456 647 456 647 480 c 256
 647 509 646 553 639 601 c 256
 637 616 628 623 617 628 c 256
 570 647 495 664 433 664 c 256
 174 664 25 495 25 315 c 256
 25 118 193 -14 404 -14 c 256
EndSplineSet
Validated: 41
PickledDataWithLists: "(dp0
Vpublic.markColor
p1
V0.67,0.95,0.38,1
p2
s."
Substitution2: "'c2pc' Capitals to Petite Capitals lookup 23 subtable" C.pc
Substitution2: "'c2sc' Capitals to Small Capitals lookup 21 subtable" C.sc
Substitution2: "'ordn' Ordinals lookup 15 subtable" C.ordn
Substitution2: "'sups' Superscript lookup 9 subtable" C.sups
Substitution2: "'sinf' Scientific Inferiors lookup 8 subtable" C.sinf
Substitution2: "'subs' Subscript lookup 7 subtable" C.subs
Comment: "+AAoA-C+AAoA"
EndChar
StartChar: D
Encoding: 69 68 69
GlifName: D_
Width: 769
VWidth: 0
Flags: W
AnchorPoint: "bottom.cap" 364 -30 basechar 0
AnchorPoint: "top.cap" 381 675 basechar 0
LayerCount: 2
Fore
SplineSet
385 -7 m 256
 619 -7 744 159 744 335 c 256
 744 528 580 659 394 659 c 256
 340 659 222 650 183 650 c 256
 143 650 77 655 33 655 c 256
 25 655 15 649 15 640 c 256
 15 628 22 621 34 618 c 256
 87 606 100 594 100 551 c 258
 100 97 l 258
 100 56 85 45 34 34 c 256
 22 31 15 24 15 12 c 256
 15 3 25 -3 33 -3 c 256
 77 -3 143 0 183 0 c 256
 209 0 305 -7 385 -7 c 256
369 48 m 256
 301 48 270 72 270 134 c 258
 270 568 l 258
 270 599 299 601 359 601 c 256
 496 601 561 481 561 306 c 256
 561 149 500 48 369 48 c 256
EndSplineSet
Validated: 9
PickledDataWithLists: "(dp0
Vpublic.markColor
p1
V0.67,0.95,0.38,1
p2
s."
Substitution2: "'c2pc' Capitals to Petite Capitals lookup 23 subtable" D.pc
Substitution2: "'c2sc' Capitals to Small Capitals lookup 21 subtable" D.sc
Substitution2: "'ordn' Ordinals lookup 15 subtable" D.ordn
Substitution2: "'sups' Superscript lookup 9 subtable" D.sups
Substitution2: "'sinf' Scientific Inferiors lookup 8 subtable" D.sinf
Substitution2: "'subs' Subscript lookup 7 subtable" D.subs
Comment: "+AAoA-D+AAoA"
EndChar
StartChar: E
Encoding: 81 69 81
GlifName: E_
Width: 577
VWidth: 0
Flags: W
AnchorPoint: "bottom.cap" 296 -30 basechar 0
AnchorPoint: "top.cap" 299 675 basechar 0
LayerCount: 2
Back
SplineSet
35 -5 m 256
 74 -5 139 0 179 0 c 256
 300 0 494 -4 507 -4 c 256
 517 -4 528 -1 531 8 c 257
 545 58 563 124 563 160 c 256
 563 169 556 175 548 175 c 256
 540 175 534 173 529 163 c 256
 516 132 500 101 477 82 c 256
 458 66 430 59 404 59 c 258
 315 59 l 258
 281 59 266 73 266 110 c 258
 266 280 l 258
 266 294 273 303 288 303 c 258
 382 303 l 258
 407 303 421 285 433 242 c 256
 437 228 447 218 457 218 c 256
 464 218 469 226 467 246 c 256
 464 276 463 302 463 329 c 256
 463 356 465 383 468 412 c 257
 469 427 462 435 456 435 c 256
 448 435 440 429 435 417 c 256
 423 385 412 361 377 361 c 258
 292 361 l 258
 276 361 266 367 266 385 c 258
 266 546 l 258
 266 575 290 592 323 592 c 258
 386 592 l 258
 423 592 444 585 459 570 c 256
 474 555 483 531 498 495 c 256
 503 483 512 478 519 478 c 256
 526 478 532 485 532 498 c 256
 532 534 524 583 515 633 c 256
 512 649 499 654 489 654 c 256
 476 654 300 650 179 650 c 256
 139 650 79 655 35 655 c 256
 23 655 15 648 15 639 c 256
 15 631 20 622 36 618 c 256
 83 607 96 594 96 551 c 258
 96 95 l 258
 96 54 80 45 36 32 c 256
 23 28 16 19 16 11 c 256
 16 3 23 -5 35 -5 c 256
EndSplineSet
Fore
SplineSet
35 -5 m 256
 74 -5 139 0 179 0 c 256
 300 0 494 -4 507 -4 c 256
 517 -4 528 -1 531 8 c 257
 545 58 563 104 563 140 c 256
 563 149 561 160 553 160 c 256
 545 160 539 158 534 148 c 256
 519 118 500 87 477 68 c 256
 458 52 430 45 404 45 c 258
 315 45 l 258
 281 45 266 59 266 96 c 258
 266 285 l 258
 266 299 273 308 288 308 c 258
 382 308 l 258
 407 308 421 285 433 242 c 256
 437 228 447 218 457 218 c 256
 464 218 469 226 467 246 c 256
 464 276 463 302 463 329 c 256
 463 356 465 383 468 412 c 257
 469 427 462 435 456 435 c 256
 448 435 440 429 435 417 c 256
 423 385 412 355 377 355 c 258
 292 355 l 258
 276 355 266 361 266 379 c 258
 266 563 l 258
 266 592 290 609 323 609 c 258
 386 609 l 258
 423 609 444 592 459 577 c 256
 474 562 483 538 498 502 c 256
 503 490 512 485 519 485 c 256
 526 485 532 492 532 505 c 256
 532 541 520 590 515 640 c 256
 513 656 499 661 489 661 c 256
 484 661 454 653 412 653 c 256
 346 651 253 650 179 650 c 256
 139 650 79 655 35 655 c 256
 23 655 15 648 15 639 c 256
 15 631 20 622 36 618 c 256
 83 607 96 594 96 551 c 258
 96 95 l 258
 96 54 80 45 36 32 c 256
 23 28 16 19 16 11 c 256
 16 3 23 -5 35 -5 c 256
EndSplineSet
Validated: 9
PickledDataWithLists: "(dp0
Vcom.schriftgestaltung.Glyphs.glyph.leftMetricsKey
p1
VH
p2
sVpublic.markColor
p3
V0.67,0.95,0.38,1
p4
s."
Substitution2: "'c2pc' Capitals to Petite Capitals lookup 23 subtable" E.pc
Substitution2: "'c2sc' Capitals to Small Capitals lookup 21 subtable" E.sc
Substitution2: "'ordn' Ordinals lookup 15 subtable" E.ordn
Substitution2: "'sups' Superscript lookup 9 subtable" E.sups
Substitution2: "'sinf' Scientific Inferiors lookup 8 subtable" E.sinf
Substitution2: "'subs' Subscript lookup 7 subtable" E.subs
Comment: "+AAoA-E+AAoA"
EndChar
StartChar: F
Encoding: 134 70 134
GlifName: F_
Width: 554
VWidth: 0
Flags: W
AnchorPoint: "bottom.cap" 192 -30 basechar 0
AnchorPoint: "top.cap" 306 675 basechar 0
LayerCount: 2
Fore
SplineSet
33 -3 m 256
 77 -3 143 2 183 2 c 256
 222 2 309 -2 351 -2 c 256
 361 -2 367 3 367 13 c 256
 367 26 360 31 348 34 c 257
 291 46 270 56 270 98 c 256
 270 158 268 226 268 286 c 256
 268 300 275 309 290 309 c 256
 309 309 329 309 348 309 c 256
 363 309 379 309 394 309 c 256
 419 309 433 297 445 256 c 256
 449 242 459 232 469 232 c 256
 476 232 481 240 479 260 c 256
 476 290 475 302 475 329 c 256
 475 349 477 376 480 405 c 257
 481 420 474 428 468 428 c 256
 460 428 452 422 447 410 c 256
 435 380 424 356 389 356 c 256
 358 356 327 356 296 356 c 256
 280 356 270 362 270 380 c 256
 270 410 270 447 270 477 c 257
 270 500 270 535 270 558 c 256
 270 587 294 604 327 604 c 258
 390 604 l 258
 425 604 447 595 464 578 c 256
 482 559 492 530 502 495 c 256
 505 483 516 478 523 478 c 256
 530 478 536 485 536 498 c 256
 536 534 534 589 531 640 c 256
 530 656 515 661 505 661 c 256
 475 661 426 650 369 650 c 256
 309 650 239 650 183 650 c 256
 143 650 83 655 39 655 c 256
 27 655 19 648 19 639 c 256
 19 631 24 622 40 618 c 256
 87 607 100 594 100 551 c 258
 100 97 l 258
 100 56 85 45 34 34 c 256
 22 31 15 24 15 12 c 256
 15 3 25 -3 33 -3 c 256
EndSplineSet
Validated: 9
PickledDataWithLists: "(dp0
Vpublic.markColor
p1
V0.67,0.95,0.38,1
p2
s."
Substitution2: "'c2pc' Capitals to Petite Capitals lookup 23 subtable" F.pc
Substitution2: "'c2sc' Capitals to Small Capitals lookup 21 subtable" F.sc
Substitution2: "'ordn' Ordinals lookup 15 subtable" F.ordn
Substitution2: "'sups' Superscript lookup 9 subtable" F.sups
Substitution2: "'sinf' Scientific Inferiors lookup 8 subtable" F.sinf
Substitution2: "'subs' Subscript lookup 7 subtable" F.subs
Comment: "+AAoA-F+AAoA"
EndChar
StartChar: G
Encoding: 141 71 141
GlifName: G_
Width: 717
VWidth: 0
Flags: W
AnchorPoint: "bottom.cap" 388 -30 basechar 0
AnchorPoint: "top" 403 675 basechar 0
AnchorPoint: "top.cap" 414 675 basechar 0
LayerCount: 2
Back
SplineSet
392 -14 m 256
 529 -14 610 45 632 48 c 256
 647 50 653 61 653 73 c 256
 653 85 644 90 640 97 c 256
 637 102 629 105 629 112 c 258
 629 146 l 258
 629 172 630 192 636 221 c 256
 641 248 651 259 691 270 c 256
 703 273 710 278 710 291 c 256
 710 301 704 306 694 306 c 256
 652 306 602 302 563 302 c 256
 523 302 448 307 404 307 c 256
 393 307 382 301 382 292 c 256
 382 280 395 272 407 269 c 256
 425 265 458 257 479 241 c 256
 486 236 490 222 490 208 c 256
 490 190 489 144 488 127 c 256
 487 99 479 74 466 65 c 256
 452 55 433 43 409 43 c 256
 269 43 208 165 208 344 c 256
 208 483 287 609 440 609 c 256
 501 609 534 588 560 562 c 256
 583 539 600 506 612 480 c 256
 618 468 624 460 640 460 c 256
 650 460 657 467 657 480 c 256
 657 509 652 553 645 601 c 256
 643 616 635 623 623 628 c 256
 576 646 477 664 422 664 c 256
 176 664 25 495 25 315 c 256
 25 118 188 -14 392 -14 c 256
EndSplineSet
Fore
SplineSet
376 -14 m 256
 513 -14 594 45 616 48 c 256
 631 50 637 60 637 70 c 256
 637 78 634 85 627 92 c 256
 620 99 613 105 613 112 c 258
 613 146 l 258
 613 172 614 192 620 221 c 256
 625 248 635 259 675 270 c 256
 687 273 694 278 694 291 c 256
 694 301 688 306 678 306 c 256
 636 306 586 302 547 302 c 256
 507 302 432 307 388 307 c 256
 377 307 366 301 366 292 c 256
 366 280 379 272 391 269 c 256
 409 265 428 259 448 251 c 256
 468 243 474 229 474 215 c 256
 474 197 473 144 472 127 c 256
 471 99 463 74 450 65 c 256
 436 55 417 43 393 43 c 256
 263 43 208 165 208 344 c 256
 208 483 281 609 423 609 c 256
 484 609 517 588 543 562 c 256
 566 539 583 506 595 480 c 256
 601 468 607 460 623 460 c 256
 633 460 640 467 640 480 c 256
 640 509 635 553 628 601 c 256
 626 616 618 623 606 628 c 256
 559 646 460 664 405 664 c 256
 169 664 25 495 25 315 c 256
 25 118 181 -14 376 -14 c 256
EndSplineSet
Validated: 9
PickledDataWithLists: "(dp0
Vpublic.markColor
p1
V0.67,0.95,0.38,1
p2
s."
Substitution2: "'c2pc' Capitals to Petite Capitals lookup 23 subtable" G.pc
Substitution2: "'c2sc' Capitals to Small Capitals lookup 21 subtable" G.sc
Substitution2: "'ordn' Ordinals lookup 15 subtable" G.ordn
Substitution2: "'sups' Superscript lookup 9 subtable" G.sups
Substitution2: "'sinf' Scientific Inferiors lookup 8 subtable" G.sinf
Substitution2: "'subs' Subscript lookup 7 subtable" G.subs
Comment: "+AAoA-G+AAoA"
EndChar
StartChar: H
Encoding: 162 72 162
GlifName: H_
Width: 799
VWidth: 0
Flags: W
AnchorPoint: "bottom.cap" 399 -30 basechar 0
AnchorPoint: "top.cap" 400 675 basechar 0
LayerCount: 2
Back
SplineSet
27 -3 m 256
 71 -3 137 2 177 2 c 256
 216 2 290 -2 332 -2 c 256
 342 -2 348 3 348 13 c 256
 348 26 341 30 329 34 c 256
 277 49 264 61 264 98 c 258
 264 550 l 258
 264 590 274 602 329 618 c 256
 341 622 348 626 348 639 c 256
 348 649 342 654 332 654 c 256
 290 654 216 650 177 650 c 256
 137 650 71 655 27 655 c 256
 19 655 9 649 9 640 c 256
 9 628 16 621 28 618 c 256
 81 606 94 594 94 551 c 258
 94 97 l 258
 94 56 79 45 28 34 c 256
 16 31 9 24 9 12 c 256
 9 3 19 -3 27 -3 c 256
669 100 m 258
 669 552 l 258
 669 590 672 613 722 622 c 256
 745 626 755 633 755 642 c 256
 755 650 743 653 726 653 c 256
 672 653 671 650 635 650 c 256
 590 650 573 653 519 653 c 256
 502 653 490 650 490 642 c 256
 490 633 500 626 523 622 c 256
 573 613 589 588 589 552 c 258
 589 362 l 258
 589 353 587 350 582 350 c 258
 211 350 l 258
 205 350 197 351 197 359 c 258
 197 551 l 258
 197 590 215 613 265 622 c 256
 288 626 298 633 298 642 c 256
 298 650 286 653 269 653 c 256
 215 653 204 650 163 650 c 256
 123 650 114 653 60 653 c 256
 43 653 31 650 31 642 c 256
 31 633 41 626 64 622 c 256
 114 613 117 597 117 551 c 258
 117 99 l 258
 117 51 107 33 57 24 c 256
 34 20 24 15 24 6 c 256
 24 -2 36 -5 53 -5 c 256
 107 -5 120 0 163 0 c 256
 209 0 226 -5 280 -5 c 256
 297 -5 309 -2 309 6 c 256
 309 15 299 20 276 24 c 256
 230 32 197 64 197 106 c 258
 197 291 l 258
 197 299 197 302 202 302 c 258
 584 302 l 258
 590 302 589 294 589 287 c 258
 589 97 l 258
 589 54 563 32 521 24 c 256
 498 20 488 15 488 6 c 256
 488 -2 500 -5 517 -5 c 256
 571 -5 582 0 624 0 c 256
 665 0 674 -5 728 -5 c 256
 745 -5 757 -2 757 6 c 256
 757 15 747 20 724 24 c 256
 674 33 669 51 669 100 c 258
EndSplineSet
Fore
SplineSet
33 -3 m 256
 71 -3 137 2 177 2 c 256
 216 2 290 -2 332 -2 c 256
 342 -2 348 3 348 13 c 256
 348 26 341 30 329 34 c 256
 277 49 264 61 264 98 c 258
 264 284 l 258
 264 294 269 301 280 301 c 258
 521 301 l 258
 531 301 535 295 535 284 c 257
 535 98 l 258
 535 61 522 49 470 34 c 256
 458 30 451 26 451 13 c 256
 451 3 457 -2 467 -2 c 256
 509 -2 583 2 622 2 c 256
 662 2 728 -3 766 -3 c 256
 774 -3 784 3 784 12 c 256
 784 24 777 31 765 34 c 256
 720 45 705 56 705 97 c 258
 705 551 l 258
 705 594 718 606 765 618 c 256
 777 621 784 628 784 640 c 256
 784 649 774 655 766 655 c 256
 722 655 662 650 622 650 c 256
 583 650 509 654 467 654 c 256
 457 654 451 649 451 639 c 256
 451 626 458 622 470 618 c 256
 525 602 535 590 535 550 c 258
 535 373 l 257
 535 362 530 358 521 358 c 258
 280 358 l 258
 270 358 264 362 264 373 c 258
 264 550 l 258
 264 590 274 602 329 618 c 256
 341 622 348 626 348 639 c 256
 348 649 342 654 332 654 c 256
 290 654 216 650 177 650 c 256
 137 650 77 655 33 655 c 256
 25 655 15 649 15 640 c 256
 15 628 22 621 34 618 c 256
 81 606 94 594 94 551 c 258
 94 97 l 258
 94 56 79 45 34 34 c 256
 22 31 15 24 15 12 c 256
 15 3 25 -3 33 -3 c 256
EndSplineSet
Guideline: "" "" 451 279 0 0 0
Guideline: "" "" 501 370 0 0 0
Validated: 9
PickledDataWithLists: "(dp0
Vpublic.markColor
p1
V0.67,0.95,0.38,1
p2
s."
Substitution2: "'c2pc' Capitals to Petite Capitals lookup 23 subtable" H.pc
Substitution2: "'c2sc' Capitals to Small Capitals lookup 21 subtable" H.sc
Substitution2: "'ordn' Ordinals lookup 15 subtable" H.ordn
Substitution2: "'sups' Superscript lookup 9 subtable" H.sups
Substitution2: "'sinf' Scientific Inferiors lookup 8 subtable" H.sinf
Substitution2: "'subs' Subscript lookup 7 subtable" H.subs
Comment: "+AAoA-H+AAoA"
EndChar
StartChar: I
Encoding: 177 73 177
GlifName: I_
Width: 369
VWidth: 0
Flags: W
AnchorPoint: "bottom.cap" 183 -30 basechar 0
AnchorPoint: "top.cap" 188 675 basechar 0
LayerCount: 2
Back
SplineSet
13 -3 m 256
 57 -3 108 2 148 2 c 256
 187 2 245 -2 287 -2 c 256
 297 -2 303 3 303 13 c 256
 303 26 296 30 284 34 c 256
 242 49 229 59 229 78 c 258
 229 574 l 258
 229 593 242 603 284 618 c 256
 296 622 303 626 303 639 c 256
 303 649 297 654 287 654 c 256
 245 654 187 650 148 650 c 256
 108 650 57 655 13 655 c 256
 5 655 -5 649 -5 640 c 256
 -5 628 2 621 14 618 c 256
 55 607 70 598 70 575 c 258
 70 77 l 258
 70 54 55 45 14 34 c 256
 2 31 -5 24 -5 12 c 256
 -5 3 5 -3 13 -3 c 256
EndSplineSet
Fore
SplineSet
33 -3 m 256
 77 -3 143 2 183 2 c 256
 222 2 296 -2 338 -2 c 256
 348 -2 354 3 354 13 c 256
 354 26 347 30 335 34 c 256
 283 49 270 61 270 98 c 258
 270 550 l 258
 270 590 280 602 335 618 c 256
 347 622 354 626 354 639 c 256
 354 649 348 654 338 654 c 256
 296 654 222 650 183 650 c 256
 143 650 77 655 33 655 c 256
 25 655 15 649 15 640 c 256
 15 628 22 621 34 618 c 256
 87 606 100 594 100 551 c 258
 100 97 l 258
 100 56 85 45 34 34 c 256
 22 31 15 24 15 12 c 256
 15 3 25 -3 33 -3 c 256
EndSplineSet
Guideline: "" "" 70 68 90 0 0
Guideline: "" "" 352 98 0.3603 0 0
Guideline: "" "" 268 550 0 0 0
Validated: 9
PickledDataWithLists: "(dp0
Vpublic.markColor
p1
V0.67,0.95,0.38,1
p2
s."
Substitution2: "'c2pc' Capitals to Petite Capitals lookup 23 subtable" I.pc
Substitution2: "'c2sc' Capitals to Small Capitals lookup 21 subtable" I.sc
Substitution2: "'ordn' Ordinals lookup 15 subtable" I.ordn
Substitution2: "'sups' Superscript lookup 9 subtable" I.sups
Substitution2: "'sinf' Scientific Inferiors lookup 8 subtable" I.sinf
Substitution2: "'subs' Subscript lookup 7 subtable" I.subs
Comment: "+AAoA-I+AAoA"
EndChar
StartChar: J
Encoding: 211 74 211
GlifName: J_
Width: 376
VWidth: 0
Flags: W
AnchorPoint: "top.cap" 205 675 basechar 0
LayerCount: 2
Back
SplineSet
62 -200 m 256
 125 -200 178 -173 217 -122 c 256
 265 -59 292 40 292 168 c 258
 292 550 l 258
 292 590 302 602 357 618 c 257
 369 622 376 626 376 639 c 256
 376 649 370 654 360 654 c 256
 318 654 244 650 205 650 c 256
 165 650 99 655 55 655 c 256
 47 655 37 649 37 640 c 256
 37 628 44 621 56 618 c 256
 109 606 122 594 122 551 c 258
 122 9 l 258
 122 -112 98 -158 60 -158 c 256
 45 -158 37 -135 10 -103 c 256
 -3 -89 -17 -80 -31 -80 c 256
 -55 -80 -85 -112 -85 -140 c 256
 -85 -178 -37 -200 62 -200 c 256
EndSplineSet
Fore
SplineSet
62 -200 m 256
 114 -200 168 -155 211 -97 c 256
 259 -33 292 47 292 94 c 258
 292 550 l 258
 292 590 302 602 357 618 c 257
 369 622 376 626 376 639 c 256
 376 649 370 654 360 654 c 256
 318 654 244 650 205 650 c 256
 165 650 99 655 55 655 c 256
 47 655 37 649 37 640 c 256
 37 628 44 621 56 618 c 256
 109 606 122 594 122 551 c 258
 122 9 l 258
 122 -112 98 -158 60 -158 c 256
 45 -158 37 -135 10 -103 c 256
 -3 -89 -17 -80 -31 -80 c 256
 -55 -80 -85 -112 -85 -140 c 256
 -85 -178 -37 -200 62 -200 c 256
EndSplineSet
Validated: 9
PickledDataWithLists: "(dp0
Vpublic.markColor
p1
V0.67,0.95,0.38,1
p2
s."
Substitution2: "'ss07' Style Set 7 lookup 36 subtable" J.hist
Substitution2: "'c2pc' Capitals to Petite Capitals lookup 23 subtable" J.pc
Substitution2: "'c2sc' Capitals to Small Capitals lookup 21 subtable" J.sc
Substitution2: "'hist' Historical Forms lookup 20 subtable" J.hist
Substitution2: "'ordn' Ordinals lookup 15 subtable" J.ordn
Substitution2: "'sups' Superscript lookup 9 subtable" J.sups
Substitution2: "'sinf' Scientific Inferiors lookup 8 subtable" J.sinf
Substitution2: "'subs' Subscript lookup 7 subtable" J.subs
Comment: "+AAoA-J+AAoA"
EndChar
StartChar: K
Encoding: 221 75 221
GlifName: K_
Width: 781
VWidth: 0
Flags: W
AnchorPoint: "bottom.cap" 381 -30 basechar 0
AnchorPoint: "top.cap" 402 675 basechar 0
LayerCount: 2
Back
SplineSet
43 -6 m 256
 112 -6 143 4 183 4 c 256
 222 4 262 -4 326 -4 c 256
 339 -4 354 3 354 13 c 256
 354 26 341 30 329 34 c 257
 277 49 274 61 272 98 c 256
 269 158 269 217 269 277 c 256
 269 288 274 293 280 293 c 256
 287 293 295 288 304 277 c 257
 456 97 l 257
 467 84 473 73 473 63 c 256
 472 50 459 40 429 34 c 256
 417 31 410 24 410 12 c 256
 410 3 420 -3 428 -3 c 256
 475 -3 514 2 563 2 c 256
 627 2 689 -5 750 -5 c 256
 777 -5 791 3 791 13 c 256
 791 26 772 30 760 34 c 257
 708 49 683 71 659 98 c 258
 423 364 l 258
 413 375 413 387 423 396 c 256
 482 450 531 513 589 557 c 256
 626 585 672 609 743 618 c 256
 755 620 773 626 773 639 c 256
 773 649 759 654 746 654 c 256
 664 654 609 651 540 651 c 257
 468 651 l 257
 460 651 450 645 450 636 c 256
 450 624 457 617 469 614 c 256
 500 607 515 596 515 582 c 256
 515 573 507 563 496 551 c 258
 305 343 l 257
 294 334 288 328 281 328 c 256
 275 328 270 332 270 343 c 258
 270 550 l 258
 270 590 280 602 335 618 c 257
 347 622 354 626 354 639 c 256
 354 649 348 654 338 654 c 256
 296 654 222 650 183 650 c 256
 143 650 77 655 33 655 c 256
 25 655 15 649 15 640 c 256
 15 628 22 621 34 618 c 256
 87 606 100 594 100 551 c 258
 100 97 l 258
 100 56 91 44 40 34 c 256
 24 31 15 24 15 12 c 256
 15 3 31 -6 43 -6 c 256
EndSplineSet
Fore
SplineSet
43 -6 m 256
 112 -6 143 4 183 4 c 256
 222 4 262 -4 326 -4 c 256
 339 -4 354 3 354 13 c 256
 354 26 341 30 329 34 c 257
 277 49 274 61 272 98 c 256
 269 158 269 217 269 277 c 256
 269 288 274 293 280 293 c 256
 287 293 295 288 304 277 c 257
 456 97 l 257
 467 84 473 73 473 63 c 256
 472 50 459 40 429 34 c 256
 417 31 410 24 410 12 c 256
 410 3 420 -3 428 -3 c 256
 475 -3 514 2 563 2 c 256
 627 2 689 -5 750 -5 c 256
 777 -5 791 3 791 13 c 256
 791 26 772 30 760 34 c 257
 708 49 683 71 659 98 c 258
 420 368 l 258
 410 379 410 391 420 400 c 256
 479 454 531 513 589 557 c 256
 626 585 672 609 743 618 c 256
 755 620 773 626 773 639 c 256
 773 649 759 654 746 654 c 256
 664 654 609 651 540 651 c 257
 468 651 l 257
 460 651 450 645 450 636 c 256
 450 624 457 617 469 614 c 256
 500 607 515 596 515 582 c 256
 515 573 507 563 496 551 c 258
 305 343 l 257
 294 334 288 328 281 328 c 256
 275 328 270 332 270 343 c 258
 270 550 l 258
 270 590 280 602 335 618 c 257
 347 622 354 626 354 639 c 256
 354 649 348 654 338 654 c 256
 296 654 222 650 183 650 c 256
 143 650 77 655 33 655 c 256
 25 655 15 649 15 640 c 256
 15 628 22 621 34 618 c 256
 87 606 100 594 100 551 c 258
 100 97 l 258
 100 56 91 44 40 34 c 256
 24 31 15 24 15 12 c 256
 15 3 31 -6 43 -6 c 256
EndSplineSet
Validated: 41
PickledDataWithLists: "(dp0
Vpublic.markColor
p1
V0.67,0.95,0.38,1
p2
s."
Substitution2: "'c2pc' Capitals to Petite Capitals lookup 23 subtable" K.pc
Substitution2: "'c2sc' Capitals to Small Capitals lookup 21 subtable" K.sc
Substitution2: "'ordn' Ordinals lookup 15 subtable" K.ordn
Substitution2: "'sups' Superscript lookup 9 subtable" K.sups
Substitution2: "'sinf' Scientific Inferiors lookup 8 subtable" K.sinf
Substitution2: "'subs' Subscript lookup 7 subtable" K.subs
Comment: "+AAoA-K+AAoA"
EndChar
StartChar: L
Encoding: 236 76 236
GlifName: L_
Width: 586
VWidth: 0
Flags: W
AnchorPoint: "bottom.cap" 313 -30 basechar 0
AnchorPoint: "top.cap" 188 675 basechar 0
LayerCount: 2
Back
SplineSet
204 96 m 258
 204 567 l 258
 204 606 243 613 293 622 c 256
 316 626 326 633 326 642 c 256
 326 650 314 653 297 653 c 256
 243 653 220 650 171 650 c 256
 127 650 113 653 59 653 c 256
 42 653 30 650 30 642 c 256
 30 633 40 626 63 622 c 256
 113 613 124 608 124 560 c 258
 124 96 l 258
 124 52 95 34 43 24 c 257
 39 23 21 19 21 7 c 256
 21 0 31 -5 49 -5 c 257
 49 -5 134 0 184 0 c 256
 284 0 393 -5 527 -5 c 256
 537 -5 540 3 541 12 c 256
 545 54 554 87 568 139 c 257
 568 140 569 142 569 144 c 256
 569 152 565 162 557 162 c 256
 548 162 538 140 535 132 c 257
 518 96 509 84 483 61 c 256
 465 45 432 35 427 35 c 258
 281 35 l 258
 215 35 204 55 204 96 c 258
EndSplineSet
Fore
SplineSet
39 -5 m 256
 78 -5 143 0 183 0 c 256
 304 0 493 -5 530 -5 c 256
 542 -5 546 5 547 14 c 256
 552 64 560 91 577 151 c 256
 577 157 581 171 581 174 c 256
 581 183 577 195 567 195 c 256
 559 195 553 193 539 163 c 256
 525 133 508 103 485 82 c 256
 466 65 444 54 416 54 c 258
 319 54 l 258
 285 54 270 68 270 105 c 258
 270 550 l 258
 270 590 280 602 335 618 c 257
 347 622 354 626 354 639 c 256
 354 649 348 654 338 654 c 256
 296 654 222 650 183 650 c 256
 143 650 77 655 33 655 c 256
 25 655 15 649 15 640 c 256
 15 628 22 621 34 618 c 256
 87 606 100 594 100 551 c 258
 100 95 l 258
 100 54 84 45 40 32 c 256
 27 28 20 19 20 11 c 256
 20 3 27 -5 39 -5 c 256
EndSplineSet
Validated: 9
PickledDataWithLists: "(dp0
Vpublic.markColor
p1
V0.67,0.95,0.38,1
p2
s."
Substitution2: "'c2pc' Capitals to Petite Capitals lookup 23 subtable" L.pc
Substitution2: "'c2sc' Capitals to Small Capitals lookup 21 subtable" L.sc
Substitution2: "'ordn' Ordinals lookup 15 subtable" L.ordn
Substitution2: "'sups' Superscript lookup 9 subtable" L.sups
Substitution2: "'sinf' Scientific Inferiors lookup 8 subtable" L.sinf
Substitution2: "'subs' Subscript lookup 7 subtable" L.subs
Comment: "+AAoA-L+AAoA"
EndChar
StartChar: M
Encoding: 254 77 254
GlifName: M_
Width: 921
VWidth: 0
Flags: W
AnchorPoint: "bottom.cap" 412 -30 basechar 0
AnchorPoint: "top.cap" 460 675 basechar 0
LayerCount: 2
Back
SplineSet
43 -3 m 258
 43 -3 108 1 154 1 c 256
 195 1 202 -2 257 -2 c 256
 267 -2 281 3 281 13 c 256
 281 26 266 31 254 34 c 256
 201 47 183 61 183 98 c 256
 183 195 198 302 206 392 c 256
 208 409 219 414 224 401 c 256
 283 257 335 155 405 1 c 256
 410 -10 425 -18 433 3 c 257
 612 421 l 258
 616 430 621 431 621 423 c 256
 626 314 630 216 637 97 c 256
 639 57 622 45 571 34 c 256
 559 31 549 24 549 12 c 256
 549 3 559 -3 570 -3 c 256
 614 -3 680 2 720 2 c 256
 759 2 840 -2 882 -2 c 256
 892 -2 901 3 901 13 c 256
 901 26 891 30 879 34 c 257
 839 45 810 65 807 98 c 257
 795 277 791 326 782 522 c 256
 779 572 797 594 837 613 c 256
 842 615 852 620 858 622 c 256
 870 626 881 630 881 642 c 256
 881 654 870 658 855 658 c 256
 818 658 745 649 686 647 c 257
 641 647 l 257
 632 647 627 643 624 634 c 256
 619 618 614 590 610 570 c 257
 464 242 l 257
 462 236 458 237 456 242 c 257
 320 562 l 258
 309 589 302 608 292 635 c 256
 289 643 278 653 268 653 c 256
 196 653 111 658 69 658 c 256
 54 658 43 654 43 642 c 256
 43 630 54 624 70 620 c 256
 90 615 107 607 122 599 c 256
 139 590 148 576 148 550 c 256
 148 535 148 522 147 516 c 256
 133 352 113 189 103 115 c 256
 98 75 78 42 47 30 c 256
 35 25 20 24 20 12 c 256
 20 3 27 -3 43 -3 c 258
EndSplineSet
Fore
SplineSet
43 -3 m 258
 43 -3 108 1 154 1 c 256
 195 1 202 -2 257 -2 c 256
 267 -2 281 3 281 13 c 256
 281 26 266 31 254 34 c 256
 201 47 178 67 178 104 c 256
 178 201 174 350 179 440 c 256
 180 457 192 462 197 449 c 256
 254 307 332 155 402 1 c 256
 407 -10 425 -18 433 3 c 257
 615 454 l 258
 619 463 624 464 624 456 c 256
 629 347 630 216 637 97 c 256
 639 57 622 45 571 34 c 256
 559 31 549 24 549 12 c 256
 549 3 559 -3 570 -3 c 256
 614 -3 680 2 720 2 c 256
 759 2 840 -2 882 -2 c 256
 892 -2 901 3 901 13 c 256
 901 26 891 30 879 34 c 257
 839 45 810 65 807 98 c 257
 795 277 791 331 782 527 c 256
 779 577 797 594 837 613 c 256
 842 615 852 620 858 622 c 256
 870 626 881 630 881 642 c 256
 881 654 870 658 855 658 c 256
 818 658 745 649 686 647 c 257
 641 647 l 257
 632 647 627 643 624 634 c 256
 619 618 613 590 603 538 c 257
 472 223 l 257
 470 217 466 218 464 223 c 257
 320 562 l 258
 309 589 302 608 292 635 c 256
 289 643 278 653 268 653 c 256
 196 653 111 658 69 658 c 256
 54 658 43 654 43 642 c 256
 43 630 54 624 70 620 c 256
 90 615 107 607 122 599 c 256
 139 590 148 576 148 550 c 256
 148 535 148 522 147 516 c 256
 133 352 119 183 109 109 c 256
 104 69 78 42 47 30 c 256
 35 25 20 24 20 12 c 256
 20 3 27 -3 43 -3 c 258
EndSplineSet
Validated: 41
PickledDataWithLists: "(dp0
Vpublic.markColor
p1
V0.67,0.95,0.38,1
p2
s."
Substitution2: "'c2pc' Capitals to Petite Capitals lookup 23 subtable" M.pc
Substitution2: "'c2sc' Capitals to Small Capitals lookup 21 subtable" M.sc
Substitution2: "'ordn' Ordinals lookup 15 subtable" M.ordn
Substitution2: "'sups' Superscript lookup 9 subtable" M.sups
Substitution2: "'sinf' Scientific Inferiors lookup 8 subtable" M.sinf
Substitution2: "'subs' Subscript lookup 7 subtable" M.subs
Comment: "+AAoA-M+AAoA"
EndChar
StartChar: N
Encoding: 263 78 263
GlifName: N_
Width: 813
VWidth: 0
Flags: W
AnchorPoint: "bottom.cap" 366 -30 basechar 0
AnchorPoint: "top.cap" 429 675 basechar 0
LayerCount: 2
Back
SplineSet
658 -19 m 256
 676 -19 694 -12 694 30 c 256
 694 205 694 381 694 556 c 256
 694 596 714 610 760 619 c 256
 775 622 785 628 785 640 c 256
 785 649 775 655 761 655 c 256
 711 655 694 652 655 652 c 256
 620 652 603 654 549 654 c 256
 539 654 528 648 528 639 c 256
 528 626 539 621 551 618 c 256
 602 606 623 586 623 547 c 256
 623 381 621 262 621 235 c 256
 621 227 618 221 613 221 c 256
 609 221 603 228 599 233 c 256
 482 372 388 504 271 643 c 257
 267 649 261 653 251 653 c 256
 179 653 78 658 36 658 c 256
 21 658 10 654 10 642 c 256
 10 630 25 623 37 620 c 256
 86 601 121 579 121 510 c 256
 121 346 112 189 105 115 c 256
 102 75 86 46 55 34 c 256
 43 29 31 24 31 12 c 256
 31 3 46 -3 54 -3 c 258
 54 -3 110 1 156 1 c 256
 197 1 216 -2 271 -2 c 256
 281 -2 295 3 295 13 c 256
 295 26 280 31 268 34 c 256
 215 47 185 67 185 113 c 256
 185 210 187 352 189 442 c 256
 189 449 190 461 196 461 c 256
 199 461 205 454 207 451 c 257
 315 323 422 180 530 52 c 256
 574 -1 610 -19 658 -19 c 256
EndSplineSet
Fore
SplineSet
683 -19 m 256
 701 -19 712 -6 712 30 c 256
 712 47 700 124 700 170 c 256
 700 268 712 414 712 556 c 256
 712 596 732 610 778 619 c 256
 793 622 803 628 803 640 c 256
 803 649 793 655 779 655 c 256
 729 655 712 652 673 652 c 256
 638 652 621 654 567 654 c 256
 557 654 546 648 546 639 c 256
 546 626 557 621 569 618 c 256
 620 605 645 592 647 553 c 256
 651 469 650 329 650 236 c 256
 650 228 647 222 642 222 c 256
 638 222 632 229 628 234 c 257
 505 370 382 507 259 643 c 257
 255 649 249 653 239 653 c 256
 167 653 78 658 36 658 c 256
 21 658 10 654 10 642 c 256
 10 630 25 623 37 620 c 256
 86 601 126 577 126 508 c 256
 126 344 112 189 105 115 c 256
 102 75 86 46 55 34 c 256
 43 29 31 24 31 12 c 256
 31 3 46 -3 54 -3 c 258
 54 -3 101 1 147 1 c 256
 188 1 207 -2 262 -2 c 256
 272 -2 286 3 286 13 c 256
 286 26 271 31 259 34 c 256
 206 47 176 67 176 113 c 256
 176 210 170 366 170 456 c 256
 170 463 171 475 177 475 c 256
 180 475 186 468 188 465 c 257
 318 327 447 190 577 52 c 257
 621 -1 664 -19 683 -19 c 256
EndSplineSet
Validated: 41
PickledDataWithLists: "(dp0
Vpublic.markColor
p1
V0.67,0.95,0.38,1
p2
s."
Substitution2: "'c2pc' Capitals to Petite Capitals lookup 23 subtable" N.pc
Substitution2: "'c2sc' Capitals to Small Capitals lookup 21 subtable" N.sc
Substitution2: "'ordn' Ordinals lookup 15 subtable" N.ordn
Substitution2: "'sups' Superscript lookup 9 subtable" N.sups
Substitution2: "'sinf' Scientific Inferiors lookup 8 subtable" N.sinf
Substitution2: "'subs' Subscript lookup 7 subtable" N.subs
Comment: "+AAoA-N+AAoA"
EndChar
StartChar: O
Encoding: 279 79 278
GlifName: O_
Width: 759
VWidth: 0
Flags: W
AnchorPoint: "bottom.cap" 382 -30 basechar 0
AnchorPoint: "top.cap" 392 675 basechar 0
LayerCount: 2
Back
SplineSet
375 -14 m 256
 609 -14 734 155 734 335 c 256
 734 532 570 664 384 664 c 256
 150 664 25 495 25 315 c 256
 25 118 189 -14 375 -14 c 256
386 42 m 256
 271 42 208 165 208 344 c 256
 208 504 263 607 371 607 c 256
 488 607 551 484 551 306 c 256
 551 145 495 42 386 42 c 256
EndSplineSet
Fore
SplineSet
375 -14 m 256
 609 -14 734 155 734 335 c 256
 734 532 570 664 384 664 c 256
 150 664 25 495 25 315 c 256
 25 118 189 -14 375 -14 c 256
393 33 m 256
 262 33 206 208 206 367 c 256
 206 513 259 616 364 616 c 256
 496 616 553 443 553 283 c 256
 553 136 499 33 393 33 c 256
EndSplineSet
Validated: 9
PickledDataWithLists: "(dp0
Vpublic.markColor
p1
V0.67,0.95,0.38,1
p2
s."
Substitution2: "'c2pc' Capitals to Petite Capitals lookup 23 subtable" O.pc
Substitution2: "'c2sc' Capitals to Small Capitals lookup 21 subtable" O.sc
Substitution2: "'ordn' Ordinals lookup 15 subtable" O.ordn
Substitution2: "'sups' Superscript lookup 9 subtable" O.sups
Substitution2: "'sinf' Scientific Inferiors lookup 8 subtable" O.sinf
Substitution2: "'subs' Subscript lookup 7 subtable" O.subs
Comment: "+AAoA-O+AAoA"
EndChar
StartChar: P
Encoding: 317 80 316
GlifName: P_
Width: 619
VWidth: 0
Flags: W
AnchorPoint: "bottom.cap" 192 -30 basechar 0
AnchorPoint: "top.cap" 328 675 basechar 0
LayerCount: 2
Back
SplineSet
121 -5 m 256
 175 -5 200 2 251 2 c 256
 289 2 295 -5 349 -5 c 256
 366 -5 378 -2 378 6 c 256
 378 15 368 20 345 24 c 256
 295 33 278 63 278 111 c 258
 278 588 l 258
 278 618 304 630 342 630 c 256
 439 630 509 564 509 458 c 256
 509 340 468 285 388 285 c 256
 361 285 348 287 342 287 c 256
 335 287 326 278 326 273 c 256
 326 265 342 254 371 254 c 256
 524 254 595 342 595 465 c 256
 595 577 494 658 342 658 c 256
 314 658 271 652 231 652 c 256
 190 652 187 653 133 653 c 256
 116 653 104 650 104 642 c 256
 104 633 114 626 137 622 c 256
 187 613 198 582 198 522 c 258
 198 100 l 258
 198 51 175 33 125 24 c 256
 102 20 92 15 92 6 c 256
 92 -2 104 -5 121 -5 c 256
EndSplineSet
Fore
SplineSet
33 -3 m 256
 77 -3 143 2 183 2 c 256
 222 2 309 -2 351 -2 c 256
 361 -2 367 3 367 13 c 256
 367 26 360 31 348 34 c 257
 291 46 270 56 270 98 c 258
 271 560 l 258
 271 596 289 613 327 613 c 256
 392 613 429 562 429 435 c 256
 429 336 403 268 352 268 c 256
 335 268 328 273 312 273 c 256
 305 273 293 268 293 257 c 256
 293 241 312 229 348 229 c 256
 513 229 594 337 594 464 c 256
 594 585 491 660 327 660 c 256
 252 660 231 650 183 650 c 256
 143 650 83 655 39 655 c 256
 27 655 19 648 19 639 c 256
 19 631 24 622 40 618 c 256
 87 607 100 594 100 551 c 258
 100 97 l 258
 100 56 85 45 34 34 c 256
 22 31 15 24 15 12 c 256
 15 3 25 -3 33 -3 c 256
EndSplineSet
Validated: 9
PickledDataWithLists: "(dp0
Vpublic.markColor
p1
V0.67,0.95,0.38,1
p2
s."
Substitution2: "'c2pc' Capitals to Petite Capitals lookup 23 subtable" P.pc
Substitution2: "'c2sc' Capitals to Small Capitals lookup 21 subtable" P.sc
Substitution2: "'ordn' Ordinals lookup 15 subtable" P.ordn
Substitution2: "'sups' Superscript lookup 9 subtable" P.sups
Substitution2: "'sinf' Scientific Inferiors lookup 8 subtable" P.sinf
Substitution2: "'subs' Subscript lookup 7 subtable" P.subs
Comment: "+AAoA-P+AAoA"
EndChar
StartChar: Q
Encoding: 332 81 331
GlifName: Q_
Width: 759
VWidth: 0
Flags: W
LayerCount: 2
Back
SplineSet
375 -14 m 256
 609 -14 734 155 734 335 c 256
 734 532 570 664 384 664 c 256
 150 664 25 495 25 315 c 256
 25 118 189 -14 375 -14 c 256
393 37 m 256
 262 37 206 208 206 367 c 256
 206 513 259 612 364 612 c 256
 496 612 553 443 553 283 c 256
 553 136 499 37 393 37 c 256
EndSplineSet
Fore
SplineSet
726 -248 m 256
 788 -248 838 -238 865 -221 c 256
 880 -212 885 -204 885 -192 c 256
 885 -176 873 -169 854 -169 c 256
 846 -169 839 -170 831 -171 c 256
 823 -172 813 -173 800 -173 c 256
 749 -173 694 -151 629 -97 c 256
 579 -56 554 -33 525 -5 c 256
 522 -2 520 0 520 5 c 256
 520 10 524 14 531 16 c 257
 664 73 734 201 734 335 c 256
 734 532 570 664 384 664 c 256
 150 664 25 495 25 315 c 256
 25 122 159 41 243 11 c 256
 298 -9 333 -49 356 -70 c 256
 400 -110 436 -136 484 -170 c 256
 554 -220 650 -248 726 -248 c 256
393 36 m 256
 262 36 206 201 206 367 c 256
 206 519 259 612 364 612 c 256
 496 612 553 449 553 283 c 256
 553 129 499 36 393 36 c 256
EndSplineSet
Validated: 9
PickledDataWithLists: "(dp0
Vpublic.markColor
p1
V0.67,0.95,0.38,1
p2
s."
Substitution2: "'ss06' Style Set 6 lookup 35 subtable" Q.long
Substitution2: "'swsh' Swash lookup 28 subtable" Q.long
Substitution2: "'c2pc' Capitals to Petite Capitals lookup 23 subtable" Q.pc
Substitution2: "'c2sc' Capitals to Small Capitals lookup 21 subtable" Q.sc
Substitution2: "'ordn' Ordinals lookup 15 subtable" Q.ordn
Substitution2: "'sups' Superscript lookup 9 subtable" Q.sups
Substitution2: "'sinf' Scientific Inferiors lookup 8 subtable" Q.sinf
Substitution2: "'subs' Subscript lookup 7 subtable" Q.subs
Comment: "+AAoA-Q+AAoA"
EndChar
StartChar: R
Encoding: 343 82 342
GlifName: R_
Width: 770
VWidth: 0
Flags: W
AnchorPoint: "bottom.cap" 382 -30 basechar 0
AnchorPoint: "top.cap" 323 675 basechar 0
LayerCount: 2
Back
SplineSet
647 -21 m 256
 725 -21 775 -2 775 46 c 256
 775 59 770 65 760 65 c 256
 713 65 661 66 615 110 c 256
 557 165 512 228 453 317 c 257
 450 321 449 327 454 329 c 257
 515 356 573 403 573 493 c 256
 573 602 486 657 326 657 c 256
 251 657 230 647 182 647 c 256
 130 647 104 655 39 655 c 256
 27 655 19 648 19 639 c 256
 19 631 24 622 40 618 c 256
 87 607 100 594 100 551 c 258
 100 97 l 258
 100 56 85 45 34 34 c 256
 22 31 15 24 15 12 c 256
 15 3 25 -3 33 -3 c 256
 77 -3 143 2 183 2 c 256
 222 2 309 -2 351 -2 c 256
 361 -2 367 3 367 13 c 256
 367 26 360 31 348 34 c 257
 291 46 270 56 270 98 c 258
 270 280 l 258
 270 292 273 300 280 300 c 256
 287 300 296 298 304 293 c 256
 314 287 322 281 328 268 c 256
 364 185 404 136 446 79 c 256
 486 25 534 -21 647 -21 c 256
305 346 m 256
 283 346 270 357 270 384 c 256
 270 444 270 504 270 564 c 256
 270 595 282 610 318 610 c 256
 377 610 410 571 410 473 c 256
 410 397 376 346 305 346 c 256
EndSplineSet
Fore
SplineSet
647 -21 m 256
 725 -21 775 -2 775 46 c 256
 775 59 770 65 760 65 c 256
 713 65 661 66 615 110 c 256
 557 165 500 244 441 333 c 257
 438 337 437 343 442 345 c 256
 503 363 573 407 573 497 c 256
 573 605 483 657 326 657 c 256
 251 657 230 647 182 647 c 256
 130 647 104 655 39 655 c 256
 27 655 19 648 19 639 c 256
 19 631 24 622 40 618 c 256
 87 607 100 594 100 551 c 258
 100 97 l 258
 100 56 85 45 34 34 c 256
 22 31 15 24 15 12 c 256
 15 3 25 -3 33 -3 c 256
 77 -3 143 2 183 2 c 256
 222 2 309 -2 351 -2 c 256
 361 -2 367 3 367 13 c 256
 367 26 360 31 348 34 c 257
 291 46 270 56 270 98 c 258
 270 292 l 258
 270 304 273 312 280 312 c 256
 287 312 296 310 304 305 c 256
 314 299 322 288 328 275 c 256
 366 193 404 136 446 79 c 256
 486 25 534 -21 647 -21 c 256
305 346 m 256
 283 346 270 357 270 384 c 256
 270 444 270 489 270 518 c 256
 270 595 282 610 309 610 c 256
 372 610 410 568 410 473 c 256
 410 397 376 346 305 346 c 256
EndSplineSet
Validated: 9
PickledDataWithLists: "(dp0
Vpublic.markColor
p1
V0.67,0.95,0.38,1
p2
s."
Substitution2: "'c2pc' Capitals to Petite Capitals lookup 23 subtable" R.pc
Substitution2: "'c2sc' Capitals to Small Capitals lookup 21 subtable" R.sc
Substitution2: "'ordn' Ordinals lookup 15 subtable" R.ordn
Substitution2: "'sups' Superscript lookup 9 subtable" R.sups
Substitution2: "'sinf' Scientific Inferiors lookup 8 subtable" R.sinf
Substitution2: "'subs' Subscript lookup 7 subtable" R.subs
Comment: "+AAoA-R+AAoA"
EndChar
StartChar: S
Encoding: 356 83 355
GlifName: S_
Width: 500
VWidth: 0
Flags: W
AnchorPoint: "bottom.cap" 229 -30 basechar 0
AnchorPoint: "top.cap" 274 675 basechar 0
LayerCount: 2
Back
SplineSet
222 -14 m 256
 368 -14 465 47 465 189 c 256
 465 277 432 331 317 400 c 256
 234 449 183 484 183 528 c 256
 183 573 225 605 272 605 c 256
 332 605 378 567 398 488 c 257
 401 478 415 472 426 472 c 256
 438 472 449 478 449 485 c 256
 449 537 446 578 439 606 c 257
 432 628 428 632 411 639 c 256
 382 651 329 664 278 664 c 256
 148 664 39 588 39 469 c 256
 39 350 126 301 210 255 c 256
 289 212 324 186 324 126 c 256
 324 90 291 45 235 45 c 256
 152 45 100 124 72 206 c 257
 67 215 59 219 45 219 c 256
 34 219 21 215 21 206 c 257
 18 147 23 90 38 52 c 256
 42 42 51 33 61 27 c 256
 109 -2 164 -14 222 -14 c 256
EndSplineSet
Fore
SplineSet
222 -14 m 256
 368 -14 465 47 465 189 c 256
 465 277 432 331 317 400 c 256
 234 449 183 484 183 528 c 256
 183 583 210 613 272 613 c 256
 337 613 384 570 405 488 c 256
 408 478 419 472 430 472 c 256
 442 472 449 478 449 485 c 256
 449 537 446 578 439 606 c 257
 432 628 428 632 411 639 c 256
 382 651 329 664 278 664 c 256
 148 664 39 588 39 469 c 256
 39 350 126 301 210 255 c 256
 289 212 324 186 324 126 c 256
 324 86 297 34 235 34 c 256
 153 34 92 107 62 206 c 257
 57 215 54 219 40 219 c 256
 29 219 21 215 21 206 c 257
 18 147 23 90 38 52 c 256
 42 42 51 33 61 27 c 256
 109 -2 164 -14 222 -14 c 256
EndSplineSet
Validated: 41
PickledDataWithLists: "(dp0
Vpublic.markColor
p1
V0.67,0.95,0.38,1
p2
s."
Substitution2: "'c2pc' Capitals to Petite Capitals lookup 23 subtable" S.pc
Substitution2: "'c2sc' Capitals to Small Capitals lookup 21 subtable" S.sc
Substitution2: "'ordn' Ordinals lookup 15 subtable" S.ordn
Substitution2: "'sups' Superscript lookup 9 subtable" S.sups
Substitution2: "'sinf' Scientific Inferiors lookup 8 subtable" S.sinf
Substitution2: "'subs' Subscript lookup 7 subtable" S.subs
Comment: "+AAoA-S+AAoA"
EndChar
StartChar: T
Encoding: 376 84 375
GlifName: T_
Width: 701
VWidth: 0
Flags: HW
AnchorPoint: "bottom.cap" 364 -30 basechar 0
AnchorPoint: "top.cap" 360 675 basechar 0
LayerCount: 2
Back
SplineSet
229 -5 m 256
 283 -5 307 0 357 0 c 256
 403 0 420 -5 474 -5 c 256
 491 -5 503 -2 503 6 c 256
 503 15 493 20 470 24 c 256
 420 33 391 54 391 102 c 258
 391 558 l 258
 391 599 396 604 447 604 c 258
 542 604 l 258
 606 604 629 586 634 558 c 256
 639 532 643 517 653 517 c 256
 663 517 669 537 669 549 c 258
 669 561 l 258
 669 587 676 623 685 660 c 257
 685 662 686 666 686 669 c 256
 686 679 683 692 679 692 c 256
 664 692 649 670 629 656 c 256
 619 649 600 642 571 642 c 258
 190 642 l 258
 162 642 128 648 120 662 c 256
 114 673 100 694 95 694 c 256
 90 694 81 693 78 671 c 256
 72 629 65 598 47 560 c 256
 44 554 42 546 42 540 c 256
 42 533 44 527 49 527 c 256
 64 527 84 554 90 565 c 256
 104 591 140 604 172 604 c 258
 219 604 l 258
 253 604 274 604 293 600 c 256
 309 597 311 575 311 557 c 258
 311 102 l 258
 311 54 283 33 233 24 c 256
 210 20 200 15 200 6 c 256
 200 -2 212 -5 229 -5 c 256
EndSplineSet
Fore
SplineSet
204 -3 m 256
 248 -3 319 2 359 2 c 256
 398 2 477 -2 519 -2 c 256
 529 -2 538 3 538 13 c 256
 538 26 528 30 516 34 c 257
 464 49 446 61 446 98 c 258
 446 503 l 258
 446 591 460 608 493 608 c 258
 534 608 l 258
 591 608 617 585 634 532 c 256
 643 504 651 493 664 493 c 256
 677 493 681 506 681 530 c 258
 681 551 l 258
 681 586 693 624 704 664 c 256
 705 671 706 678 706 683 c 256
 706 693 703 699 694 699 c 256
 677 699 666 678 644 665 c 256
 635 659 611 651 581 651 c 258
 199 650 l 257
 182 650 141 655 127 666 c 256
 113 677 104 700 93 700 c 256
 79 700 69 692 67 674 c 256
 63 625 51 594 25 542 c 256
 21 534 18 523 18 515 c 256
 18 506 22 497 34 497 c 256
 55 497 81 535 92 550 c 256
 116 582 159 608 203 608 c 258
 220 608 l 257
 227 608 251 607 261 601 c 256
 270 596 276 591 276 515 c 258
 276 97 l 258
 276 56 256 45 205 34 c 256
 193 31 183 24 183 12 c 256
 183 3 196 -3 204 -3 c 256
EndSplineSet
Guideline: "" "" 470 700 0 0 0
Validated: 9
PickledDataWithLists: "(dp0
Vpublic.markColor
p1
V0.67,0.95,0.38,1
p2
s."
Substitution2: "'c2pc' Capitals to Petite Capitals lookup 23 subtable" T.pc
Substitution2: "'c2sc' Capitals to Small Capitals lookup 21 subtable" T.sc
Substitution2: "'ordn' Ordinals lookup 15 subtable" T.ordn
Substitution2: "'sups' Superscript lookup 9 subtable" T.sups
Substitution2: "'sinf' Scientific Inferiors lookup 8 subtable" T.sinf
Substitution2: "'subs' Subscript lookup 7 subtable" T.subs
Comment: "+AAoA-T+AAoA"
EndChar
StartChar: U
Encoding: 396 85 395
GlifName: U_
Width: 746
VWidth: 0
Flags: W
AnchorPoint: "bottom.cap" 387 -30 basechar 0
AnchorPoint: "top.cap" 410 675 basechar 0
LayerCount: 2
Back
SplineSet
373 -14 m 256
 523 -14 646 100 646 265 c 256
 646 352 647 433 651 530 c 256
 653 580 665 604 712 618 c 256
 729 623 738 630 738 640 c 256
 738 652 727 655 713 655 c 256
 671 655 657 651 619 651 c 256
 582 651 565 654 513 654 c 256
 494 654 483 649 483 639 c 256
 483 625 509 622 524 614 c 256
 564 593 574 573 577 476 c 256
 579 418 577 350 577 296 c 256
 577 151 527 81 410 81 c 256
 328 81 258 140 258 272 c 258
 258 530 l 258
 258 575 274 598 295 608 c 256
 316 618 344 623 344 639 c 256
 344 649 334 654 318 654 c 256
 276 654 210 650 171 650 c 256
 131 650 78 655 34 655 c 256
 19 655 8 649 8 640 c 256
 8 630 16 623 35 618 c 256
 71 608 87 570 87 536 c 258
 87 256 l 258
 87 94 183 -14 373 -14 c 256
EndSplineSet
Fore
SplineSet
373 -14 m 256
 523 -14 643 100 643 265 c 256
 643 352 644 430 648 527 c 256
 650 577 665 604 712 618 c 256
 729 623 738 630 738 640 c 256
 738 652 727 655 713 655 c 256
 671 655 659 651 621 651 c 256
 589 651 572 654 520 654 c 256
 501 654 490 649 490 639 c 256
 490 625 516 622 531 614 c 256
 571 593 584 574 587 477 c 256
 589 419 586 345 586 291 c 256
 586 146 527 81 410 81 c 256
 328 81 258 140 258 272 c 258
 258 530 l 258
 258 575 274 598 295 608 c 256
 316 618 344 623 344 639 c 256
 344 649 334 654 318 654 c 256
 276 654 210 650 171 650 c 256
 131 650 78 655 34 655 c 256
 19 655 8 649 8 640 c 256
 8 630 16 623 35 618 c 256
 71 608 87 570 87 536 c 258
 87 256 l 258
 87 94 183 -14 373 -14 c 256
EndSplineSet
Validated: 41
PickledDataWithLists: "(dp0
Vpublic.markColor
p1
V0.67,0.95,0.38,1
p2
s."
Substitution2: "'c2pc' Capitals to Petite Capitals lookup 23 subtable" U.pc
Substitution2: "'c2sc' Capitals to Small Capitals lookup 21 subtable" U.sc
Substitution2: "'ordn' Ordinals lookup 15 subtable" U.ordn
Substitution2: "'sups' Superscript lookup 9 subtable" U.sups
Substitution2: "'sinf' Scientific Inferiors lookup 8 subtable" U.sinf
Substitution2: "'subs' Subscript lookup 7 subtable" U.subs
Substitution2: "'locl' Localized Forms in Latin lookup 5 subtable" U.LAT
Comment: "+AAoA-U+AAoA"
EndChar
StartChar: V
Encoding: 436 86 435
GlifName: V_
Width: 714
VWidth: 0
Flags: W
AnchorPoint: "bottom.cap" 352 -30 basechar 0
AnchorPoint: "top.cap" 403 675 basechar 0
LayerCount: 2
Back
SplineSet
355 -18 m 256
 370 -18 375 -13 381 0 c 257
 402 45 423 89 461 177 c 258
 620 554 l 257
 632 584 652 609 692 620 c 257
 704 624 718 627 718 640 c 256
 718 653 703 657 688 657 c 256
 646 657 618 651 579 651 c 256
 539 651 507 654 463 654 c 256
 449 654 434 649 434 640 c 256
 434 628 451 620 464 618 c 256
 483 615 527 592 527 572 c 256
 527 567 523 552 521 546 c 258
 406 229 l 258
 404 223 403 221 400 221 c 256
 397 221 398 223 396 228 c 258
 285 555 l 257
 283 563 281 572 281 578 c 256
 281 601 297 609 337 618 c 256
 349 621 365 628 365 640 c 256
 365 649 349 655 338 655 c 256
 294 655 211 650 171 650 c 256
 132 650 61 654 19 654 c 256
 9 654 0 649 0 639 c 256
 0 626 10 622 22 618 c 257
 62 607 77 585 90 554 c 257
 304 63 l 257
 313 42 323 21 332 0 c 257
 338 -13 345 -18 355 -18 c 256
EndSplineSet
Fore
SplineSet
355 -18 m 256
 370 -18 375 -13 381 0 c 257
 402 45 423 89 461 177 c 258
 605 520 l 258
 632 584 652 609 692 620 c 257
 704 624 718 627 718 640 c 256
 718 653 703 657 688 657 c 256
 646 657 618 651 579 651 c 256
 539 651 528 654 484 654 c 256
 470 654 455 649 455 640 c 256
 455 628 472 620 485 618 c 256
 548 609 559 561 533 493 c 258
 421 198 l 258
 417 185 414 188 411 197 c 258
 285 555 l 257
 283 563 281 572 281 578 c 256
 281 601 297 609 337 618 c 256
 349 621 365 628 365 640 c 256
 365 649 349 655 338 655 c 256
 294 655 211 650 171 650 c 256
 132 650 61 654 19 654 c 256
 9 654 0 649 0 639 c 256
 0 626 10 622 22 618 c 257
 62 607 82 582 95 551 c 258
 294 92 l 257
 304 61 323 21 332 0 c 257
 338 -13 345 -18 355 -18 c 256
EndSplineSet
Guideline: "" "" 403 519 90 0 0
Validated: 41
PickledDataWithLists: "(dp0
Vpublic.markColor
p1
V0.67,0.95,0.38,1
p2
s."
Substitution2: "'c2pc' Capitals to Petite Capitals lookup 23 subtable" V.pc
Substitution2: "'c2sc' Capitals to Small Capitals lookup 21 subtable" V.sc
Substitution2: "'ordn' Ordinals lookup 15 subtable" V.ordn
Substitution2: "'sups' Superscript lookup 9 subtable" V.sups
Substitution2: "'sinf' Scientific Inferiors lookup 8 subtable" V.sinf
Substitution2: "'subs' Subscript lookup 7 subtable" V.subs
Comment: "+AAoA-V+AAoA"
EndChar
StartChar: W
Encoding: 443 87 442
GlifName: W_
Width: 1043
VWidth: 0
Flags: HW
AnchorPoint: "bottom.cap" 533 -30 basechar 0
AnchorPoint: "top.cap" 598 675 basechar 0
LayerCount: 2
Back
SplineSet
382 -17 m 256
 394 -17 403 -8 409 5 c 257
 449 78 489 150 529 223 c 256
 533 231 540 232 544 223 c 256
 600 98 636 39 653 4 c 256
 659 -9 666 -15 678 -15 c 256
 689 -15 693 -10 699 3 c 258
 944 554 l 258
 958 585 976 609 1016 620 c 256
 1028 624 1047 627 1047 640 c 256
 1047 653 1030 657 1012 657 c 256
 972 657 956 651 936 651 c 256
 915 650 901 654 859 654 c 256
 845 654 830 649 830 640 c 256
 830 628 847 621 860 618 c 256
 877 613 886 604 888 591 c 256
 889 584 887 577 884 568 c 257
 831 450 782 332 729 214 c 257
 726 207 721 200 716 213 c 257
 655 355 l 257
 647 375 644 391 652 408 c 256
 673 452 705 508 726 552 c 256
 740 582 753 607 793 618 c 257
 805 622 819 625 819 638 c 256
 819 651 804 655 789 655 c 256
 748 655 733 651 713 650 c 256
 694 650 683 653 646 653 c 256
 625 653 620 647 620 638 c 256
 620 615 671 619 671 587 c 256
 671 581 669 572 666 566 c 257
 656 543 631 499 621 476 c 256
 616 465 611 456 603 476 c 256
 593 502 576 550 566 576 c 256
 559 594 561 612 589 618 c 256
 613 623 624 628 624 640 c 256
 624 649 611 654 590 654 c 256
 546 654 501 650 461 650 c 256
 422 650 351 654 309 654 c 256
 299 654 290 649 290 639 c 256
 290 626 300 622 312 618 c 257
 352 607 376 585 388 554 c 257
 495 325 l 257
 498 318 500 313 500 308 c 256
 500 302 497 297 493 290 c 257
 443 205 l 257
 435 189 432 191 426 206 c 256
 376 327 328 442 277 562 c 256
 275 567 272 582 272 588 c 256
 272 603 272 613 295 618 c 256
 315 622 327 626 327 640 c 256
 327 649 313 655 296 655 c 256
 252 655 208 650 168 650 c 256
 129 650 67 654 25 654 c 256
 15 654 0 649 0 639 c 256
 0 626 16 622 28 618 c 257
 68 607 81 584 95 554 c 258
 355 8 l 258
 361 -5 369 -17 382 -17 c 256
EndSplineSet
Fore
SplineSet
378 -17 m 256
 390 -17 394 -8 400 5 c 257
 442 77 488 162 527 234 c 256
 531 242 538 243 542 234 c 256
 599 109 636 39 653 4 c 256
 659 -9 666 -15 678 -15 c 256
 689 -15 693 -10 699 3 c 258
 944 554 l 258
 958 585 976 609 1016 620 c 256
 1028 624 1047 627 1047 640 c 256
 1047 653 1030 657 1012 657 c 256
 972 657 956 652 936 651 c 256
 919 650 909 654 867 654 c 256
 853 654 838 649 838 640 c 256
 838 628 855 621 868 618 c 256
 885 614 894 604 896 591 c 256
 897 584 898 576 883 539 c 256
 846 446 791 318 738 200 c 257
 735 193 730 186 725 199 c 257
 654 357 l 257
 646 377 643 393 651 410 c 256
 672 454 700 510 722 552 c 256
 738 582 753 607 793 618 c 256
 805 622 819 625 819 638 c 256
 819 651 804 655 789 655 c 256
 748 655 733 651 713 650 c 256
 694 650 690 653 653 653 c 256
 632 653 632 647 632 638 c 256
 632 615 683 619 683 587 c 256
 683 581 681 571 678 565 c 256
 668 542 644 477 632 451 c 256
 627 440 623 431 614 451 c 256
 601 480 576 550 566 576 c 256
 564 582 563 587.001745485 563 592.001745485 c 0
 563 604.001745485 575 615 589 618 c 272
 605 621 624 628 624 640 c 256
 624 649 611 654 590 654 c 256
 546 654 501 650 461 650 c 256
 422 650 351 654 309 654 c 256
 299 654 290 649 290 639 c 256
 290 626 300 622 312 618 c 257
 352 607 376 585 388 554 c 257
 501 318 l 257
 504 311 506 306 506 301 c 256
 506 295 503 290 499 283 c 257
 449 198 l 257
 441 182 438 184 432 199 c 256
 383 321 328 442 277 562 c 256
 275 567 272 582 272 588 c 256
 272 603 272 613 295 618 c 256
 315 622 327 626 327 640 c 256
 327 649 313 655 296 655 c 256
 252 655 208 650 168 650 c 256
 129 650 67 654 25 654 c 256
 15 654 0 649 0 639 c 256
 0 626 16 622 28 618 c 257
 68 607 81 584 95 554 c 258
 355 8 l 258
 361 -5 365 -17 378 -17 c 256
EndSplineSet
PickledDataWithLists: "(dp0
Vpublic.markColor
p1
V0.67,0.95,0.38,1
p2
s."
Substitution2: "'c2pc' Capitals to Petite Capitals lookup 23 subtable" W.pc
Substitution2: "'c2sc' Capitals to Small Capitals lookup 21 subtable" W.sc
Substitution2: "'ordn' Ordinals lookup 15 subtable" W.ordn
Substitution2: "'sups' Superscript lookup 9 subtable" W.sups
Substitution2: "'sinf' Scientific Inferiors lookup 8 subtable" W.sinf
Substitution2: "'subs' Subscript lookup 7 subtable" W.subs
Comment: "+AAoA-W+AAoA"
EndChar
StartChar: X
Encoding: 455 88 454
GlifName: X_
Width: 760
VWidth: 0
Flags: W
AnchorPoint: "bottom.cap" 322 -30 basechar 0
AnchorPoint: "top.cap" 407 675 basechar 0
LayerCount: 2
Back
SplineSet
25 -7 m 256
 67 -7 95 -1 134 -1 c 256
 174 -1 206 -4 250 -4 c 256
 264 -4 279 1 279 10 c 256
 279 22 262 30 249 32 c 256
 208 39 190 63 213 97 c 258
 305 238 l 257
 325 266 336 261 354 235 c 258
 453 94 l 257
 458 86 461 79 461 73 c 256
 461 50 428 37 401 31 c 256
 389 28 373 21 373 9 c 256
 373 0 389 -6 400 -6 c 256
 514 -6 613 -5 730 -5 c 256
 744 -5 755 0 755 10 c 256
 755 23 731 33 719 36 c 256
 696 42 673 65 654 92 c 258
 488 326 l 258
 476 344 471 361 487 381 c 258
 634 562 l 258
 655 587 679 611 707 620 c 256
 719 624 736 627 736 640 c 256
 736 653 718 657 703 657 c 256
 661 657 633 650 594 650 c 256
 554 650 524 654 480 654 c 256
 466 654 451 649 451 640 c 256
 451 628 468 620 481 618 c 256
 551 608 552 580 534 558 c 257
 444 431 l 257
 430 414 418 416 406 433 c 258
 321 548 l 258
 314 557 308 571 308 577 c 256
 308 600 327 609 369 618 c 256
 381 621 397 628 397 640 c 256
 397 649 381 655 370 655 c 256
 256 655 149 654 37 654 c 256
 27 654 18 649 18 639 c 256
 18 626 28 622 40 618 c 257
 80 607 97 581 116 554 c 258
 250 364 l 258
 267 339 269 315 251 293 c 257
 113 96 l 257
 82 55 57 41 21 30 c 256
 9 26 -5 23 -5 10 c 256
 -5 -3 10 -7 25 -7 c 256
EndSplineSet
Fore
SplineSet
25 -7 m 256
 67 -7 93 -1 132 -1 c 256
 153 -1 193 -4 237 -4 c 256
 251 -4 266 1 266 10 c 256
 266 22 249 30 236 32 c 256
 208 36 192 49 190 67 c 256
 189 76 189 95 209 125 c 258
 294 251 l 258
 314 281 325 274 343 248 c 258
 453 94 l 257
 458 86 461 79 461 73 c 256
 461 50 428 41 401 35 c 256
 389 32 373 25 373 13 c 256
 373 4 389 -2 400 -2 c 256
 442 -2 482 1 522 1 c 256
 589 2 645 -5 730 -5 c 256
 744 -5 755 0 755 10 c 256
 755 23 731 33 719 36 c 256
 696 42 673 65 654 92 c 258
 484 332 l 258
 467 356 468 369 483 387 c 258
 625 564 l 258
 645 589 679 611 707 620 c 256
 719 624 736 627 736 640 c 256
 736 653 718 657 703 657 c 256
 661 657 643 650 604 650 c 256
 564 650 555 654 511 654 c 256
 493 654 479 649 479 640 c 256
 479 628 496 622 509 618 c 256
 541 608 553 597 553 579 c 256
 553 566 547 548 529 523 c 258
 452 415 l 258
 439 397 429 401 417 417 c 258
 321 548 l 258
 314 557 308 571 308 577 c 256
 308 600 327 609 369 618 c 256
 381 621 397 628 397 640 c 256
 397 649 381 655 370 655 c 256
 321 655 280 648 236 648 c 256
 170 647 104 654 37 654 c 256
 27 654 18 649 18 639 c 256
 18 626 28 622 40 618 c 257
 80 607 97 581 116 554 c 258
 260 352 l 258
 278 327 278 304 261 281 c 258
 140 124 l 258
 94 64 60 42 21 30 c 256
 9 26 -5 23 -5 10 c 256
 -5 -3 10 -7 25 -7 c 256
EndSplineSet
Validated: 41
PickledDataWithLists: "(dp0
Vpublic.markColor
p1
V0.67,0.95,0.38,1
p2
s."
Substitution2: "'c2pc' Capitals to Petite Capitals lookup 23 subtable" X.pc
Substitution2: "'c2sc' Capitals to Small Capitals lookup 21 subtable" X.sc
Substitution2: "'ordn' Ordinals lookup 15 subtable" X.ordn
Substitution2: "'sups' Superscript lookup 9 subtable" X.sups
Substitution2: "'sinf' Scientific Inferiors lookup 8 subtable" X.sinf
Substitution2: "'subs' Subscript lookup 7 subtable" X.subs
Comment: "+AAoA-X+AAoA"
EndChar
StartChar: Y
Encoding: 464 89 463
GlifName: Y_
Width: 671
VWidth: 0
Flags: W
AnchorPoint: "bottom.cap" 352 -30 basechar 0
AnchorPoint: "top.cap" 384 675 basechar 0
LayerCount: 2
Back
SplineSet
195 -6 m 256
 239 -6 305 3 345 3 c 256
 384 3 459 -5 501 -5 c 256
 516 -5 527 2 527 12 c 256
 527 25 513 29 498 33 c 256
 446 47 432 60 432 111 c 258
 432 254 l 258
 432 295 445 327 460 353 c 256
 501 421 543 489 584 557 c 256
 600 585 630 609 670 620 c 257
 682 624 696 627 696 640 c 256
 696 653 681 657 666 657 c 256
 626 657 598 649 557 649 c 256
 519 649 488 654 448 654 c 256
 434 654 419 649 419 640 c 256
 419 628 436 619 449 618 c 256
 477 615 505 604 505 577 c 256
 505 565 501 550 495 539 c 256
 464 481 432 424 401 366 c 257
 396 358 391 353 386 353 c 256
 381 353 375 356 370 366 c 257
 280 543 l 257
 273 555 269 568 269 578 c 256
 269 601 285 609 325 618 c 256
 337 621 353 628 353 640 c 256
 353 649 337 655 326 655 c 256
 276 655 237 648 191 648 c 256
 131 648 82 654 19 654 c 256
 9 654 0 649 0 639 c 256
 0 626 10 622 22 618 c 257
 62 607 80 582 98 554 c 258
 229 353 l 258
 248 322 262 296 262 246 c 258
 262 110 l 258
 262 69 247 43 196 33 c 256
 181 30 167 23 167 11 c 256
 167 2 178 -6 195 -6 c 256
EndSplineSet
Fore
SplineSet
195 -6 m 256
 239 -6 305 3 345 3 c 256
 384 3 459 -5 501 -5 c 256
 516 -5 527 2 527 12 c 256
 527 25 513 29 498 33 c 256
 446 47 432 60 432 111 c 258
 432 256 l 258
 432 297 445 329 460 355 c 256
 500 424 543 489 584 557 c 256
 600 585 630 609 670 620 c 257
 682 624 696 627 696 640 c 256
 696 653 681 657 666 657 c 256
 626 657 598 649 565 649 c 256
 528 649 497 654 457 654 c 256
 443 654 428 649 428 640 c 256
 428 628 445 619 458 618 c 256
 486 616 515 603 515 576 c 256
 515 564 510 549 505 538 c 256
 477 476 448 421 416 364 c 257
 411 356 406 351 401 351 c 256
 396 351 390 354 385 364 c 258
 280 543 l 257
 273 555 269 568 269 578 c 256
 269 601 285 609 325 618 c 256
 337 621 353 628 353 640 c 256
 353 649 337 655 326 655 c 256
 276 655 237 648 191 648 c 256
 131 648 82 654 19 654 c 256
 9 654 0 649 0 639 c 256
 0 626 10 622 22 618 c 257
 62 607 80 582 98 554 c 258
 229 353 l 258
 248 322 262 296 262 246 c 258
 262 110 l 258
 262 69 247 43 196 33 c 256
 181 30 167 23 167 11 c 256
 167 2 178 -6 195 -6 c 256
EndSplineSet
Validated: 9
PickledDataWithLists: "(dp0
Vpublic.markColor
p1
V0.67,0.95,0.38,1
p2
s."
Substitution2: "'c2pc' Capitals to Petite Capitals lookup 23 subtable" Y.pc
Substitution2: "'c2sc' Capitals to Small Capitals lookup 21 subtable" Y.sc
Substitution2: "'ordn' Ordinals lookup 15 subtable" Y.ordn
Substitution2: "'sups' Superscript lookup 9 subtable" Y.sups
Substitution2: "'sinf' Scientific Inferiors lookup 8 subtable" Y.sinf
Substitution2: "'subs' Subscript lookup 7 subtable" Y.subs
Comment: "+AAoA-Y+AAoA"
EndChar
StartChar: Z
Encoding: 479 90 478
GlifName: Z_
Width: 595
VWidth: 0
Flags: W
AnchorPoint: "bottom.cap" 302 -30 basechar 0
AnchorPoint: "top.cap" 324 675 basechar 0
LayerCount: 2
Back
SplineSet
518 -4 m 256
 533 -4 543 2 547 16 c 256
 560 64 580 124 580 160 c 256
 580 169 573 175 565 175 c 256
 557 175 551 173 546 163 c 257
 520 100 488 64 428 59 c 256
 397 57 379 57 349 57 c 256
 333 57 297 58 282 59 c 256
 265 60 257 63 257 71 c 256
 257 78 260 86 269 100 c 257
 339 226 433 384 514 516 c 258
 584 630 l 258
 587 635 576 655 566 655 c 256
 522 655 380 650 340 650 c 256
 301 650 263 650 224 650 c 256
 186 650 164 648 138 658 c 256
 118 666 95 688 82 688 c 256
 66 688 61 680 59 659 c 256
 54 602 54 579 29 526 c 256
 25 518 22 507 22 499 c 256
 22 490 26 481 38 481 c 256
 59 481 72 500 82 516 c 256
 111 564 163 592 207 592 c 256
 230 592 252 592 275 592 c 257
 296 592 317 592 338 592 c 256
 350 592 353 587 353 581 c 256
 353 575 350 569 347 563 c 257
 259 416 165 272 79 122 c 256
 61 91 41 59 21 27 c 256
 17 21 22 -5 36 -5 c 257
 113 -3 l 257
 163 -2 214 -1 264 0 c 257
 377 -1 508 -4 518 -4 c 256
EndSplineSet
Fore
SplineSet
518 -4 m 256
 533 -4 543 2 547 16 c 256
 560 64 580 124 580 160 c 256
 580 169 573 175 565 175 c 256
 557 175 551 173 546 163 c 257
 525 113 504 85 474 69 c 256
 443 53 403 50 346 50 c 256
 330 50 294 51 279 52 c 256
 262 53 254 56 254 64 c 256
 254 71 257 79 266 93 c 256
 344 214 433 384 514 516 c 258
 584 630 l 258
 587 635 576 655 566 655 c 256
 522 655 380 650 340 650 c 256
 301 650 263 650 224 650 c 256
 186 650 164 648 138 658 c 256
 118 666 95 688 82 688 c 256
 66 688 61 680 59 659 c 256
 54 602 54 579 29 526 c 256
 25 518 22 507 22 499 c 256
 22 490 26 481 38 481 c 256
 59 481 72 500 82 516 c 256
 114 569 158 603 217 603 c 256
 240 603 258 603 281 603 c 257
 302 603 323 603 344 603 c 256
 356 603 359 598 359 592 c 256
 359 586 356 580 353 574 c 257
 265 427 165 272 79 122 c 256
 61 91 41 59 21 27 c 256
 17 21 22 -5 36 -5 c 257
 113 -3 l 257
 163 -2 214 -1 264 0 c 257
 377 -1 508 -4 518 -4 c 256
EndSplineSet
Validated: 41
PickledDataWithLists: "(dp0
Vpublic.markColor
p1
V0.67,0.95,0.38,1
p2
s."
Substitution2: "'c2pc' Capitals to Petite Capitals lookup 23 subtable" Z.pc
Substitution2: "'c2sc' Capitals to Small Capitals lookup 21 subtable" Z.sc
Substitution2: "'ordn' Ordinals lookup 15 subtable" Z.ordn
Substitution2: "'sups' Superscript lookup 9 subtable" Z.sups
Substitution2: "'sinf' Scientific Inferiors lookup 8 subtable" Z.sinf
Substitution2: "'subs' Subscript lookup 7 subtable" Z.subs
Comment: "+AAoA-Z+AAoA"
EndChar
StartChar: bracketleft
Encoding: 625 91 624
GlifName: bracketleft
Width: 362
VWidth: 0
Flags: W
LayerCount: 2
Fore
SplineSet
152 -201 m 258
 328 -200 l 258
 338 -200 348 -195 348 -179 c 256
 348 -167 327 -161 309 -158 c 258
 233 -146 l 258
 221 -144 216 -134 216 -125 c 258
 217 626 l 258
 217 636 222 647 235 649 c 258
 316 661 l 258
 327 663 352 668 352 683 c 256
 352 699 338 700 328 700 c 258
 152 701 l 258
 117 701 110 701 110 645 c 258
 110 -145 l 258
 110 -201 117 -201 152 -201 c 258
EndSplineSet
Validated: 9
PickledDataWithLists: "(dp0
Vpublic.markColor
p1
V0.67,0.95,0.38,1
p2
s."
Substitution2: "'smcp' Lowercase to Small Capitals lookup 22 subtable" bracketleft.sc
Substitution2: "'c2sc' Capitals to Small Capitals lookup 21 subtable" bracketleft.sc
Substitution2: "'ordn' Ordinals lookup 15 subtable" bracketleft.ordn
Substitution2: "'sups' Superscript lookup 9 subtable" bracketleft.sups
Substitution2: "'sinf' Scientific Inferiors lookup 8 subtable" bracketleft.sinf
Substitution2: "'subs' Subscript lookup 7 subtable" bracketleft.subs
Comment: "+AAoA-bracketleft+AAoA"
EndChar
StartChar: backslash
Encoding: 596 92 595
GlifName: backslash
Width: 407
VWidth: 0
Flags: W
LayerCount: 2
Back
SplineSet
365 -62 m 256
 384 -62 397 -50 391 -37 c 258
 101 638 l 258
 90 662 69 665 42 665 c 256
 20 665 11 650 16 638 c 258
 306 -37 l 258
 316 -60 341 -62 365 -62 c 256
EndSplineSet
Fore
SplineSet
371 -62 m 256
 386 -62 396 -52 392 -42 c 258
 80 645 l 258
 71 664 55 667 33 667 c 256
 15 667 7 654 11 645 c 258
 324 -42 l 258
 332 -60 352 -62 371 -62 c 256
EndSplineSet
Validated: 9
PickledDataWithLists: "(dp0
Vpublic.markColor
p1
V0.67,0.95,0.38,1
p2
s."
Substitution2: "'smcp' Lowercase to Small Capitals lookup 22 subtable" backslash.sc
Substitution2: "'c2sc' Capitals to Small Capitals lookup 21 subtable" backslash.sc
Substitution2: "'ordn' Ordinals lookup 15 subtable" backslash.ordn
Substitution2: "'sups' Superscript lookup 9 subtable" backslash.sups
Substitution2: "'sinf' Scientific Inferiors lookup 8 subtable" backslash.sinf
Substitution2: "'subs' Subscript lookup 7 subtable" backslash.subs
Comment: "+AAoA-backslash+AAoA"
EndChar
StartChar: asciicircum
Encoding: 561 94 560
GlifName: asciicircum
Width: 517
VWidth: 0
Flags: W
LayerCount: 2
Back
SplineSet
256 603 m 257
 228 564 95 369 57 305 c 257
 55 302 54 298 54 295 c 256
 54 289 58 284 63 284 c 258
 65 284 l 257
 77 287 95 295 102 302 c 257
 129 332 220 470 250 514 c 256
 254 520 255 520 260 514 c 257
 290 470 374 341 410 302 c 257
 416 295 435 287 447 284 c 257
 449 284 l 258
 454 284 458 289 458 295 c 256
 458 298 457 302 455 305 c 257
 414 375 282 566 256 603 c 257
54 242 m 256
 74 242 91 259 104 279 c 258
 253 505 l 258
 256 510 259 512 263 505 c 258
 413 279 l 258
 426 259 443 242 463 242 c 256
 484 242 491 255 485 266 c 257
 300 566 l 258
 288 587 270 603 261 608 c 257
 254 608 l 257
 248 608 228 577 215 556 c 258
 32 266 l 258
 31 264 30 261 30 259 c 256
 30 246 42 242 54 242 c 256
EndSplineSet
Fore
SplineSet
54 242 m 256
 74 242 91 259 104 279 c 258
 252 500 l 258
 255 505 257 507 262 500 c 258
 413 279 l 258
 426 259 443 242 463 242 c 256
 484 242 491 255 485 266 c 257
 261 609 l 257
 253 609 l 257
 32 266 l 257
 31 264 30 261 30 259 c 256
 30 246 42 242 54 242 c 256
EndSplineSet
Guideline: "" "" 256 242 0 0 0
Validated: 41
PickledDataWithLists: "(dp0
Vpublic.markColor
p1
V0.67,0.95,0.38,1
p2
s."
Substitution2: "'smcp' Lowercase to Small Capitals lookup 22 subtable" asciicircum.sc
Substitution2: "'c2sc' Capitals to Small Capitals lookup 21 subtable" asciicircum.sc
Substitution2: "'ordn' Ordinals lookup 15 subtable" asciicircum.ordn
Substitution2: "'sups' Superscript lookup 9 subtable" asciicircum.sups
Substitution2: "'sinf' Scientific Inferiors lookup 8 subtable" asciicircum.sinf
Substitution2: "'subs' Subscript lookup 7 subtable" asciicircum.subs
Comment: "+AAoA-asciicircum+AAoA"
EndChar
StartChar: underscore
Encoding: 1547 95 1546
GlifName: underscore
Width: 610
VWidth: 0
Flags: W
LayerCount: 2
Back
SplineSet
487 -132 m 258
 24 -132 l 258
 6 -132 0 -161 0 -170 c 256
 0 -176 7 -182 14 -182 c 258
 469 -182 l 258
 488 -182 494 -163 500 -146 c 257
 500 -145 501 -144 501 -143 c 256
 501 -137 493 -132 487 -132 c 258
226 -563 m 256
 306 -563 380 -508 380 -496 c 256
 380 -484 376 -474 369 -474 c 256
 366 -474 364 -475 362 -476 c 256
 347 -482 334 -492 297 -492 c 256
 258 -492 233 -463 233 -400 c 258
 233 -213 l 258
 233 -196 244 -188 273 -188 c 258
 365 -188 l 258
 372 -188 378 -166 378 -145 c 256
 378 -138 373 -126 370 -126 c 258
 250 -126 l 258
 234 -126 223 -121 225 -104 c 258
 232 -53 l 258
 234 -35 229 -31 216 -31 c 256
 205 -31 199 -37 189 -45 c 256
 155 -75 80 -125 31 -141 c 256
 26 -143 25 -147 25 -150 c 256
 25 -163 33 -185 42 -185 c 258
 57 -185 l 258
 79 -186 88 -191 88 -203 c 258
 88 -433 l 258
 88 -516 133 -563 226 -563 c 256
EndSplineSet
Fore
SplineSet
585 -127 m 258
 29 -127 l 258
 8 -127 0 -162 0 -174 c 256
 0 -180 8 -188 17 -188 c 258
 575 -188 l 258
 594 -188 609 -160 609 -143 c 256
 609 -134 599 -127 585 -127 c 258
EndSplineSet
Validated: 9
PickledDataWithLists: "(dp0
Vpublic.markColor
p1
V0.67,0.95,0.38,1
p2
s."
Substitution2: "'smcp' Lowercase to Small Capitals lookup 22 subtable" underscore.sc
Substitution2: "'c2sc' Capitals to Small Capitals lookup 21 subtable" underscore.sc
Substitution2: "'ordn' Ordinals lookup 15 subtable" underscore.ordn
Substitution2: "'sups' Superscript lookup 9 subtable" underscore.sups
Substitution2: "'sinf' Scientific Inferiors lookup 8 subtable" underscore.sinf
Substitution2: "'subs' Subscript lookup 7 subtable" underscore.subs
Comment: "+AAoA-underscore+AAoA"
EndChar
StartChar: a
Encoding: 496 97 495
GlifName: a
Width: 447
VWidth: 0
Flags: W
AnchorPoint: "bottom" 199 -30 basechar 0
AnchorPoint: "top" 227 440 basechar 0
LayerCount: 2
Back
SplineSet
378 309 m 257
 379 374 335 436 261 436 c 256
 187 436 93 374 50 335 c 256
 14 303 -7 266 -7 236 c 1280
EndSplineSet
Fore
SplineSet
132 -14 m 256
 171 -14 202 2 246 44 c 257
 248 44 l 257
 275 4 304 -14 345 -14 c 256
 377 -14 407 -1 432 24 c 256
 445 37 452 48 452 56 c 256
 452 62 446 68 440 68 c 256
 438 68 436 67 434 65 c 257
 424 56 414 52 402 52 c 256
 385 52 372 77 373 108 c 258
 378 302 l 258
 380 383 331 436 255 436 c 256
 210 436 133 402 80 359 c 256
 45 331 32 313 32 292 c 256
 32 279 40 269 51 269 c 256
 83 269 145 296 145 310 c 256
 145 318 143 333 143 341 c 256
 143 348 144 355 148 360 c 256
 156 369 176 378 192 378 c 256
 220 378 233 356 232 318 c 258
 231 263 l 258
 231 237 228 232 201 220 c 258
 115 182 l 258
 57 156 27 127 27 80 c 256
 27 28 74 -14 132 -14 c 256
194 55 m 256
 179 55 160 65 160 104 c 256
 160 151 177 162 209 179 c 256
 213 181 216 182 219 182 c 256
 224 182 229 180 229 168 c 258
 226 91 l 257
 226 81 224 73 220 68 c 256
 213 59 206 55 194 55 c 256
EndSplineSet
Validated: 41
PickledDataWithLists: "(dp0
Vpublic.markColor
p1
V0.67,0.95,0.38,1
p2
s."
Substitution2: "'ss01' Style Set 1 lookup 29 subtable" A.pc
Substitution2: "'pcap' Lowercase to Petite Capitals lookup 24 subtable" a.pc
Substitution2: "'smcp' Lowercase to Small Capitals lookup 22 subtable" a.sc
Substitution2: "'ordn' Ordinals lookup 15 subtable" a.ordn
Substitution2: "'sups' Superscript lookup 9 subtable" a.sups
Substitution2: "'sinf' Scientific Inferiors lookup 8 subtable" a.sinf
Substitution2: "'subs' Subscript lookup 7 subtable" a.subs
Comment: "+AAoA-a+AAoA"
EndChar
StartChar: b
Encoding: 588 98 587
GlifName: b
Width: 548
VWidth: 0
Flags: W
AnchorPoint: "bottom" 275 -30 basechar 0
LayerCount: 2
Back
SplineSet
279 -14 m 256
 426 -14 527 84 527 227 c 256
 527 346 447 436 341 436 c 256
 302 436 258 421 217 395 c 257
 212 395 208 406 208 422 c 258
 209 638 l 258
 209 657 214 682 214 692 c 256
 214 698 211 705 202 705 c 256
 198 705 192 703 187 701 c 256
 152 688 75 658 27 649 c 256
 20 648 16 642 16 634 c 256
 16 624 21 619 28 618 c 256
 61 612 65 582 65 546 c 258
 70 110 l 258
 71 52 59 16 59 4 c 256
 59 -3 65 -9 78 -9 c 256
 83 -9 88 -6 94 -2 c 256
 105 6 119 11 132 11 c 256
 144 11 159 7 178 2 c 256
 205 -6 238 -14 279 -14 c 256
295 31 m 256
 250 31 208 77 208 142 c 258
 208 280 l 258
 208 324 211 346 227 357 c 256
 244 369 262 377 280 377 c 256
 346 377 373 280 373 200 c 256
 373 110 344 31 295 31 c 256
EndSplineSet
Fore
SplineSet
279 -14 m 256
 426 -14 527 84 527 227 c 256
 527 346 447 436 341 436 c 256
 302 436 258 421 217 395 c 257
 212 395 208 406 208 422 c 258
 209 638 l 258
 209 657 214 682 214 692 c 256
 214 698 211 705 202 705 c 256
 198 705 192 703 187 701 c 256
 152 688 75 658 27 649 c 256
 20 648 16 642 16 634 c 256
 16 624 21 619 28 618 c 256
 61 612 65 582 65 546 c 258
 70 110 l 258
 71 52 59 16 59 4 c 256
 59 -3 65 -9 78 -9 c 256
 83 -9 88 -6 94 -2 c 256
 105 6 119 11 132 11 c 256
 144 11 159 7 178 2 c 256
 205 -6 238 -14 279 -14 c 256
295 31 m 256
 250 31 208 77 208 142 c 258
 208 359 l 257
 227 372 262 377 280 377 c 256
 346 377 373 280 373 200 c 256
 373 110 344 31 295 31 c 256
EndSplineSet
Validated: 41
PickledDataWithLists: "(dp0
Vcom.schriftgestaltung.Glyphs.glyph.rightMetricsKey
p1
Vo
p2
sVpublic.markColor
p3
V0.67,0.95,0.38,1
p4
s."
Substitution2: "'ss01' Style Set 1 lookup 29 subtable" B.pc
Substitution2: "'pcap' Lowercase to Petite Capitals lookup 24 subtable" b.pc
Substitution2: "'smcp' Lowercase to Small Capitals lookup 22 subtable" b.sc
Substitution2: "'ordn' Ordinals lookup 15 subtable" b.ordn
Substitution2: "'sups' Superscript lookup 9 subtable" b.sups
Substitution2: "'sinf' Scientific Inferiors lookup 8 subtable" b.sinf
Substitution2: "'subs' Subscript lookup 7 subtable" b.subs
Comment: "+AAoA-b+AAoA"
EndChar
StartChar: c
Encoding: 648 99 647
GlifName: c
Width: 412
VWidth: 0
Flags: W
AnchorPoint: "top" 229 440 basechar 0
LayerCount: 2
Back
SplineSet
223 -15 m 256
 284 -15 335 7 367 48 c 256
 377 61 382 71 382 79 c 256
 382 87 377 93 371 93 c 256
 368 93 364 91 361 88 c 256
 329 56 305 45 266 45 c 256
 181 45 114 118 114 212 c 256
 114 310 159 377 224 377 c 256
 248 377 289 352 318 330 c 256
 326 324 332 319 339 319 c 256
 356 319 382 343 382 360 c 256
 382 367 378 373 370 379 c 256
 338 403 299 414 256 414 c 256
 139 414 45 310 45 180 c 256
 45 69 122 -15 223 -15 c 256
EndSplineSet
Fore
SplineSet
211 -14 m 256
 300 -14 373 61 390 102 c 256
 395 114 396 123 396 129 c 256
 396 139 392 145 384 145 c 256
 377 145 373 140 366 135 c 256
 334 111 307 97 267 97 c 256
 185 97 142 155 142 253 c 256
 142 347 164 381 211 381 c 256
 238 381 275 362 311 331 c 256
 322 322 333 312 347 312 c 256
 362 312 396 348 396 360 c 256
 396 365 393 372 388 378 c 256
 353 415 302 436 247 436 c 256
 121 436 21 334 21 205 c 256
 21 81 103 -14 211 -14 c 256
EndSplineSet
Validated: 9
PickledDataWithLists: "(dp0
Vpublic.markColor
p1
V0.67,0.95,0.38,1
p2
s."
Substitution2: "'ss01' Style Set 1 lookup 29 subtable" C.pc
Substitution2: "'pcap' Lowercase to Petite Capitals lookup 24 subtable" c.pc
Substitution2: "'smcp' Lowercase to Small Capitals lookup 22 subtable" c.sc
Substitution2: "'ordn' Ordinals lookup 15 subtable" c.ordn
Substitution2: "'sups' Superscript lookup 9 subtable" c.sups
Substitution2: "'sinf' Scientific Inferiors lookup 8 subtable" c.sinf
Substitution2: "'subs' Subscript lookup 7 subtable" c.subs
Comment: "+AAoA-c+AAoA"
EndChar
StartChar: d
Encoding: 708 100 707
GlifName: d
Width: 563
VWidth: 0
Flags: W
AnchorPoint: "bottom" 252 -30 basechar 0
LayerCount: 2
Back
SplineSet
358 -19 m 256
 362 -19 368 -17 376 -13 c 256
 425 5 484 18 535 24 c 256
 542 24 553 40 553 51 c 256
 553 61 550 63 540 62 c 256
 507 59 507 59 501 59 c 256
 484 59 478 76 478 122 c 258
 484 638 l 257
 485 659 489 701 489 692 c 257
 489 700 484 705 477 705 c 256
 475 705 471 704 451 695 c 256
 414 679 350 659 302 649 c 256
 295 648 291 642 291 634 c 256
 291 626 295 620 303 618 c 256
 331 612 340 593 340 546 c 258
 340 433 l 258
 340 425 339 422 336 422 c 257
 337 422 333 423 323 425 c 256
 304 430 283 433 264 433 c 256
 121 433 21 336 21 196 c 256
 21 77 106 -14 216 -14 c 256
 268 -14 320 13 349 57 c 257
 349 51 l 257
 348 37 347 22 343 -1 c 256
 343 -6 354 -19 358 -19 c 256
271 55 m 256
 215 55 175 126 175 224 c 256
 175 317 210 384 258 384 c 256
 292 384 339 344 339 315 c 258
 340 138 l 258
 340 113 337 101 325 78 c 257
 312 65 289 55 271 55 c 256
EndSplineSet
Fore
SplineSet
358 -19 m 256
 362 -19 368 -17 376 -13 c 256
 425 5 484 18 535 24 c 256
 542 24 553 40 553 51 c 256
 553 61 550 63 540 62 c 256
 507 59 507 59 501 59 c 256
 484 59 478 76 478 122 c 258
 484 638 l 257
 485 659 489 701 489 692 c 257
 489 700 484 705 477 705 c 256
 475 705 471 704 451 695 c 256
 414 679 350 659 302 649 c 256
 295 648 291 642 291 634 c 256
 291 626 295 620 303 618 c 256
 331 612 340 593 340 546 c 258
 340 433 l 258
 340 425 339 422 336 422 c 257
 337 422 333 423 323 425 c 256
 304 430 283 433 264 433 c 256
 121 433 21 336 21 196 c 256
 21 77 106 -14 216 -14 c 256
 268 -14 320 13 349 57 c 257
 349 51 l 257
 348 37 347 22 343 -1 c 256
 343 -6 354 -19 358 -19 c 256
271 58 m 256
 215 58 175 126 175 224 c 256
 175 317 210 384 258 384 c 256
 292 384 339 344 339 315 c 258
 340 84 l 257
 322 66 287 58 271 58 c 256
EndSplineSet
Validated: 37
PickledDataWithLists: "(dp0
Vcom.schriftgestaltung.Glyphs.glyph.leftMetricsKey
p1
Vo
p2
sVpublic.markColor
p3
V0.67,0.95,0.38,1
p4
s."
Substitution2: "'ss01' Style Set 1 lookup 29 subtable" D.pc
Substitution2: "'pcap' Lowercase to Petite Capitals lookup 24 subtable" d.pc
Substitution2: "'smcp' Lowercase to Small Capitals lookup 22 subtable" d.sc
Substitution2: "'ordn' Ordinals lookup 15 subtable" d.ordn
Substitution2: "'sups' Superscript lookup 9 subtable" d.sups
Substitution2: "'sinf' Scientific Inferiors lookup 8 subtable" d.sinf
Substitution2: "'subs' Subscript lookup 7 subtable" d.subs
Comment: "+AAoA-d+AAoA"
EndChar
StartChar: e
Encoding: 753 101 752
GlifName: e
Width: 423
VWidth: 0
Flags: W
AnchorPoint: "bottom" 226 -30 basechar 0
AnchorPoint: "top" 238 440 basechar 0
LayerCount: 2
Back
SplineSet
211 -14 m 256
 300 -14 373 61 390 102 c 256
 395 114 396 123 396 129 c 256
 396 139 392 145 384 145 c 256
 377 145 373 140 366 135 c 256
 334 111 307 97 267 97 c 256
 185 97 142 155 142 253 c 256
 142 338 173 380 227 380 c 256
 249 380 286 346 311 323 c 256
 321 313 337 307 351 307 c 256
 369 307 396 344 396 360 c 256
 396 365 393 372 388 378 c 256
 353 415 300 437 247 437 c 256
 121 437 21 334 21 205 c 256
 21 81 103 -14 211 -14 c 256
EndSplineSet
Fore
SplineSet
211 -14 m 256
 307 -14 373 45 391 100 c 256
 395 112 397 121 397 127 c 256
 397 135 393 140 386 140 c 256
 382 140 376 136 372 133 c 256
 338 108 307 92 269 92 c 256
 195 92 144 148 144 221 c 256
 144 246 152 256 171 256 c 258
 369 256 l 258
 391 256 400 268 400 295 c 256
 400 374 331 436 245 436 c 256
 121 436 21 333 21 205 c 256
 21 81 103 -14 211 -14 c 256
171 300 m 258
 162 300 156 306 156 315 c 256
 154 354 192 394 232 394 c 256
 266 394 291 369 291 335 c 256
 291 321 286 307 280 305 c 256
 269 301 263 300 224 300 c 258
 171 300 l 258
EndSplineSet
Validated: 41
PickledDataWithLists: "(dp0
Vpublic.markColor
p1
V0.67,0.95,0.38,1
p2
s."
Substitution2: "'ss01' Style Set 1 lookup 29 subtable" E.pc
Substitution2: "'pcap' Lowercase to Petite Capitals lookup 24 subtable" e.pc
Substitution2: "'smcp' Lowercase to Small Capitals lookup 22 subtable" e.sc
Substitution2: "'ordn' Ordinals lookup 15 subtable" e.ordn
Substitution2: "'sups' Superscript lookup 9 subtable" e.sups
Substitution2: "'sinf' Scientific Inferiors lookup 8 subtable" e.sinf
Substitution2: "'subs' Subscript lookup 7 subtable" e.subs
Comment: "+AAoA-e+AAoA"
EndChar
StartChar: f
Encoding: 842 102 841
GlifName: f
Width: 369
VWidth: 0
Flags: W
LayerCount: 2
Back
SplineSet
104 -3 m 256
 144 -3 152 2 187 2 c 256
 222 2 249 -3 289 -3 c 256
 302 -3 309 0 309 8 c 256
 309 18 300 22 286 24 c 256
 232 32 220 41 220 68 c 258
 220 339 l 258
 220 347 223 352 239 352 c 258
 354 352 l 258
 357 352 361 355 363 360 c 256
 366 368 369 380 369 389 c 256
 369 395 363 400 356 400 c 258
 231 400 l 258
 225 400 220 402 220 410 c 258
 220 498 l 258
 220 611 265 665 328 665 c 256
 372 665 395 646 412 629 c 256
 425 616 434 606 446 606 c 256
 464 606 480 619 480 646 c 256
 480 681 444 706 370 706 c 256
 283 706 150 637 150 406 c 257
 130 396 115 388 91 376 c 256
 89 375 84 373 84 370 c 256
 84 363 94 353 98 352 c 257
 119 350 137 350 150 350 c 257
 150 68 l 258
 150 41 138 31 107 24 c 256
 93 21 84 18 84 8 c 256
 84 0 91 -3 104 -3 c 256
EndSplineSet
Fore
SplineSet
40 -3 m 256
 80 -3 120 2 155 2 c 256
 190 2 253 -3 293 -3 c 256
 301 -3 309 6 309 14 c 256
 309 25 303 30 290 33 c 256
 234 45 225 55 225 91 c 258
 225 336 l 258
 225 354 233 361 265 361 c 258
 352 361 l 258
 354 361 357 364 360 369 c 256
 365 378 369 394 369 406 c 256
 369 414 364 423 352 423 c 258
 242 423 l 258
 233 423 225 426 225 438 c 258
 225 519 l 258
 225 617 251 659 303 659 c 256
 346 659 377 628 401 601 c 256
 414 584 426 572 438 572 c 256
 464 572 479 593 479 624 c 256
 479 681 440 706 345 706 c 256
 240 706 94 635 80 423 c 257
 59 414 40 406 24 400 c 256
 18 398 14 395 14 390 c 256
 14 379 20 359 28 358 c 256
 49 356 67 356 80 356 c 257
 80 71 l 258
 80 49 76 44 38 32 c 256
 27 28 20 23 20 12 c 256
 20 3 32 -3 40 -3 c 256
EndSplineSet
Validated: 9
PickledDataWithLists: "(dp0
Vpublic.markColor
p1
V0.67,0.95,0.38,1
p2
s."
Substitution2: "'ss01' Style Set 1 lookup 29 subtable" F.pc
Substitution2: "'pcap' Lowercase to Petite Capitals lookup 24 subtable" f.pc
Substitution2: "'smcp' Lowercase to Small Capitals lookup 22 subtable" f.sc
Substitution2: "'ordn' Ordinals lookup 15 subtable" f.ordn
Substitution2: "'sups' Superscript lookup 9 subtable" f.sups
Substitution2: "'sinf' Scientific Inferiors lookup 8 subtable" f.sinf
Substitution2: "'subs' Subscript lookup 7 subtable" f.subs
Substitution2: "'locl' Localized Forms in Latin lookup 4 subtable" f.DEU
Comment: "+AAoA-f+AAoA"
EndChar
StartChar: g
Encoding: 900 103 899
GlifName: g
Width: 514
VWidth: 0
Flags: W
AnchorPoint: "top" 247 440 basechar 0
LayerCount: 4
Back
SplineSet
220 -289 m 256
 352 -289 492 -169 492 -57 c 256
 492 5 430 36 281 48 c 256
 167 57 136 64 136 84 c 256
 136 94 114 74 174 119 c 257
 127 140 l 257
 113 123 147 155 60 77 c 256
 36 53 35 51 35 36 c 256
 35 -31 91 -64 232 -79 c 256
 334 -90 358 -100 358 -130 c 256
 358 -157 344 -186 321 -209 c 256
 303 -227 271 -236 223 -236 c 256
 152 -236 102 -197 102 -142 c 256
 102 -108 116 -85 152 -62 c 257
 104 -42 l 257
 91 -51 73 -65 52 -85 c 256
 16 -119 8 -135 8 -176 c 256
 8 -247 87 -289 220 -289 c 256
234 140 m 256
 195 140 165 197 165 273 c 256
 165 342 193 393 231 393 c 256
 272 393 299 344 299 268 c 256
 299 189 274 140 234 140 c 256
222 94 m 256
 332 94 425 182 425 288 c 256
 425 339 424 330 430 335 c 256
 436 340 450 343 466 343 c 258
 493 343 l 258
 499 343 502 345 506 350 c 256
 514 361 520 379 520 390 c 256
 520 405 513 414 503 414 c 256
 490 414 469 411 448 411 c 256
 416 411 390 414 366 418 c 256
 318 425 282 437 241 437 c 256
 132 437 33 365 33 263 c 256
 33 164 134 94 222 94 c 256
EndSplineSet
Fore
SplineSet
220 -289 m 256
 352 -289 492 -169 492 -57 c 256
 492 5 430 36 281 48 c 256
 167 57 136 64 136 84 c 256
 136 94 153 114 180 122 c 257
 127 140 l 257
 120 126 91 104 63 85 c 256
 40 70 35 57 35 45 c 256
 35 -22 91 -64 232 -79 c 256
 334 -90 358 -100 358 -130 c 256
 358 -157 344 -186 321 -209 c 256
 303 -227 271 -236 223 -236 c 256
 152 -236 102 -197 102 -142 c 256
 102 -108 127 -82 164 -62 c 257
 113 -42 l 257
 100 -51 76 -70 49 -89 c 256
 13 -115 8 -135 8 -176 c 256
 8 -247 87 -289 220 -289 c 256
234 140 m 256
 195 140 165 197 165 273 c 256
 165 342 193 393 231 393 c 256
 272 393 299 344 299 268 c 256
 299 189 274 140 234 140 c 256
222 94 m 256
 332 94 425 182 425 288 c 256
 425 339 424 330 430 335 c 256
 436 340 450 343 466 343 c 258
 493 343 l 258
 499 343 502 345 506 350 c 256
 514 361 520 379 520 390 c 256
 520 405 513 414 503 414 c 256
 490 414 469 411 448 411 c 256
 416 411 390 414 366 418 c 256
 318 425 282 437 241 437 c 256
 132 437 33 365 33 263 c 256
 33 164 132 94 222 94 c 256
EndSplineSet
Validated: 37
PickledDataWithLists: "(dp0
Vpublic.markColor
p1
V0.67,0.95,0.38,1
p2
s."
Layer: 2
SplineSet
231 -289 m 256
 351 -289 496 -176 496 -67 c 256
 496 21 377 33 219 44 c 256
 183 46 126 52 126 78 c 256
 126 92 137 104 161 118 c 257
 161 118 129 141 129 141 c 257
 113 109 85 97 64 77 c 256
 49 62 39 57 39 36 c 256
 39 -143 377 -51 377 -140 c 256
 377 -186 305 -237 225 -237 c 256
 144 -237 94 -192 94 -133 c 256
 94 -119 101 -103 119 -85 c 257
 132 -73 157 -51 170 -44 c 257
 132 -33 l 257
 117 -57 90 -73 61 -91 c 256
 44 -101 12 -130 12 -176 c 256
 12 -263 130 -289 231 -289 c 256
238 135 m 256
 197 135 169 197 169 273 c 256
 169 331 189 398 235 398 c 256
 281 398 303 339 303 268 c 256
 303 192 281 135 238 135 c 256
226 94 m 256
 336 94 429 182 429 288 c 256
 429 303 429 324 434 335 c 257
 443 343 486 343 501 343 c 256
 518 343 517 414 501 414 c 256
 488 414 473 411 452 411 c 256
 356 411 307 437 245 437 c 256
 136 437 37 365 37 263 c 256
 37 169 130 94 226 94 c 256
EndSplineSet
PickledDataWithLists: "(dp0
Vpublic.markColor
p1
V0.67,0.95,0.38,1
p2
s."
Layer: 3
SplineSet
231 -289 m 256
 351 -289 496 -176 496 -67 c 256
 496 21 377 33 219 44 c 256
 183 46 126 52 126 78 c 256
 126 92 137 104 161 118 c 257
 161 118 129 141 129 141 c 257
 113 109 85 97 64 77 c 256
 49 62 39 57 39 36 c 256
 39 -143 377 -51 377 -140 c 256
 377 -186 305 -237 225 -237 c 256
 144 -237 94 -192 94 -133 c 256
 94 -119 101 -103 119 -85 c 257
 132 -73 157 -51 170 -44 c 257
 132 -33 l 257
 117 -57 90 -73 61 -91 c 256
 44 -101 12 -130 12 -176 c 256
 12 -263 130 -289 231 -289 c 256
238 135 m 256
 197 135 169 197 169 273 c 256
 169 331 189 398 235 398 c 256
 281 398 303 339 303 268 c 256
 303 192 281 135 238 135 c 256
226 94 m 256
 336 94 429 182 429 288 c 256
 429 303 429 324 434 335 c 257
 443 343 486 343 501 343 c 256
 518 343 517 414 501 414 c 256
 488 414 473 411 452 411 c 256
 356 411 307 437 245 437 c 256
 136 437 37 365 37 263 c 256
 37 169 130 94 226 94 c 256
EndSplineSet
Substitution2: "'ss01' Style Set 1 lookup 29 subtable" G.pc
Substitution2: "'pcap' Lowercase to Petite Capitals lookup 24 subtable" g.pc
Substitution2: "'smcp' Lowercase to Small Capitals lookup 22 subtable" g.sc
Substitution2: "'ordn' Ordinals lookup 15 subtable" g.ordn
Substitution2: "'sups' Superscript lookup 9 subtable" g.sups
Substitution2: "'sinf' Scientific Inferiors lookup 8 subtable" g.sinf
Substitution2: "'subs' Subscript lookup 7 subtable" g.subs
Comment: "+AAoA-g+AAoA"
EndChar
StartChar: h
Encoding: 960 104 959
GlifName: h
Width: 569
VWidth: 0
Flags: W
AnchorPoint: "bottom" 281 -30 basechar 0
LayerCount: 2
Back
SplineSet
36 -3 m 256
 76 -3 116 2 151 2 c 256
 186 2 218 -3 258 -3 c 256
 266 -3 274 4 274 12 c 256
 274 22 266 29 255 33 c 256
 236 40 221 43 221 70 c 258
 221 305 l 258
 221 311 223 319 229 323 c 256
 252 339 270 346 295 346 c 256
 330 346 353 316 353 267 c 258
 353 70 l 258
 353 43 339 38 319 33 c 256
 308 30 300 23 300 12 c 256
 300 3 308 -3 316 -3 c 256
 356 -3 391 2 426 2 c 256
 461 2 498 -3 538 -3 c 256
 546 -3 555 3 555 12 c 256
 555 23 546 29 535 33 c 256
 515 40 498 43 498 70 c 258
 498 292 l 258
 498 382 444 436 373 436 c 256
 311 436 271 409 226 367 c 257
 225 368 224 376 224 382 c 256
 224 401 229 427 229 438 c 256
 229 444 228 451 219 451 c 256
 214 451 205 445 199 442 c 256
 159 422 90 402 45 392 c 257
 38 390 35 383 35 374 c 256
 35 362 41 356 46 355 c 256
 68 351 76 329 76 303 c 258
 76 71 l 258
 76 44 59 38 39 33 c 256
 28 30 16 23 16 12 c 256
 16 3 28 -3 36 -3 c 256
EndSplineSet
Fore
SplineSet
36 -3 m 256
 76 -3 110 2 145 2 c 256
 180 2 216 -3 256 -3 c 256
 267 -3 273 4 273 13 c 256
 273 23 263 30 253 34 c 256
 236 40 221 46 221 73 c 258
 221 296 l 258
 221 312 223 318 231 324 c 256
 253 340 276 346 295 346 c 256
 326 346 353 313 353 271 c 258
 353 75 l 258
 353 46 336 38 319 33 c 256
 309 30 299 24 299 13 c 256
 299 2 308 -3 324 -3 c 256
 374 -3 378 2 424 2 c 256
 467 2 482 -3 532 -3 c 256
 547 -3 554 4 554 12 c 256
 554 23 546 28 533 33 c 256
 514 40 498 45 498 73 c 258
 498 293 l 258
 498 384 442 436 370 436 c 256
 301 436 255 393 225 367 c 257
 221 370 220 382 220 394 c 258
 220 638 l 257
 221 657 225 682 225 692 c 256
 225 698 223 705 214 705 c 256
 210 705 206 704 200 702 c 256
 169 691 87 659 37 649 c 256
 31 648 27 643 27 634 c 256
 27 624 31 619 38 618 c 256
 71 611 76 582 76 546 c 258
 76 71 l 258
 76 42 59 40 39 33 c 256
 24 28 16 22 16 12 c 256
 16 3 23 -3 36 -3 c 256
EndSplineSet
Validated: 9
PickledDataWithLists: "(dp0
Vcom.schriftgestaltung.Glyphs.glyph.rightMetricsKey
p1
Vn
p2
sVpublic.markColor
p3
V0.67,0.95,0.38,1
p4
s."
Substitution2: "'ss01' Style Set 1 lookup 29 subtable" H.pc
Substitution2: "'pcap' Lowercase to Petite Capitals lookup 24 subtable" h.pc
Substitution2: "'smcp' Lowercase to Small Capitals lookup 22 subtable" h.sc
Substitution2: "'ordn' Ordinals lookup 15 subtable" h.ordn
Substitution2: "'sups' Superscript lookup 9 subtable" h.sups
Substitution2: "'sinf' Scientific Inferiors lookup 8 subtable" h.sinf
Substitution2: "'subs' Subscript lookup 7 subtable" h.subs
Comment: "+AAoA-h+AAoA"
EndChar
StartChar: i
Encoding: 992 105 991
GlifName: i
Width: 306
VWidth: 0
Flags: HW
AnchorPoint: "bottom" 150 -30 basechar 0
AnchorPoint: "top" 152 440 basechar 0
LayerCount: 2
Back
SplineSet
36 -3 m 256
 75 -3 121 2 156 2 c 256
 191 2 243 -2 281 -2 c 256
 290 -2 296 3 296 12 c 256
 296 23 289 27 278 31 c 256
 240 43 230 52 230 69 c 258
 230 288 l 258
 230 337 240 399 243 437 c 257
 243 445 238 451 229 451 c 256
 226 451 218 448 207 443 c 256
 176 429 114 399 42 385 c 257
 35 384 30 376 30 367 c 256
 30 358 34 349 42 348 c 256
 71 344 85 332 85 284 c 258
 85 68 l 258
 85 47 73 40 37 31 c 256
 26 28 20 21 20 11 c 256
 20 3 28 -3 36 -3 c 256
151 488 m 256
 200 488 238 526 238 572 c 256
 238 621 200 659 151 659 c 256
 105 659 67 621 67 572 c 256
 67 526 105 488 151 488 c 256
EndSplineSet
Fore
Refer: 747 305 N 1 0 0 1 0 0 2
Refer: 744 729 N 1 0 0 1 31 0 2
Validated: 9
PickledDataWithLists: "(dp0
Vcom.schriftgestaltung.Glyphs.glyph.leftMetricsKey
p1
Vn
p2
sVpublic.markColor
p3
V0.67,0.95,0.38,1
p4
s."
Substitution2: "'ss01' Style Set 1 lookup 29 subtable" I.pc
Substitution2: "'pcap' Lowercase to Petite Capitals lookup 24 subtable" i.pc
Substitution2: "'smcp' Lowercase to Small Capitals lookup 22 subtable" i.sc
Substitution2: "'ordn' Ordinals lookup 15 subtable" i.ordn
Substitution2: "'sups' Superscript lookup 9 subtable" i.sups
Substitution2: "'sinf' Scientific Inferiors lookup 8 subtable" i.sinf
Substitution2: "'subs' Subscript lookup 7 subtable" i.subs
Substitution2: "'locl' Localized Forms in Latin lookup 6 subtable" i.TRK
Substitution2: "'locl' Localized Forms in Latin lookup 3 subtable" i.TRK
Substitution2: "'locl' Localized Forms in Latin lookup 2 subtable" i.TRK
Comment: "+AAoA-i+AAoA"
EndChar

StartChar: j
Encoding: 106 106 16
Width: 216
VWidth: 0
Flags: HW
LayerCount: 3
Fore
SplineSet
35 562 m 0
 35 594 69 616 111 616 c 0
 154 616 189 594 189 562 c 0
 189 531 154 510 111 510 c 0
 69 510 35 531 35 562 c 0
EndSplineSet
Refer: 344 567 N 1 0 0 1 0 0 3
Substitution2: "Smallcaps subtable" j.sc
Substitution2: "historic_j subtable" j.hist
Substitution2: "sups subtable" j.sups
Substitution2: "sinf subtable" j.sinf
Substitution2: "ordn subtable" j.ordn
Substitution2: "subs subtable" j.subs
Substitution2: "Single Substitution lookup 8 subtable" uni0237
EndChar
StartChar: k
Encoding: 1042 107 1041
GlifName: k
Width: 563
VWidth: 0
Flags: W
AnchorPoint: "bottom" 282 -30 basechar 0
LayerCount: 2
Back
SplineSet
35 -3 m 256
 75 -3 109 2 144 2 c 256
 179 2 212 -3 252 -3 c 256
 263 -3 269 4 269 13 c 256
 269 23 259 30 249 34 c 256
 228 41 220 49 220 70 c 256
 220 92 220 118 220 140 c 257
 220 160 220 181 220 201 c 256
 220 206 223 208 226 209 c 256
 227 209 229 208 230 207 c 257
 321 74 l 258
 329 63 334 56 334 50 c 256
 333 44 330 40 320 36 c 256
 305 31 297 25 297 15 c 256
 297 6 304 0 317 0 c 256
 383 0 464 -3 551 -3 c 256
 565 -3 573 2 573 12 c 256
 573 23 557 27 546 31 c 256
 525 39 486 62 464 87 c 256
 412 146 389 190 342 253 c 256
 339 257 335 260 335 265 c 256
 335 269 337 273 340 276 c 256
 376 322 441 360 454 368 c 256
 472 379 499 394 524 399 c 256
 539 402 547 409 547 420 c 256
 547 427 543 432 536 432 c 257
 509 429 417 423 381 423 c 258
 332 423 l 258
 322 423 310 421 310 409 c 256
 310 403 314 398 322 397 c 257
 344 394 355 386 355 379 c 256
 355 375 351 369 346 361 c 256
 333 340 289 288 241 246 c 256
 238 244 233 241 229 241 c 256
 223 241 220 246 220 254 c 258
 219 638 l 257
 220 657 224 682 224 692 c 256
 224 698 222 705 213 705 c 256
 209 705 205 704 199 702 c 256
 168 691 86 659 36 649 c 256
 30 648 26 643 26 634 c 256
 26 624 30 619 37 618 c 257
 70 611 75 582 75 546 c 258
 75 71 l 258
 75 42 58 40 38 33 c 256
 23 28 15 22 15 12 c 256
 15 3 22 -3 35 -3 c 256
EndSplineSet
Fore
SplineSet
35 -3 m 256
 75 -3 109 2 144 2 c 256
 179 2 212 -3 252 -3 c 256
 263 -3 269 4 269 13 c 256
 269 23 259 30 249 34 c 256
 228 41 220 49 220 70 c 256
 220 92 220 118 220 140 c 257
 220 160 220 181 220 201 c 256
 220 206 223 208 226 209 c 256
 227 209 229 208 230 207 c 257
 321 74 l 258
 329 63 334 56 334 50 c 256
 333 44 330 40 320 36 c 256
 305 31 297 25 297 15 c 256
 297 6 304 0 317 0 c 256
 383 0 464 -3 551 -3 c 256
 565 -3 573 2 573 12 c 256
 573 23 557 27 546 31 c 256
 525 39 486 62 464 87 c 256
 412 146 379 200 332 263 c 256
 329 267 325 270 325 275 c 256
 325 279 327 283 330 286 c 256
 355 311 394 339 433 360 c 256
 467 380 501 394 524 399 c 256
 539 402 547 409 547 420 c 256
 547 427 543 432 536 432 c 257
 509 429 417 423 381 423 c 258
 332 423 l 258
 322 423 310 421 310 409 c 256
 310 403 314 398 322 397 c 257
 344 394 355 386 355 379 c 256
 355 375 351 369 346 361 c 256
 333 340 289 288 241 246 c 256
 238 244 233 241 229 241 c 256
 223 241 220 246 220 254 c 258
 219 638 l 257
 220 657 224 682 224 692 c 256
 224 698 222 705 213 705 c 256
 209 705 205 704 199 702 c 256
 168 691 86 659 36 649 c 256
 30 648 26 643 26 634 c 256
 26 624 30 619 37 618 c 257
 70 611 75 582 75 546 c 258
 75 71 l 258
 75 42 58 40 38 33 c 256
 23 28 15 22 15 12 c 256
 15 3 22 -3 35 -3 c 256
EndSplineSet
Validated: 9
PickledDataWithLists: "(dp0
Vpublic.markColor
p1
V0.67,0.95,0.38,1
p2
s."
Substitution2: "'ss01' Style Set 1 lookup 29 subtable" K.pc
Substitution2: "'pcap' Lowercase to Petite Capitals lookup 24 subtable" k.pc
Substitution2: "'smcp' Lowercase to Small Capitals lookup 22 subtable" k.sc
Substitution2: "'ordn' Ordinals lookup 15 subtable" k.ordn
Substitution2: "'sups' Superscript lookup 9 subtable" k.sups
Substitution2: "'sinf' Scientific Inferiors lookup 8 subtable" k.sinf
Substitution2: "'subs' Subscript lookup 7 subtable" k.subs
Comment: "+AAoA-k+AAoA"
EndChar
StartChar: l
Encoding: 1062 108 1061
GlifName: l
Width: 295
VWidth: 0
Flags: W
AnchorPoint: "bottom" 146 -30 basechar 0
LayerCount: 2
Fore
SplineSet
35 -3 m 256
 75 -3 109 2 144 2 c 256
 179 2 220 -1 260 -1 c 257
 273 -1 280 5 280 14 c 256
 280 24 272 30 257 35 c 256
 237 42 220 44 220 73 c 257
 220 638 l 257
 221 657 225 682 225 692 c 256
 225 698 223 705 214 705 c 256
 210 705 206 704 200 702 c 256
 169 691 86 659 36 649 c 256
 30 648 26 643 26 634 c 256
 26 624 30 619 37 618 c 256
 70 611 75 582 75 546 c 258
 75 71 l 258
 75 42 58 40 38 33 c 256
 23 28 15 22 15 12 c 256
 15 3 22 -3 35 -3 c 256
EndSplineSet
Validated: 9
PickledDataWithLists: "(dp0
Vpublic.markColor
p1
V0.67,0.95,0.38,1
p2
s."
Substitution2: "'ss01' Style Set 1 lookup 29 subtable" L.pc
Substitution2: "'pcap' Lowercase to Petite Capitals lookup 24 subtable" l.pc
Substitution2: "'smcp' Lowercase to Small Capitals lookup 22 subtable" l.sc
Substitution2: "'ordn' Ordinals lookup 15 subtable" l.ordn
Substitution2: "'sups' Superscript lookup 9 subtable" l.sups
Substitution2: "'sinf' Scientific Inferiors lookup 8 subtable" l.sinf
Substitution2: "'subs' Subscript lookup 7 subtable" l.subs
Comment: "+AAoA-l+AAoA"
EndChar
StartChar: m
Encoding: 1121 109 1120
GlifName: m
Width: 813
VWidth: 0
Flags: W
AnchorPoint: "bottom" 411 -30 basechar 0
AnchorPoint: "top" 429 440 basechar 0
LayerCount: 2
Back
SplineSet
285 -3 m 256
 325 -3 365 2 400 2 c 256
 435 2 467 -3 507 -3 c 256
 515 -3 523 4 523 12 c 256
 523 22 515 29 504 33 c 256
 485 40 470 43 470 70 c 258
 470 305 l 258
 470 311 472 319 478 323 c 256
 501 339 519 346 544 346 c 256
 579 346 602 316 602 267 c 258
 602 70 l 258
 602 43 588 38 568 33 c 256
 557 30 549 23 549 12 c 256
 549 3 557 -3 565 -3 c 256
 605 -3 640 2 675 2 c 256
 710 2 747 -3 787 -3 c 256
 795 -3 804 3 804 12 c 256
 804 23 795 29 784 33 c 256
 764 40 747 43 747 70 c 258
 747 292 l 258
 747 382 693 436 622 436 c 256
 560 436 520 409 475 367 c 257
 474 368 473 376 473 382 c 256
 473 401 478 427 478 438 c 256
 478 444 477 451 468 451 c 256
 463 451 454 445 448 442 c 256
 408 422 339 402 294 392 c 257
 287 390 284 383 284 374 c 256
 284 362 290 356 295 355 c 256
 317 351 325 329 325 303 c 258
 325 71 l 258
 325 44 308 38 288 33 c 256
 277 30 265 23 265 12 c 256
 265 3 277 -3 285 -3 c 256
EndSplineSet
Fore
SplineSet
40 -3 m 256
 80 -3 116 2 151 2 c 256
 186 2 212 -3 252 -3 c 256
 260 -3 268 4 268 12 c 256
 268 22 260 29 249 33 c 257
 229 39 225 47 225 70 c 258
 225 292 l 258
 225 308 227 318 235 324 c 256
 256 339 275 345 289 345 c 256
 319 344 338 316 338 267 c 258
 338 63 l 258
 338 44 331 38 314 33 c 257
 303 29 295 23 295 12 c 256
 295 3 303 -3 311 -3 c 256
 351 -3 376 2 411 2 c 256
 446 2 473 -3 513 -3 c 256
 521 -3 530 3 530 12 c 256
 530 23 521 29 510 33 c 257
 490 39 483 43 483 70 c 258
 483 288 l 258
 483 305 485 315 494 323 c 256
 512 339 532 346 546 346 c 256
 576 345 596 316 596 267 c 258
 596 63 l 258
 596 44 589 38 572 33 c 257
 561 29 553 23 553 12 c 256
 553 3 561 -3 569 -3 c 256
 609 -3 634 2 669 2 c 256
 704 2 741 -3 781 -3 c 256
 789 -3 798 3 798 12 c 256
 798 23 789 29 778 33 c 257
 758 39 741 43 741 70 c 258
 741 292 l 258
 741 384 690 436 628 436 c 256
 566 436 518 407 479 357 c 257
 474 357 l 257
 458 401 419 436 379 436 c 256
 321 436 275 410 232 368 c 257
 230 368 l 257
 229 369 228 374 228 380 c 256
 228 399 233 428 233 439 c 256
 233 446 230 451 223 451 c 256
 219 451 215 448 210 445 c 256
 172 424 98 404 50 392 c 256
 42 390 39 385 39 374 c 256
 39 360 45 356 51 355 c 256
 73 351 80 329 80 303 c 258
 80 71 l 258
 80 44 63 39 43 33 c 257
 32 29 20 23 20 12 c 256
 20 3 32 -3 40 -3 c 256
EndSplineSet
Validated: 9
PickledDataWithLists: "(dp0
Vcom.schriftgestaltung.Glyphs.glyph.leftMetricsKey
p1
Vn
p2
sVcom.schriftgestaltung.Glyphs.glyph.rightMetricsKey
p3
g2
sVpublic.markColor
p4
V0.67,0.95,0.38,1
p5
s."
Substitution2: "'ss01' Style Set 1 lookup 29 subtable" M.pc
Substitution2: "'pcap' Lowercase to Petite Capitals lookup 24 subtable" m.pc
Substitution2: "'smcp' Lowercase to Small Capitals lookup 22 subtable" m.sc
Substitution2: "'ordn' Ordinals lookup 15 subtable" m.ordn
Substitution2: "'sups' Superscript lookup 9 subtable" m.sups
Substitution2: "'sinf' Scientific Inferiors lookup 8 subtable" m.sinf
Substitution2: "'subs' Subscript lookup 7 subtable" m.subs
Comment: "+AAoA-m+AAoA"
EndChar
StartChar: n
Encoding: 1136 110 1135
GlifName: n
Width: 574
VWidth: 0
Flags: W
AnchorPoint: "bottom" 290 -30 basechar 0
AnchorPoint: "top" 298 440 basechar 0
LayerCount: 2
Back
SplineSet
40 -3 m 256
 80 -3 120 2 155 2 c 256
 190 2 222 -3 262 -3 c 256
 270 -3 278 4 278 12 c 256
 278 22 270 29 259 33 c 256
 240 40 225 43 225 70 c 258
 225 267 l 258
 225 299 229 318 240 327 c 256
 258 341 279 346 299 346 c 256
 334 345 357 316 357 267 c 258
 357 70 l 258
 357 43 343 39 323 33 c 256
 312 29 304 23 304 12 c 256
 304 3 312 -3 320 -3 c 256
 360 -3 395 2 430 2 c 256
 465 2 502 -3 542 -3 c 256
 550 -3 559 3 559 12 c 256
 559 23 550 29 539 33 c 256
 519 39 502 43 502 70 c 258
 502 292 l 258
 502 373 454 437 390 437 c 256
 328 437 277 409 230 367 c 257
 229 368 228 376 228 382 c 256
 228 401 233 427 233 438 c 256
 233 444 232 451 223 451 c 256
 218 451 209 445 203 442 c 256
 163 422 94 402 49 392 c 257
 42 390 39 383 39 374 c 256
 39 362 45 356 50 355 c 256
 72 351 80 329 80 303 c 258
 80 71 l 258
 80 44 63 39 43 33 c 256
 32 29 20 23 20 12 c 256
 20 3 32 -3 40 -3 c 256
EndSplineSet
Fore
SplineSet
40 -3 m 256
 80 -3 120 2 155 2 c 256
 190 2 222 -3 262 -3 c 256
 270 -3 278 4 278 12 c 256
 278 22 270 29 259 33 c 256
 240 40 225 43 225 70 c 258
 225 305 l 258
 225 311 227 319 233 323 c 256
 256 339 274 346 299 346 c 256
 334 346 357 316 357 267 c 258
 357 70 l 258
 357 43 343 39 323 33 c 256
 312 29 304 23 304 12 c 256
 304 3 312 -3 320 -3 c 256
 360 -3 395 2 430 2 c 256
 465 2 502 -3 542 -3 c 256
 550 -3 559 3 559 12 c 256
 559 23 550 29 539 33 c 256
 519 39 502 43 502 70 c 258
 502 292 l 258
 502 382 448 436 377 436 c 256
 315 436 275 409 230 367 c 257
 229 368 228 376 228 382 c 256
 228 401 233 427 233 438 c 256
 233 444 232 451 223 451 c 256
 218 451 209 445 203 442 c 256
 163 422 94 402 49 392 c 257
 42 390 39 383 39 374 c 256
 39 362 45 356 50 355 c 256
 72 351 80 329 80 303 c 258
 80 71 l 258
 80 44 63 39 43 33 c 256
 32 29 20 23 20 12 c 256
 20 3 32 -3 40 -3 c 256
EndSplineSet
Validated: 9
PickledDataWithLists: "(dp0
Vpublic.markColor
p1
V0.67,0.95,0.38,1
p2
s."
Substitution2: "'ss01' Style Set 1 lookup 29 subtable" N.pc
Substitution2: "'pcap' Lowercase to Petite Capitals lookup 24 subtable" n.pc
Substitution2: "'smcp' Lowercase to Small Capitals lookup 22 subtable" n.sc
Substitution2: "'ordn' Ordinals lookup 15 subtable" n.ordn
Substitution2: "'sups' Superscript lookup 9 subtable" n.sups
Substitution2: "'sinf' Scientific Inferiors lookup 8 subtable" n.sinf
Substitution2: "'subs' Subscript lookup 7 subtable" n.subs
Comment: "+AAoA-n+AAoA"
EndChar
StartChar: o
Encoding: 1173 111 1172
GlifName: o
Width: 505
VWidth: 0
Flags: W
AnchorPoint: "bottom" 250 -30 basechar 0
AnchorPoint: "top" 259 440 basechar 0
LayerCount: 2
Back
SplineSet
238 -14 m 256
 401 -14 484 95 484 226 c 256
 484 339 385 437 260 437 c 256
 126 437 21 328 21 197 c 256
 21 74 116 -14 238 -14 c 256
257 33 m 256
 208 33 172 127 172 222 c 256
 172 266 175 318 191 351 c 256
 206 381 223 390 245 390 c 256
 298 390 332 293 332 202 c 256
 332 166 329 118 319 89 c 256
 308 50 284 33 257 33 c 256
EndSplineSet
Fore
SplineSet
238 -14 m 256
 401 -14 484 95 484 226 c 256
 484 339 385 437 260 437 c 256
 126 437 21 328 21 197 c 256
 21 74 116 -14 238 -14 c 256
257 33 m 256
 208 33 172 127 172 222 c 256
 172 299 179 349 202 373 c 256
 213 384 227 390 245 390 c 256
 297 390 332 313 332 202 c 256
 332 135 326 89 310 62 c 256
 298 43 281 33 257 33 c 256
EndSplineSet
Validated: 9
PickledDataWithLists: "(dp0
Vpublic.markColor
p1
V0.67,0.95,0.38,1
p2
s."
Substitution2: "'ss01' Style Set 1 lookup 29 subtable" O.pc
Substitution2: "'pcap' Lowercase to Petite Capitals lookup 24 subtable" o.pc
Substitution2: "'smcp' Lowercase to Small Capitals lookup 22 subtable" o.sc
Substitution2: "'ordn' Ordinals lookup 15 subtable" o.ordn
Substitution2: "'sups' Superscript lookup 9 subtable" o.sups
Substitution2: "'sinf' Scientific Inferiors lookup 8 subtable" o.sinf
Substitution2: "'subs' Subscript lookup 7 subtable" o.subs
Comment: "+AAoA-o+AAoA"
EndChar
StartChar: p
Encoding: 1236 112 1235
GlifName: p
Width: 558
VWidth: 0
Flags: W
AnchorPoint: "top" 295 440 basechar 0
LayerCount: 2
Back
SplineSet
35 -257 m 256
 75 -257 115 -252 150 -252 c 256
 185 -252 237 -257 277 -257 c 256
 286 -257 293 -250 293 -242 c 256
 293 -232 285 -226 271 -222 c 256
 234 -211 219 -201 219 -172 c 258
 219 -11 l 258
 219 -3 220 0 223 0 c 257
 248 -11 284 -19 305 -19 c 256
 435 -19 538 106 538 231 c 256
 538 329 475 428 368 428 c 256
 305 428 229 377 210 357 c 257
 209 358 208 363 208 369 c 256
 208 388 213 416 213 427 c 256
 213 433 212 440 203 440 c 256
 198 440 189 434 183 431 c 256
 143 411 78 391 33 381 c 257
 26 379 21 375 21 363 c 256
 21 350 26 346 34 344 c 257
 59 340 75 316 75 290 c 258
 75 -183 l 258
 75 -204 68 -212 38 -221 c 256
 24 -225 15 -231 15 -242 c 256
 15 -251 25 -257 35 -257 c 256
298 31 m 256
 243 31 219 101 219 141 c 256
 219 163 220 246 220 261 c 256
 221 299 227 317 237 327 c 256
 253 344 271 354 294 354 c 256
 322 354 384 338 384 194 c 256
 384 70 324 31 298 31 c 256
EndSplineSet
Fore
SplineSet
35 -257 m 256
 75 -257 115 -252 150 -252 c 256
 185 -252 237 -257 277 -257 c 256
 286 -257 293 -250 293 -242 c 256
 293 -232 285 -226 271 -222 c 256
 234 -211 219 -201 219 -172 c 258
 219 -11 l 258
 219 -3 220 0 223 0 c 257
 248 -11 284 -19 305 -19 c 256
 435 -19 538 106 538 231 c 256
 538 329 475 428 368 428 c 256
 305 428 229 377 210 357 c 257
 209 358 208 363 208 369 c 256
 208 388 213 416 213 427 c 256
 213 433 212 440 203 440 c 256
 198 440 189 434 183 431 c 256
 143 411 78 391 33 381 c 257
 26 379 21 375 21 363 c 256
 21 350 26 346 34 344 c 257
 59 340 75 316 75 290 c 258
 75 -183 l 258
 75 -204 68 -212 38 -221 c 256
 24 -225 15 -231 15 -242 c 256
 15 -251 25 -257 35 -257 c 256
298 31 m 256
 243 31 219 101 219 141 c 256
 219 163 220 294 220 309 c 256
 220 326 259 354 294 354 c 256
 322 354 384 338 384 194 c 256
 384 70 324 31 298 31 c 256
EndSplineSet
Validated: 9
PickledDataWithLists: "(dp0
Vpublic.markColor
p1
V0.67,0.95,0.38,1
p2
s."
Substitution2: "'ss01' Style Set 1 lookup 29 subtable" P.pc
Substitution2: "'pcap' Lowercase to Petite Capitals lookup 24 subtable" p.pc
Substitution2: "'smcp' Lowercase to Small Capitals lookup 22 subtable" p.sc
Substitution2: "'ordn' Ordinals lookup 15 subtable" p.ordn
Substitution2: "'sups' Superscript lookup 9 subtable" p.sups
Substitution2: "'sinf' Scientific Inferiors lookup 8 subtable" p.sinf
Substitution2: "'subs' Subscript lookup 7 subtable" p.subs
Comment: "+AAoA-p+AAoA"
EndChar
StartChar: q
Encoding: 1301 113 1300
GlifName: q
Width: 539
VWidth: 0
Flags: W
LayerCount: 2
Back
SplineSet
280 -287 m 256
 320 -287 371 -282 406 -282 c 256
 441 -282 479 -287 519 -287 c 256
 529 -287 539 -281 539 -272 c 256
 539 -261 530 -255 516 -251 c 256
 486 -242 479 -234 479 -213 c 257
 477 313 l 258
 477 371 488 407 488 419 c 256
 488 426 482 432 469 432 c 256
 464 432 459 429 453 425 c 256
 442 417 428 412 415 412 c 256
 387 412 338 437 268 437 c 256
 99 437 20 318 20 196 c 256
 20 80 99 -14 207 -14 c 256
 244 -14 284 -1 323 19 c 256
 326 21 329 22 332 24 c 257
 335 24 339 16 339 2 c 258
 338 -202 l 257
 338 -231 323 -241 286 -252 c 256
 272 -256 264 -262 264 -272 c 256
 264 -280 271 -287 280 -287 c 256
267 46 m 256
 201 46 174 143 174 223 c 256
 174 313 203 392 252 392 c 256
 297 392 339 346 339 281 c 256
 339 237 339 192 339 148 c 256
 339 104 334 84 320 71 c 256
 303 56 285 46 267 46 c 256
EndSplineSet
Fore
SplineSet
280 -287 m 256
 320 -287 371 -282 406 -282 c 256
 441 -282 479 -287 519 -287 c 256
 529 -287 539 -281 539 -272 c 256
 539 -261 530 -255 516 -251 c 256
 486 -242 479 -234 479 -213 c 257
 477 313 l 258
 477 371 488 407 488 419 c 256
 488 426 482 432 469 432 c 256
 464 432 459 429 453 425 c 256
 442 417 428 412 415 412 c 256
 387 412 338 437 268 437 c 256
 99 437 20 318 20 196 c 256
 20 80 99 -14 207 -14 c 256
 244 -14 295 13 323 32 c 256
 326 34 329 35 332 37 c 257
 335 37 339 29 339 15 c 258
 338 -202 l 257
 338 -231 323 -241 286 -252 c 256
 272 -256 264 -262 264 -272 c 256
 264 -280 271 -287 280 -287 c 256
267 56 m 256
 201 56 174 143 174 223 c 256
 174 313 203 392 252 392 c 256
 297 392 339 346 339 281 c 256
 339 237 339 125 339 81 c 257
 322 61 291 56 267 56 c 256
EndSplineSet
Validated: 9
PickledDataWithLists: "(dp0
Vpublic.markColor
p1
V0.67,0.95,0.38,1
p2
s."
Substitution2: "'ss01' Style Set 1 lookup 29 subtable" Q.pc
Substitution2: "'pcap' Lowercase to Petite Capitals lookup 24 subtable" q.pc
Substitution2: "'smcp' Lowercase to Small Capitals lookup 22 subtable" q.sc
Substitution2: "'ordn' Ordinals lookup 15 subtable" q.ordn
Substitution2: "'sups' Superscript lookup 9 subtable" q.sups
Substitution2: "'sinf' Scientific Inferiors lookup 8 subtable" q.sinf
Substitution2: "'subs' Subscript lookup 7 subtable" q.subs
Comment: "+AAoA-q+AAoA"
EndChar
StartChar: r
Encoding: 1338 114 1337
GlifName: r
Width: 432
VWidth: 0
Flags: W
AnchorPoint: "bottom" 163 -30 basechar 0
AnchorPoint: "top" 272 440 basechar 0
LayerCount: 2
Back
SplineSet
40 -3 m 256
 80 -3 120 2 155 2 c 256
 190 2 243 -3 283 -3 c 256
 291 -3 299 4 299 12 c 256
 299 22 288 29 277 32 c 256
 239 43 225 53 225 82 c 258
 225 236 l 258
 225 313 252 333 287 333 c 256
 313 333 344 304 372 304 c 256
 403 304 434 355 434 387 c 256
 434 416 410 437 367 437 c 256
 336 437 293 417 257 379 c 256
 249 371 236 346 231 346 c 257
 229 347 228 352 228 358 c 256
 228 377 233 427 233 438 c 256
 233 444 229 451 220 451 c 257
 186 428 101 404 49 392 c 257
 42 390 39 383 39 374 c 256
 39 362 45 356 50 355 c 256
 72 351 80 329 80 303 c 258
 80 71 l 258
 80 44 63 39 43 33 c 257
 32 29 20 23 20 12 c 256
 20 3 32 -3 40 -3 c 256
EndSplineSet
Fore
SplineSet
40 -3 m 256
 80 -3 120 2 155 2 c 256
 190 2 243 -3 283 -3 c 256
 292 -3 299 4 299 12 c 256
 299 22 291 28 277 32 c 256
 240 43 225 53 225 82 c 258
 225 236 l 258
 225 313 252 333 287 333 c 256
 297 333 311 326 325 319 c 256
 339 312 354 304 367 304 c 256
 398 304 429 355 429 387 c 256
 429 416 411 437 362 437 c 256
 311 437 262 387 232 346 c 257
 230 346 228 350 228 356 c 256
 228 375 231 425 231 436 c 256
 231 444 228 448 221 448 c 256
 215 448 203 441 196 437 c 256
 156 418 96 400 52 390 c 256
 43 388 39 383 39 372 c 256
 39 358 46 355 53 353 c 256
 75 346 80 330 80 304 c 258
 80 71 l 258
 80 50 73 42 43 33 c 256
 29 29 20 23 20 12 c 256
 20 3 30 -3 40 -3 c 256
EndSplineSet
Validated: 9
PickledDataWithLists: "(dp0
Vpublic.markColor
p1
V0.67,0.95,0.38,1
p2
s."
Substitution2: "'ss01' Style Set 1 lookup 29 subtable" R.pc
Substitution2: "'pcap' Lowercase to Petite Capitals lookup 24 subtable" r.pc
Substitution2: "'smcp' Lowercase to Small Capitals lookup 22 subtable" r.sc
Substitution2: "'ordn' Ordinals lookup 15 subtable" r.ordn
Substitution2: "'sups' Superscript lookup 9 subtable" r.sups
Substitution2: "'sinf' Scientific Inferiors lookup 8 subtable" r.sinf
Substitution2: "'subs' Subscript lookup 7 subtable" r.subs
Comment: "+AAoA-r+AAoA"
EndChar
StartChar: s
Encoding: 1360 115 1359
GlifName: s
Width: 368
VWidth: 0
Flags: W
AnchorPoint: "bottom" 188 -30 basechar 0
AnchorPoint: "top" 202 440 basechar 0
LayerCount: 2
Back
SplineSet
170 -14 m 256
 284 -14 342 37 342 127 c 256
 342 199 308 233 220 279 c 256
 184 298 153 317 153 344 c 256
 153 370 178 391 208 391 c 256
 240 391 264 365 287 317 c 256
 290 310 302 301 312 301 c 256
 324 301 332 306 332 312 c 256
 332 360 326 401 315 415 c 257
 300 424 256 437 211 437 c 256
 120 437 45 385 45 304 c 256
 45 224 107 184 163 157 c 256
 196 141 230 119 230 85 c 256
 230 59 213 34 179 34 c 256
 129 34 100 83 74 137 c 256
 71 144 62 154 50 154 c 256
 38 154 29 149 29 141 c 256
 27 89 33 40 46 19 c 257
 82 -5 125 -14 170 -14 c 256
EndSplineSet
Fore
SplineSet
170 -14 m 256
 284 -14 342 37 342 127 c 256
 342 199 308 233 220 279 c 256
 184 298 152 319 152 346 c 256
 152 376 179 397 209 397 c 256
 241 397 269 370 287 317 c 256
 289 310 302 301 312 301 c 256
 324 301 332 306 332 312 c 256
 332 360 326 401 315 415 c 257
 300 424 256 437 211 437 c 256
 120 437 45 385 45 304 c 256
 45 224 107 184 163 157 c 256
 196 141 230 119 230 85 c 256
 230 59 213 34 179 34 c 256
 129 34 100 83 74 137 c 256
 71 144 62 154 50 154 c 256
 38 154 29 149 29 141 c 256
 27 89 33 40 46 19 c 257
 82 -5 125 -14 170 -14 c 256
EndSplineSet
Validated: 41
PickledDataWithLists: "(dp0
Vpublic.markColor
p1
V0.67,0.95,0.38,1
p2
s."
Substitution2: "'ss07' Style Set 7 lookup 36 subtable" longs
Substitution2: "'ss01' Style Set 1 lookup 29 subtable" S.pc
Substitution2: "'pcap' Lowercase to Petite Capitals lookup 24 subtable" s.pc
Substitution2: "'smcp' Lowercase to Small Capitals lookup 22 subtable" s.sc
Substitution2: "'hist' Historical Forms lookup 20 subtable" longs
Substitution2: "'ordn' Ordinals lookup 15 subtable" s.ordn
Substitution2: "'sups' Superscript lookup 9 subtable" s.sups
Substitution2: "'sinf' Scientific Inferiors lookup 8 subtable" s.sinf
Substitution2: "'subs' Subscript lookup 7 subtable" s.subs
Comment: "+AAoA-s+AAoA"
EndChar
StartChar: t
Encoding: 1431 116 1430
GlifName: t
Width: 388
VWidth: 0
Flags: W
AnchorPoint: "bottom" 226 -30 basechar 0
AnchorPoint: "top" 176 480 basechar 0
LayerCount: 2
Back
SplineSet
226 -14 m 256
 306 -14 380 41 380 53 c 256
 380 65 376 75 369 75 c 256
 366 75 364 74 362 73 c 256
 347 67 334 57 297 57 c 256
 258 57 233 86 233 149 c 258
 233 336 l 258
 233 353 244 361 273 361 c 258
 365 361 l 258
 372 361 378 383 378 404 c 256
 378 411 373 423 370 423 c 258
 250 423 l 258
 234 423 222 428 225 445 c 258
 234 509 l 258
 236 527 231 531 218 531 c 256
 207 531 200 526 191 517 c 256
 158 487 80 424 31 408 c 256
 26 406 25 402 25 399 c 256
 25 386 33 364 42 364 c 258
 57 364 l 258
 79 363 88 358 88 346 c 258
 88 116 l 258
 88 33 133 -14 226 -14 c 256
EndSplineSet
Fore
SplineSet
226 -14 m 256
 306 -14 380 41 380 53 c 256
 380 65 376 75 369 75 c 256
 366 75 364 74 362 73 c 256
 347 67 334 57 297 57 c 256
 258 57 233 86 233 149 c 258
 233 336 l 258
 233 353 244 361 273 361 c 258
 365 361 l 258
 372 361 378 383 378 404 c 256
 378 411 373 423 370 423 c 258
 250 423 l 258
 234 423 223 428 225 445 c 258
 232 507 l 258
 234 525 229 529 216 529 c 256
 205 529 199 523 189 515 c 256
 155 486 80 424 31 408 c 256
 26 406 25 402 25 399 c 256
 25 386 33 364 42 364 c 258
 57 364 l 258
 79 363 88 358 88 346 c 258
 88 116 l 258
 88 33 133 -14 226 -14 c 256
EndSplineSet
Validated: 41
PickledDataWithLists: "(dp0
Vpublic.markColor
p1
V0.67,0.95,0.38,1
p2
s."
Substitution2: "'ss01' Style Set 1 lookup 29 subtable" T.pc
Substitution2: "'pcap' Lowercase to Petite Capitals lookup 24 subtable" t.pc
Substitution2: "'smcp' Lowercase to Small Capitals lookup 22 subtable" t.sc
Substitution2: "'ordn' Ordinals lookup 15 subtable" t.ordn
Substitution2: "'sups' Superscript lookup 9 subtable" t.sups
Substitution2: "'sinf' Scientific Inferiors lookup 8 subtable" t.sinf
Substitution2: "'subs' Subscript lookup 7 subtable" t.subs
Comment: "+AAoA-t+AAoA"
EndChar
StartChar: u
Encoding: 1493 117 1492
GlifName: u
Width: 556
VWidth: 0
Flags: W
AnchorPoint: "bottom" 277 -30 basechar 0
AnchorPoint: "top" 289 440 basechar 0
LayerCount: 2
Back
SplineSet
337 -21 m 256
 345 -21 363 -16 368 -14 c 256
 406 1 463 21 530 27 c 256
 545 28 548 37 548 50 c 256
 548 61 541 69 528 69 c 256
 524 69 509 70 504 70 c 256
 495 70 486 76 486 106 c 258
 486 338 l 258
 486 356 491 410 496 417 c 257
 501 427 493 437 482 437 c 258
 480 437 l 257
 442 427 399 421 290 415 c 257
 277 415 265 409 265 394 c 256
 265 378 274 372 290 371 c 256
 324 369 341 347 341 314 c 258
 341 158 l 258
 341 124 333 105 327 98 c 257
 310 81 289 76 271 76 c 256
 238 77 215 106 215 155 c 258
 215 346 l 258
 215 376 217 392 223 423 c 257
 224 433 217 438 204 437 c 257
 145 422 98 411 30 407 c 256
 20 406 15 398 15 389 c 256
 15 377 23 371 31 370 c 256
 62 365 70 345 70 314 c 258
 70 130 l 258
 70 49 118 -15 180 -15 c 256
 241 -15 292 8 336 54 c 257
 337 53 338 48 338 42 c 256
 338 22 333 -1 333 -16 c 256
 333 -20 332 -21 337 -21 c 256
EndSplineSet
Fore
SplineSet
342 -21 m 256
 350 -21 359 -18 369 -14 c 256
 407 1 463 21 530 27 c 256
 545 28 548 37 548 50 c 256
 548 61 541 69 528 69 c 256
 524 69 509 70 504 70 c 256
 495 70 486 76 486 106 c 258
 486 338 l 258
 486 356 491 400 493 408 c 256
 495 415 497 420 497 425 c 256
 497 433 491 437 482 437 c 256
 478 437 472 435 468 434 c 256
 430 425 399 422 290 415 c 256
 277 415 265 409 265 394 c 256
 265 378 274 372 290 371 c 256
 324 369 341 347 341 314 c 258
 341 158 l 258
 341 124 333 105 327 98 c 257
 310 81 289 76 271 76 c 256
 238 77 215 106 215 155 c 258
 215 346 l 258
 215 376 217 392 223 423 c 257
 224 433 218 437 210 437 c 256
 202 437 193 434 186 432 c 256
 136 420 89 410 30 407 c 256
 20 406 15 398 15 389 c 256
 15 377 23 371 31 370 c 256
 62 365 70 345 70 314 c 258
 70 130 l 258
 70 49 118 -15 180 -15 c 256
 241 -15 304 23 336 64 c 257
 337 63 338 58 338 52 c 256
 338 38 333 5 333 -11 c 256
 333 -18 337 -21 342 -21 c 256
EndSplineSet
Validated: 9
PickledDataWithLists: "(dp0
Vpublic.markColor
p1
V0.67,0.95,0.38,1
p2
s."
Substitution2: "'ss01' Style Set 1 lookup 29 subtable" U.pc
Substitution2: "'pcap' Lowercase to Petite Capitals lookup 24 subtable" u.pc
Substitution2: "'smcp' Lowercase to Small Capitals lookup 22 subtable" u.sc
Substitution2: "'ordn' Ordinals lookup 15 subtable" u.ordn
Substitution2: "'sups' Superscript lookup 9 subtable" u.sups
Substitution2: "'sinf' Scientific Inferiors lookup 8 subtable" u.sinf
Substitution2: "'subs' Subscript lookup 7 subtable" u.subs
Substitution2: "'locl' Localized Forms in Latin lookup 5 subtable" u.LAT
Comment: "+AAoA-u+AAoA"
EndChar
StartChar: v
Encoding: 3139 118 3138
GlifName: v
Width: 493
VWidth: 0
Flags: W
AnchorPoint: "bottom" 260 -30 basechar 0
AnchorPoint: "top" 279 440 basechar 0
LayerCount: 2
Back
SplineSet
246 -21 m 258
 273 -21 l 257
 284 0 305 50 313 68 c 256
 323 89 335 113 344 135 c 258
 422 333 l 257
 434 364 455 385 480 394 c 256
 493 399 498 404 498 416 c 256
 498 427 482 428 473 428 c 257
 434 426 418 426 402 426 c 256
 385 426 374 427 334 428 c 257
 325 428 310 425 310 414 c 256
 310 402 321 399 332 395 c 256
 346 390 358 375 358 352 c 256
 358 340 354 323 351 312 c 257
 299 173 l 257
 298 173 297 173 296 173 c 257
 237 320 l 258
 233 331 233 341 233 353 c 256
 233 377 242 390 257 396 c 257
 268 401 279 403 279 415 c 256
 279 426 264 429 255 429 c 256
 206 429 177 423 134 423 c 256
 90 423 79 429 30 429 c 256
 21 429 5 428 5 417 c 256
 5 405 10 400 23 395 c 256
 48 386 60 364 74 334 c 256
 110 257 146 185 181 108 c 256
 192 83 206 48 217 24 c 256
 229 -3 236 -21 246 -21 c 258
EndSplineSet
Fore
SplineSet
246 -21 m 258
 273 -21 l 257
 284 0 305 50 313 68 c 256
 323 89 335 113 344 135 c 258
 422 333 l 257
 434 364 455 385 480 394 c 256
 493 399 498 404 498 416 c 256
 498 427 482 428 473 428 c 257
 434 426 418 426 402 426 c 256
 385 426 374 427 334 428 c 257
 325 428 310 425 310 414 c 256
 310 402 321 399 332 395 c 256
 354 387 365 368 365 345 c 256
 365 336 364 325 360 315 c 258
 304 165 l 257
 303 165 302 165 301 165 c 257
 237 320 l 258
 232 331 233 341 233 353 c 256
 233 377 242 390 257 396 c 257
 268 401 279 403 279 415 c 256
 279 426 264 429 255 429 c 256
 206 429 177 423 134 423 c 256
 90 423 79 429 30 429 c 256
 21 429 5 428 5 417 c 256
 5 405 10 400 23 395 c 256
 48 386 60 364 74 334 c 256
 110 257 146 185 181 108 c 256
 192 83 206 48 217 24 c 256
 229 -3 236 -21 246 -21 c 258
EndSplineSet
Guideline: "" "" 297 293 90 0 0
Validated: 41
PickledDataWithLists: "(dp0
Vpublic.markColor
p1
V0.67,0.95,0.38,1
p2
s."
Substitution2: "'ss01' Style Set 1 lookup 29 subtable" V.pc
Substitution2: "'pcap' Lowercase to Petite Capitals lookup 24 subtable" v.pc
Substitution2: "'smcp' Lowercase to Small Capitals lookup 22 subtable" v.sc
Substitution2: "'ordn' Ordinals lookup 15 subtable" v.ordn
Substitution2: "'sups' Superscript lookup 9 subtable" v.sups
Substitution2: "'sinf' Scientific Inferiors lookup 8 subtable" v.sinf
Substitution2: "'subs' Subscript lookup 7 subtable" v.subs
Substitution2: "'locl' Localized Forms in Latin lookup 5 subtable" v.LAT
Comment: "+AAoA-v+AAoA"
EndChar
StartChar: w
Encoding: 119 119 21
Width: 747
Flags: W
HStem: 378 27
VStem: 325 69<303.5 354> 575 115<321.5 400>
LayerCount: 3
Back
SplineSet
310 329 m 8
 295 355 280 366 253 381 c 8
 245 386 243 405 253 405 c 8
 288 405 308 400 344 400 c 24
 380 400 415 405 436 405 c 0
 445 405 444 386 436 381 c 8
 419 372 403 373 394 357 c 24
 385 342 390 328 397 312 c 18
 467 136 l 2
 483 94 484 110 495 138 c 2
 558 295 l 10
 566 316 572 327 564 352 c 0
 559 367 535 373 521 381 c 8
 513 386 513 405 521 405 c 8
 553 405 575 400 603 400 c 8
 630 400 646 405 673 405 c 8
 682 405 680 385 673 381 c 8
 658 373 648 371 636 359 c 16
 625 349 616 331 608 311 c 26
 469 -16 l 2
 465 -25 455 -25 452 -16 c 2
 348 242 l 2
 342 256 341 255 335 241 c 2
 226 -16 l 2
 222 -25 207 -25 204 -16 c 2
 65 329 l 10
 53 358 32 366 5 381 c 8
 -3 386 -5 405 5 405 c 8
 40 405 60 400 96 400 c 24
 131 400 166 405 187 405 c 0
 196 405 195 386 187 381 c 8
 170 372 153 374 145 357 c 24
 137 341 147 329 154 312 c 18
 224 136 l 2
 240 94 240 110 252 138 c 2
 311 278 l 2
 325 313 310 329 310 329 c 8
EndSplineSet
Fore
SplineSet
368 258 m 2
 305 123 l 2
 286 83 255 -22 238 -22 c 0
 225 -22 213 8 209 17 c 2
 64 329 l 2
 53 353 38 361 18 367 c 0
 7 371 -5 377 -5 390 c 0
 -5 400 8 405 15 405 c 0
 54 405 74 400 109 400 c 0
 144 400 169 405 208 405 c 0
 215 405 228 399 228 391 c 0
 228 381 216 371 205 367 c 0
 191 363 174 356 174 337 c 0
 174 328 181 316 184 308 c 2
 260 144 l 2
 264 135 269 139 276 154 c 2
 342 295 l 2
 347.090393073 305.866825588 352.648800879 319.030614343 348 329 c 0
 335.562344557 355.672638172 322 361 302 367 c 0
 291 371 279 377 279 390 c 0
 279 400 292 405 299 405 c 0
 338 405 358 400 393 400 c 0
 428 400 453 405 492 405 c 0
 499 405 512 399 512 391 c 0
 512 381 500 371 489 367 c 0
 475 363 458 356 458 337 c 0
 458 328 465 316 468 308 c 2
 544 144 l 2
 548 135 553 139 560 154 c 2
 626 295 l 2
 631 308 638 320 638 331 c 0
 638 356 627 364 613 368 c 0
 602 372 590 381 590 391 c 0
 590 399 603 405 610 405 c 0
 625 405 648 400 683 400 c 0
 718 400 723 405 742 405 c 0
 749 405 762 399 762 391 c 0
 762 381 750 372 739 368 c 0
 719 362 692 343 677 311 c 2
 589 123 l 2
 570 83 539 -22 522 -22 c 0
 509 -22 497 8 493 17 c 2
 383 254 l 2
 377.94757024 264.884528171 372.648800879 267.969385657 368 258 c 2
EndSplineSet
Substitution2: "Smallcaps subtable" w.sc
Substitution2: "sups subtable" w.sups
Substitution2: "sinf subtable" w.sinf
Substitution2: "ordn subtable" w.ordn
Substitution2: "subs subtable" w.subs
EndChar
StartChar: x
Encoding: 3165 120 3164
GlifName: x
Width: 521
VWidth: 0
Flags: W
AnchorPoint: "top" 299 440 basechar 0
LayerCount: 2
Back
SplineSet
248 -5 m 256
 297 -5 326 1 369 1 c 256
 413 1 442 -5 491 -5 c 256
 500 -5 516 -4 516 7 c 256
 516 19 511 24 498 29 c 256
 473 38 446 61 429 90 c 258
 350 217 l 258
 347 222 344 226 344 231 c 256
 344 234 347 241 351 247 c 258
 425 353 l 258
 450 388 463 397 476 402 c 256
 489 407 494 412 494 424 c 256
 494 435 478 436 469 436 c 257
 430 434 414 434 398 434 c 256
 381 434 375 435 335 436 c 256
 326 436 311 433 311 422 c 256
 311 410 322 408 333 403 c 256
 347 397 352 387 352 372 c 256
 352 356 343 338 336 328 c 258
 304 280 l 257
 303 278 302 276 300 276 c 256
 298 276 296 278 295 280 c 257
 252 347 l 258
 235 374 247 394 270 403 c 257
 281 408 292 410 292 422 c 256
 292 433 277 436 268 436 c 256
 219 436 199 430 156 430 c 256
 112 430 101 436 52 436 c 256
 43 436 27 435 27 424 c 256
 27 412 32 407 45 402 c 256
 67 394 78 377 95 350 c 258
 168 237 l 258
 171 232 173 228 173 224 c 256
 173 220 171 216 167 211 c 257
 74 80 l 258
 49 45 36 36 23 31 c 256
 10 26 5 21 5 9 c 256
 5 -2 21 -3 30 -3 c 257
 69 -1 85 -1 101 -1 c 256
 118 -1 124 -2 164 -3 c 256
 173 -3 188 0 188 11 c 256
 188 23 177 25 166 30 c 256
 152 36 147 46 147 61 c 256
 147 77 156 95 163 105 c 258
 213 176 l 257
 214 177 215 177 216 177 c 256
 217 177 218 177 219 176 c 257
 256 119 l 258
 268 100 270 83 270 71 c 256
 270 47 261 34 246 28 c 257
 235 23 224 21 224 9 c 256
 224 -2 239 -5 248 -5 c 256
EndSplineSet
Fore
SplineSet
30 -4 m 257
 69 -2 85 -2 101 -2 c 256
 118 -2 124 -3 164 -4 c 256
 173 -4 188 -1 188 10 c 256
 188 22 177 24 166 29 c 256
 152 35 147 45 147 60 c 256
 147 76 157 94 163 104 c 258
 206 183 l 257
 207 184 211 184 212 183 c 257
 261 113 l 258
 273 96 274 87 274 73 c 256
 274 46 262 37 245 32 c 256
 232 28 223 25 223 13 c 256
 223 5 231 -1 247 -1 c 256
 296 -1 325 5 368 5 c 256
 412 5 441 -1 490 -1 c 256
 499 -1 515 0 515 11 c 256
 515 23 510 28 497 33 c 256
 472 42 446 66 428 94 c 258
 347 220 l 258
 340 231 337 235 348 250 c 258
 422 346 l 258
 449 381 460 390 473 395 c 256
 486 400 491 405 491 417 c 256
 491 428 475 429 466 429 c 256
 427 427 418 426 402 426 c 256
 385 426 372 426 334 427 c 256
 325 427 310 424 310 413 c 256
 310 401 319 399 330 394 c 256
 343 389 349 382 349 370 c 256
 350 355 343 336 335 321 c 258
 309 273 l 257
 306 267 302 269 300 273 c 257
 254 340 l 258
 247 351 241 362 241 370 c 256
 241 385 256 391 270 396 c 256
 281 401 294 403 294 415 c 256
 294 426 279 429 270 429 c 256
 221 429 201 423 158 423 c 256
 114 423 103 429 54 429 c 256
 45 429 29 428 29 417 c 256
 29 405 34 400 47 395 c 256
 69 387 79 370 97 343 c 258
 171 235 l 258
 178 224 178 219 170 209 c 257
 74 79 l 258
 48 44 36 35 23 30 c 256
 10 25 5 20 5 8 c 256
 5 -3 21 -4 30 -4 c 257
EndSplineSet
Validated: 41
PickledDataWithLists: "(dp0
Vpublic.markColor
p1
V0.67,0.95,0.38,1
p2
s."
Substitution2: "'ss01' Style Set 1 lookup 29 subtable" X.pc
Substitution2: "'pcap' Lowercase to Petite Capitals lookup 24 subtable" x.pc
Substitution2: "'smcp' Lowercase to Small Capitals lookup 22 subtable" x.sc
Substitution2: "'ordn' Ordinals lookup 15 subtable" x.ordn
Substitution2: "'sups' Superscript lookup 9 subtable" x.sups
Substitution2: "'sinf' Scientific Inferiors lookup 8 subtable" x.sinf
Substitution2: "'subs' Subscript lookup 7 subtable" x.subs
Comment: "+AAoA-x+AAoA"
EndChar
StartChar: y
Encoding: 121 121 24
Width: 498
VWidth: 0
Flags: HW
AnchorPoint: "top_accent" 259 548 basechar 0
LayerCount: 3
Back
SplineSet
188 5 m 2
 65 329 l 10
 54 358 32 366 5 381 c 8
 -3 386 -5 405 5 405 c 8
 40 405 60 400 96 400 c 24
 131 400 166 405 187 405 c 0
 196 405 195 386 187 381 c 8
 170 372 153 374 145 357 c 24
 137 341 147 329 154 312 c 18
 224 136 l 2
 240 94 241 110 252 138 c 2
 315 295 l 10
 323 316 321 328 313 353 c 0
 308 368 292 373 278 381 c 8
 270 386 270 405 278 405 c 8
 310 405 332 400 360 400 c 8
 387 400 403 405 430 405 c 8
 439 405 437 385 430 381 c 8
 415 373 405 371 393 359 c 16
 382 349 370 332 362 311 c 26
 226 -13 l 2
 222 -22 171 -148 130 -244 c 0
 118 -271 94 -285 65 -285 c 8
 40 -285 14 -271 14 -249 c 8
 14 -234 20 -220 39 -219 c 0
 65 -218 88 -236 100 -214 c 0
 143 -133 157 -107 186 -30 c 0
 191 -17 193 -9 188 5 c 2
EndSplineSet
Fore
SplineSet
226 -14 m 0
 228 -9 230 0 230 8 c 0
 230 18.672 228.788 27.4241 225 35 c 2
 86 325 l 2
 74 348 57 367 33 373 c 0
 20 377 4 380 4 393 c 0
 4 405 22 405 29 405 c 0
 77 405 74 400 116 400 c 0
 158 400 159 405 207 405 c 0
 216 405 232 403 232 391 c 0
 232 377 218 370 211 367 c 0
 201 363 197 355 197 338 c 0
 197 332 201 319 203 312 c 2
 258 117 l 1
 258 116 l 1
 261 106 263 105 266 113 c 0
 266 114 268 116 268 118 c 2
 315 295 l 2
 318 304 320 321 320 330 c 0
 320 353 315 360 307 365 c 0
 300 370 286 377 286 391 c 0
 286 403 304 405 312 405 c 0
 335 405 355 400 402 400 c 0
 449 400 449 405 477 405 c 0
 485 405 504 405 504 393 c 0
 504 379 490 377 480 373 c 0
 460 367 434 338 421 307 c 2
 283 -14 l 2
 279 -23 228 -149 186 -244 c 1
 168 -272 132 -285 88 -285 c 0
 53 -285 10 -272 10 -246 c 0
 10 -228 20 -214 44 -214 c 0
 62 -214 80 -220 93 -220 c 0
 103 -220 109 -218 115 -210 c 0
 140 -175 191 -90 226 -14 c 0
EndSplineSet
Substitution2: "Smallcaps subtable" y.sc
Substitution2: "sups subtable" y.sups
Substitution2: "sinf subtable" y.sinf
Substitution2: "ordn subtable" y.ordn
Substitution2: "subs subtable" y.subs
EndChar

StartChar: z
Encoding: 122 122 65
Width: 377
VWidth: 0
Flags: HW
AnchorPoint: "below_accent" 125 -100 basechar 0
AnchorPoint: "top_accent" 141 550 basechar 0
LayerCount: 3
Fore
SplineSet
226 322 m 0
 233 333 239 344 247 356 c 1
 248 356 l 1
 249 357 249 358 249 359 c 0
 248 360 245 361 239 361 c 2
 122 361 l 2
 104 361 90 335 70 309 c 0
 65 303 53 284 43 284 c 0
 33 284 36 310 36 310 c 1
 44 328 53 374 53 398 c 0
 53 411 65 419 69 419 c 0
 72 419 78 414 84 409 c 0
 90 404 109 404 127 404 c 0
 142 404 156 404 165 404 c 0
 234 404 290 406 351 408 c 0
 355 408 363 398 358 391 c 0
 344 374 335 361 321 341 c 2
 128 48 l 2
 125 43 132 38 139 38 c 2
 256 38 l 2
 286 38 311 71 341 114 c 0
 344 119 352 139 364 139 c 0
 374 139 373 116 373 113 c 0
 373 103 350 24 345 8 c 0
 343 1 336 -8 330 -8 c 0
 301 -8 228 -2 119 -2 c 0
 91 -2 56 -8 39 -8 c 0
 34 -8 24 4 24 12 c 0
 24 20 48 53 62 72 c 0
 122 158 165 225 226 322 c 0
EndSplineSet
Substitution2: "Smallcaps subtable" z.sc
Substitution2: "sups subtable" z.sups
Substitution2: "sinf subtable" z.sinf
Substitution2: "ordn subtable" z.ordn
Substitution2: "subs subtable" z.subs
EndChar
StartChar: braceleft
Encoding: 613 123 612
GlifName: braceleft
Width: 372
VWidth: 0
Flags: W
LayerCount: 2
Back
SplineSet
335 -152 m 256
 349 -152 361 -151 361 -137 c 256
 361 -123 343 -118 327 -115 c 256
 267 -105 249 -88 249 -24 c 256
 249 9 276 87 276 130 c 256
 276 197 234 244 133 279 c 256
 130 280 126 282 131 283 c 256
 204 298 271 353 271 424 c 256
 271 467 247 545 247 578 c 256
 247 629 255 652 323 673 c 256
 339 678 362 682 362 696 c 256
 362 710 355 714 333 714 c 256
 223 714 125 653 133 559 c 256
 137 509 155 461 155 406 c 256
 155 335 114 324 77 306 c 257
 65 301 45 296 45 280 c 256
 45 264 62 263 77 257 c 256
 143 231 160 209 160 157 c 256
 160 102 139 31 135 -19 c 256
 127 -113 218 -152 335 -152 c 256
EndSplineSet
Fore
SplineSet
335 -152 m 256
 349 -152 361 -151 361 -137 c 256
 361 -123 343 -118 327 -115 c 256
 267 -105 258 -88 258 -24 c 256
 258 9 285 87 285 130 c 256
 285 197 234 244 133 279 c 256
 130 280 126 282 131 283 c 256
 204 298 281 353 281 424 c 256
 281 467 257 545 257 578 c 256
 257 629 255 652 323 673 c 256
 339 678 362 682 362 696 c 256
 362 710 355 714 333 714 c 256
 223 714 116 653 124 559 c 256
 128 509 146 461 146 406 c 256
 146 335 114 324 77 306 c 257
 65 301 45 296 45 280 c 256
 45 264 62 263 77 257 c 256
 143 231 151 209 151 157 c 256
 151 102 130 31 126 -19 c 256
 118 -113 218 -152 335 -152 c 256
EndSplineSet
Validated: 41
PickledDataWithLists: "(dp0
Vpublic.markColor
p1
V0.67,0.95,0.38,1
p2
s."
Substitution2: "'smcp' Lowercase to Small Capitals lookup 22 subtable" braceleft.sc
Substitution2: "'c2sc' Capitals to Small Capitals lookup 21 subtable" braceleft.sc
Substitution2: "'ordn' Ordinals lookup 15 subtable" braceleft.ordn
Substitution2: "'sups' Superscript lookup 9 subtable" braceleft.sups
Substitution2: "'sinf' Scientific Inferiors lookup 8 subtable" braceleft.sinf
Substitution2: "'subs' Subscript lookup 7 subtable" braceleft.subs
Comment: "+AAoA-braceleft+AAoA"
EndChar
StartChar: bar
Encoding: 124 124 88
Width: 290
VWidth: 0
Flags: HMW
LayerCount: 3
Fore
SplineSet
99 678 m 2
 99 704 161 712 169 712 c 0
 179 712 191 706 191 696 c 2
 191 -263 l 2
 191 -288 130 -289 118 -289 c 0
 109 -289 99 -283 99 -273 c 2
 99 678 l 2
EndSplineSet
Substitution2: "sups subtable" bar.sups
Substitution2: "sinf subtable" bar.sinf
Substitution2: "ordn subtable" bar.ordn
Substitution2: "subs subtable" bar.subs
EndChar
StartChar: braceright
Encoding: 125 125 109
Width: 337
VWidth: 0
Flags: HMW
LayerCount: 3
Fore
SplineSet
267 281 m 1
 213 299 129 346 129 414 c 0
 129 473 148 520 148 587 c 0
 148 656 101 685 54 685 c 0
 46 685 34 685 34 700 c 0
 34 713 44 718 52 718 c 0
 142 718 248 680 248 582 c 0
 248 511 229 465 229 404 c 0
 229 349 260 310 304 290 c 0
 307 288 313 292 313 282 c 0
 313 272 307 273 304 271 c 0
 260 251 229 212 229 157 c 0
 229 96 248 50 248 -21 c 0
 248 -119 142 -157 52 -157 c 0
 44 -157 34 -152 34 -139 c 0
 34 -124 46 -124 54 -124 c 0
 101 -124 148 -95 148 -26 c 0
 148 41 129 88 129 147 c 0
 129 216 225 272 267 281 c 1
EndSplineSet
Substitution2: "sups subtable" braceright.sups
Substitution2: "sinf subtable" braceright.sinf
Substitution2: "ordn subtable" braceright.ordn
Substitution2: "subs subtable" braceright.subs
EndChar
StartChar: asciitilde
Encoding: 567 126 566
GlifName: asciitilde
Width: 555
VWidth: 0
Flags: W
LayerCount: 2
Back
SplineSet
337 260 m 256
 386 260 450 321 450 362 c 256
 450 375 435 382 430 382 c 256
 425 382 382 319 337 319 c 256
 310 319 285 334 259 350 c 256
 233 365 205 381 171 381 c 256
 101 381 50 306 50 279 c 256
 50 272 61 265 69 265 c 256
 74 265 110 320 160 320 c 256
 189 320 216 306 243 291 c 256
 272 276 302 260 337 260 c 256
EndSplineSet
Fore
SplineSet
371 247 m 256
 443 247 520 335 520 373 c 256
 520 386 512 406 497 406 c 256
 491 406 438 348 385 348 c 256
 347 348 310 366 274 383 c 256
 241 399 208 414 176 414 c 256
 106 414 35 325 35 287 c 256
 35 280 48 254 58 254 c 256
 64 254 117 312 170 312 c 256
 209 312 245 294 280 277 c 256
 311 261 341 247 371 247 c 256
EndSplineSet
Validated: 9
PickledDataWithLists: "(dp0
Vpublic.markColor
p1
V0.67,0.95,0.38,1
p2
s."
Substitution2: "'smcp' Lowercase to Small Capitals lookup 22 subtable" asciitilde.sc
Substitution2: "'c2sc' Capitals to Small Capitals lookup 21 subtable" asciitilde.sc
Substitution2: "'ordn' Ordinals lookup 15 subtable" asciitilde.ordn
Substitution2: "'sups' Superscript lookup 9 subtable" asciitilde.sups
Substitution2: "'sinf' Scientific Inferiors lookup 8 subtable" asciitilde.sinf
Substitution2: "'subs' Subscript lookup 7 subtable" asciitilde.subs
Comment: "+AAoA-asciitilde+AAoA"
EndChar
StartChar: cent
Encoding: 672 162 671
GlifName: cent
Width: 437
VWidth: 0
Flags: W
LayerCount: 2
Back
SplineSet
223 -14 m 256
 333 -14 388 52 415 134 c 256
 418 143 421 154 421 161 c 256
 421 171 417 177 408 177 c 256
 402 177 398 175 393 167 c 256
 375 136 328 116 278 116 c 256
 202 116 142 159 142 253 c 256
 142 331 166 380 230 380 c 256
 265 380 286 370 323 323 c 256
 333 311 345 306 359 306 c 256
 389 305 420 328 420 360 c 256
 420 365 417 372 411 378 c 256
 369 420 310 437 261 437 c 256
 121 437 21 328 21 205 c 256
 21 68 120 -14 223 -14 c 256
207 -82 m 256
 218 -82 229 -74 232 -62 c 257
 288 492 l 258
 289 502 281 514 271 514 c 256
 257 514 243 506 242 492 c 258
 186 -62 l 258
 185 -74 195 -82 207 -82 c 256
EndSplineSet
Fore
SplineSet
206 -105 m 256
 217 -105 228 -97 231 -85 c 257
 237 -14 l 257
 338 -8 389 56 415 134 c 256
 418 143 421 154 421 161 c 256
 421 171 417 177 408 177 c 256
 402 177 398 175 393 167 c 256
 375 136 328 116 278 116 c 256
 268 116 259 117 250 118 c 257
 276 369 l 257
 290 361 304 347 323 323 c 256
 333 311 345 306 359 306 c 256
 389 305 420 328 420 360 c 256
 420 365 417 372 411 378 c 256
 375 414 326 432 282 436 c 257
 289 498 l 258
 290 508 282 520 272 520 c 256
 258 520 244 512 243 498 c 257
 236 436 l 257
 109 424 21 321 21 205 c 256
 21 82 100 4 191 -11 c 257
 185 -85 l 258
 184 -97 194 -105 206 -105 c 256
206 132 m 257
 167 153 142 192 142 253 c 256
 142 331 166 380 230 380 c 258
 231 380 l 257
 206 132 l 257
EndSplineSet
Validated: 41
PickledDataWithLists: "(dp0
Vcom.schriftgestaltung.Glyphs.glyph.leftMetricsKey
p1
Vc
p2
sVcom.schriftgestaltung.Glyphs.glyph.rightMetricsKey
p3
g2
sVpublic.markColor
p4
V0.67,0.95,0.38,1
p5
s."
Substitution2: "'smcp' Lowercase to Small Capitals lookup 22 subtable" cent.sc
Substitution2: "'c2sc' Capitals to Small Capitals lookup 21 subtable" cent.sc
Comment: "+AAoA-cent+AAoA"
EndChar
StartChar: sterling
Encoding: 1428 163 1427
GlifName: sterling
Width: 585
VWidth: 0
Flags: W
LayerCount: 2
Back
SplineSet
49 293 m 258
 337 313 l 258
 352 313 368 332 368 339 c 256
 368 344 362 351 355 351 c 258
 59 331 l 258
 46 330 35 314 35 305 c 256
 35 299 42 293 49 293 c 258
328 -36 m 256
 409 -36 481 28 481 105 c 256
 481 133 463 155 434 158 c 256
 425 159 425 147 425 138 c 257
 426 118 438 106 438 87 c 256
 438 57 411 32 379 32 c 256
 284 34 262 93 143 93 c 256
 136 93 136 100 139 102 c 257
 167 126 222 241 222 337 c 256
 222 502 264 600 330 600 c 256
 364 600 398 560 399 527 c 256
 399 519 398 511 398 505 c 256
 398 496 400 491 410 491 c 256
 423 491 452 520 452 547 c 256
 452 603 418 629 348 629 c 256
 203 628 134 474 134 341 c 256
 134 248 121 140 101 103 c 256
 98 97 96 92 90 91 c 256
 39 81 -6 37 -6 17 c 256
 -6 0 7 -14 24 -14 c 256
 38 -14 52 -9 60 6 c 256
 74 32 98 55 104 55 c 256
 114 55 146 42 168 26 c 256
 223 -12 261 -36 328 -36 c 256
EndSplineSet
Fore
SplineSet
55 293 m 258
 420 318 l 258
 441 319 463 338 463 348 c 256
 463 355 455 366 445 365 c 258
 68 340 l 258
 50 339 35 322 35 310 c 256
 35 301 45 292 55 293 c 258
EndSplineSet
Refer: 240 -1 N 1 0 0 1 0 0 2
Validated: 5
PickledDataWithLists: "(dp0
Vpublic.markColor
p1
V0.67,0.95,0.38,1
p2
s."
Substitution2: "'smcp' Lowercase to Small Capitals lookup 22 subtable" sterling.sc
Substitution2: "'c2sc' Capitals to Small Capitals lookup 21 subtable" sterling.sc
Comment: "+AAoA-sterling+AAoA"
EndChar
StartChar: currency
Encoding: 706 164 705
GlifName: currency
Width: 510
VWidth: 0
Flags: W
LayerCount: 2
Back
SplineSet
242 415 m 256
 321 415 384 349 384 270 c 256
 384 191 321 125 242 125 c 256
 163 125 100 191 100 270 c 256
 100 349 163 415 242 415 c 256
42 434 m 258
 89 387 l 257
 64 355 50 314 50 270 c 256
 50 226 64 185 89 152 c 257
 42 105 l 258
 40 103 39 100 39 97 c 256
 39 84 56 67 69 67 c 256
 72 67 75 68 77 70 c 258
 124 116 l 257
 156 90 197 75 242 75 c 256
 287 75 328 90 360 116 c 257
 406 70 l 258
 408 68 411 67 414 67 c 256
 427 67 445 85 445 98 c 256
 445 101 444 103 442 105 c 258
 395 152 l 257
 420 185 434 226 434 270 c 256
 434 314 420 355 395 388 c 257
 440 433 l 258
 443 436 444 439 444 443 c 256
 444 457 426 473 414 473 c 256
 411 473 408 472 406 470 c 258
 360 424 l 257
 328 450 287 465 242 465 c 256
 197 465 156 449 123 424 c 257
 78 469 l 258
 76 471 73 472 70 472 c 256
 57 472 39 454 39 441 c 256
 39 438 40 436 42 434 c 258
EndSplineSet
Fore
SplineSet
64 42 m 256
 68 42 71 43 73 46 c 257
 128 100 l 257
 165 71 211 54 261 54 c 256
 308 54 352 69 387 95 c 257
 437 46 l 258
 439 44 443 42 446 42 c 256
 463 42 485 64 485 81 c 256
 485 85 484 87 482 90 c 257
 431 140 l 257
 457 175 472 218 472 265 c 256
 472 313 456 358 429 393 c 257
 482 445 l 257
 484 448 485 450 485 454 c 256
 485 471 463 493 446 493 c 256
 443 493 439 491 437 489 c 258
 384 437 l 257
 349 462 307 477 261 477 c 256
 212 477 167 460 131 432 c 257
 73 489 l 257
 71 492 68 493 64 493 c 256
 47 493 25 470 25 455 c 256
 25 450 27 448 29 446 c 258
 88 388 l 257
 64 353 49 311 49 265 c 256
 49 221 63 179 86 146 c 257
 29 89 l 258
 27 87 25 85 25 80 c 256
 25 65 47 42 64 42 c 256
261 115 m 256
 177 115 110 182 110 265 c 256
 110 349 177 416 261 416 c 256
 344 416 411 349 411 265 c 256
 411 182 344 115 261 115 c 256
EndSplineSet
Validated: 9
PickledDataWithLists: "(dp0
Vpublic.markColor
p1
V0.67,0.95,0.38,1
p2
s."
Substitution2: "'smcp' Lowercase to Small Capitals lookup 22 subtable" currency.sc
Substitution2: "'c2sc' Capitals to Small Capitals lookup 21 subtable" currency.sc
Comment: "+AAoA-currency+AAoA"
EndChar
StartChar: yen
Encoding: 3187 165 3186
GlifName: yen
Width: 671
VWidth: 0
Flags: W
LayerCount: 2
Back
SplineSet
152 273 m 258
 513 272 l 258
 534 272 557 295 558 305 c 256
 559 312 551 323 541 323 c 258
 168 325 l 258
 150 325 134 303 133 291 c 256
 132 282 142 273 152 273 c 258
152 181 m 258
 513 180 l 258
 534 180 557 203 558 213 c 256
 559 220 551 231 541 231 c 258
 168 233 l 258
 150 233 134 211 133 199 c 256
 132 190 142 181 152 181 c 258
195 -6 m 256
 239 -6 305 3 345 3 c 256
 384 3 459 -5 501 -5 c 256
 516 -5 527 2 527 12 c 256
 527 25 513 29 498 33 c 256
 446 47 432 60 432 111 c 258
 432 254 l 258
 432 295 445 327 460 353 c 256
 501 421 543 489 584 557 c 256
 600 585 630 609 670 620 c 257
 682 624 696 627 696 640 c 256
 696 653 681 657 666 657 c 256
 626 657 598 649 557 649 c 256
 519 649 488 654 448 654 c 256
 434 654 419 649 419 640 c 256
 419 628 436 619 449 618 c 256
 477 615 505 604 505 577 c 256
 505 565 501 550 495 539 c 256
 464 481 432 424 401 366 c 257
 396 358 391 353 386 353 c 256
 381 353 375 356 370 366 c 257
 280 543 l 257
 273 555 269 568 269 578 c 256
 269 601 285 609 325 618 c 256
 337 621 353 628 353 640 c 256
 353 649 337 655 326 655 c 256
 276 655 237 648 191 648 c 256
 131 648 82 654 19 654 c 256
 9 654 0 649 0 639 c 256
 0 626 10 622 22 618 c 257
 62 607 80 582 98 554 c 258
 229 353 l 258
 248 322 262 296 262 246 c 258
 262 110 l 258
 262 69 247 43 196 33 c 256
 181 30 167 23 167 11 c 256
 167 2 178 -6 195 -6 c 256
EndSplineSet
Fore
SplineSet
195 -6 m 256
 239 -6 305 3 345 3 c 256
 384 3 459 -5 501 -5 c 256
 516 -5 527 2 527 12 c 256
 527 25 513 29 498 33 c 256
 446 47 432 60 432 111 c 258
 432 180 l 257
 513 180 l 258
 534 180 557 203 558 213 c 257
 559 220 551 231 541 231 c 258
 432 232 l 257
 432 272 l 257
 513 272 l 258
 534 272 557 295 558 305 c 257
 559 312 551 323 541 323 c 258
 446 324 l 257
 450 334 455 344 460 353 c 257
 501 421 543 489 584 557 c 256
 600 585 630 609 670 620 c 257
 682 624 696 627 696 640 c 256
 696 653 681 657 666 657 c 256
 626 657 598 649 557 649 c 256
 519 649 488 654 448 654 c 256
 434 654 419 649 419 640 c 256
 419 628 436 619 449 618 c 256
 477 615 505 604 505 577 c 256
 505 565 501 550 495 539 c 256
 464 481 432 424 401 366 c 257
 396 358 391 353 386 353 c 256
 381 353 375 356 370 366 c 258
 280 543 l 257
 273 555 269 568 269 578 c 256
 269 601 285 609 325 618 c 256
 337 621 353 628 353 640 c 256
 353 649 337 655 326 655 c 256
 276 655 237 648 191 648 c 256
 131 648 82 654 19 654 c 256
 9 654 0 649 0 639 c 256
 0 626 10 622 22 618 c 257
 62 607 80 582 98 554 c 258
 245 325 l 257
 168 325 l 258
 150 325 134 303 133 291 c 256
 132 282 142 273 152 273 c 258
 260 273 l 257
 261 265 262 256 262 246 c 258
 262 232 l 257
 168 233 l 258
 150 233 134 211 133 199 c 256
 132 190 142 181 152 181 c 258
 262 181 l 257
 262 110 l 258
 262 69 247 43 196 33 c 256
 181 30 167 23 167 11 c 256
 167 2 178 -6 195 -6 c 256
EndSplineSet
Validated: 9
PickledDataWithLists: "(dp0
Vcom.schriftgestaltung.Glyphs.glyph.leftMetricsKey
p1
VY
p2
sVcom.schriftgestaltung.Glyphs.glyph.rightMetricsKey
p3
g2
sVpublic.markColor
p4
V0.67,0.95,0.38,1
p5
s."
Substitution2: "'smcp' Lowercase to Small Capitals lookup 22 subtable" yen.sc
Substitution2: "'c2sc' Capitals to Small Capitals lookup 21 subtable" yen.sc
Comment: "+AAoA-yen+AAoA"
EndChar
StartChar: brokenbar
Encoding: 638 166 637
GlifName: brokenbar
Width: 281
VWidth: 0
Flags: W
LayerCount: 2
Back
SplineSet
146 179 m 256
 140 179 100 166 100 156 c 258
 100 -276 l 258
 100 -283 106 -290 112 -290 c 256
 121 -290 160 -287 160 -266 c 258
 160 157 l 258
 160 167 153 179 146 179 c 256
112 276 m 256
 121 276 160 287 160 297 c 258
 160 692 l 258
 160 699 153 705 146 705 c 256
 140 705 100 696 100 674 c 258
 100 299 l 258
 100 289 106 276 112 276 c 256
EndSplineSet
Fore
SplineSet
106 -290 m 256
 124 -290 201 -284 201 -242 c 258
 201 159 l 258
 201 173 187 185 173 185 c 256
 161 185 82 167 82 124 c 258
 82 -262 l 258
 82 -276 93 -290 106 -290 c 256
104 251 m 256
 122 251 199 257 199 299 c 258
 199 679 l 258
 199 693 185 705 171 705 c 256
 159 705 80 687 80 644 c 258
 80 279 l 258
 80 265 91 251 104 251 c 256
EndSplineSet
Validated: 9
PickledDataWithLists: "(dp0
Vpublic.markColor
p1
V0.67,0.95,0.38,1
p2
s."
Substitution2: "'smcp' Lowercase to Small Capitals lookup 22 subtable" brokenbar.sc
Substitution2: "'c2sc' Capitals to Small Capitals lookup 21 subtable" brokenbar.sc
Substitution2: "'ordn' Ordinals lookup 15 subtable" brokenbar.ordn
Substitution2: "'sups' Superscript lookup 9 subtable" brokenbar.sups
Substitution2: "'sinf' Scientific Inferiors lookup 8 subtable" brokenbar.sinf
Substitution2: "'subs' Subscript lookup 7 subtable" brokenbar.subs
Comment: "+AAoA-brokenbar+AAoA"
EndChar
StartChar: section
Encoding: 1377 167 1376
GlifName: section
Width: 453
VWidth: 0
Flags: W
LayerCount: 2
Fore
SplineSet
148 -148 m 256
 172 -148 199 -143 221 -134 c 256
 353 -83 423 16 423 151 c 256
 423 260 375 320 313 372 c 256
 248 427 188 481 188 517 c 256
 188 548 202 574 246 574 c 256
 265 574 304 553 328 527 c 257
 335 521 339 519 345 519 c 256
 370 519 397 580 397 587 c 256
 397 598 389 605 381 612 c 257
 366 627 316 640 280 640 c 256
 203 640 136 578 114 500 c 257
 71 460 30 418 30 329 c 256
 30 270 66 212 139 149 c 256
 201 95 275 39 275 -12 c 256
 275 -54 257 -78 224 -78 c 256
 193 -78 154 -66 131 -46 c 257
 124 -41 110 -32 100 -39 c 256
 69 -61 63 -95 63 -106 c 256
 63 -130 99 -148 148 -148 c 256
335 66 m 257
 319 101 244 175 207 211 c 257
 154 259 114 318 114 367 c 256
 114 389 117 414 130 429 c 257
 133 432 138 434 139 429 c 257
 155 394 217 325 254 289 c 257
 307 241 350 183 350 128 c 256
 350 106 349 86 344 66 c 256
 343 62 336 61 335 66 c 257
EndSplineSet
Validated: 41
PickledDataWithLists: "(dp0
Vpublic.markColor
p1
V0.67,0.95,0.38,1
p2
s."
Substitution2: "'smcp' Lowercase to Small Capitals lookup 22 subtable" section.sc
Substitution2: "'c2sc' Capitals to Small Capitals lookup 21 subtable" section.sc
Substitution2: "'ordn' Ordinals lookup 15 subtable" section.ordn
Substitution2: "'sups' Superscript lookup 9 subtable" section.sups
Substitution2: "'sinf' Scientific Inferiors lookup 8 subtable" section.sinf
Substitution2: "'subs' Subscript lookup 7 subtable" section.subs
Comment: "+AAoA-section+AAoA"
EndChar
StartChar: dieresis
Encoding: 733 168 732
GlifName: dieresis
Width: 367
VWidth: 0
Flags: W
AnchorPoint: "top" 185 440 mark 0
LayerCount: 2
Back
SplineSet
70 593 m 256
 45 593 20 568 20 543 c 256
 20 518 45 493 70 493 c 256
 95 493 120 518 120 543 c 256
 120 568 95 593 70 593 c 256
247 593 m 256
 222 593 197 568 197 543 c 256
 197 518 222 493 247 493 c 256
 272 493 297 518 297 543 c 256
 297 568 272 593 247 593 c 256
EndSplineSet
Fore
Refer: 1929 776 N 1 0 0 1 183 0 2
Validated: 9
PickledDataWithLists: "(dp0
Vpublic.markColor
p1
V0.67,0.95,0.38,1
p2
s."
Substitution2: "'smcp' Lowercase to Small Capitals lookup 22 subtable" dieresis.sc
Substitution2: "'c2sc' Capitals to Small Capitals lookup 21 subtable" dieresis.sc
Comment: "+AAoA-dieresis+AAoA"
EndChar
StartChar: copyright
Encoding: 704 169 703
GlifName: copyright
Width: 684
VWidth: 0
Flags: W
LayerCount: 2
Fore
SplineSet
341 15 m 256
 513 15 654 155 654 327 c 256
 654 499 514 639 342 639 c 256
 170 639 30 499 30 327 c 256
 30 155 169 15 341 15 c 256
355 134 m 256
 403 134 441 150 468 164 c 256
 476 168 481 166 484 175 c 257
 491 204 495 219 495 247 c 256
 495 258 489 265 481 267 c 256
 473 270 463 266 458 254 c 256
 439 206 414 188 366 188 c 256
 294 188 271 243 271 331 c 256
 271 399 299 457 366 457 c 256
 400 457 421 444 434 429 c 256
 444 417 448 405 453 390 c 257
 456 379 464 374 472 374 c 256
 482 373 492 381 492 395 c 256
 492 421 492 440 488 472 c 256
 487 481 483 485 475 488 c 257
 448 502 407 512 370 512 c 256
 228 512 152 421 152 321 c 256
 152 211 238 134 355 134 c 256
341 68 m 256
 201 68 89 186 89 327 c 256
 89 466 202 580 342 580 c 256
 482 580 595 466 595 327 c 256
 595 185 483 68 341 68 c 256
EndSplineSet
Validated: 9
PickledDataWithLists: "(dp0
Vpublic.markColor
p1
V0.67,0.95,0.38,1
p2
s."
Substitution2: "'smcp' Lowercase to Small Capitals lookup 22 subtable" copyright.sc
Substitution2: "'c2sc' Capitals to Small Capitals lookup 21 subtable" copyright.sc
Comment: "+AAoA-copyright+AAoA"
EndChar
StartChar: ordfeminine
Encoding: 170 170 99
Width: 287
VWidth: 0
Flags: HW
LayerCount: 3
Back
SplineSet
49 196 m 26
 255 196 l 26
 262 196 271 189 268 182 c 24
 261 169 252 161 237 161 c 26
 39 161 l 26
 32 161 25 167 25 173 c 0
 25 182 36 196 49 196 c 26
80 342 m 0
 80 319 99 308 112 308 c 0
 129 308 142 319 152 327 c 0
 157 331 159 335 159 350 c 10
 160 379 l 18
 160 391 156 393 145 390 c 0
 95 376 80 356 80 342 c 0
219 268 m 0
 182 268 169 299 164 299 c 0
 155 299 137 268 84 268 c 0
 57 268 25 304 25 327 c 0
 25 352 31 368 63 380 c 10
 142 408 l 18
 159 414 160 416 160 432 c 2
 160 455 l 26
 160 475 147 491 123 491 c 0
 107 491 85 486 80 478 c 0
 77 472 77 460 78 453 c 0
 79 445 48 438 33 434 c 0
 29 433 26 437 29 444 c 0
 35 459 38 469 54 482 c 0
 74 499 120 524 154 524 c 0
 185 524 217 499 216 471 c 10
 213 347 l 26
 213 330 215 308 234 308 c 0
 246 308 251 310 255 316 c 0
 260 323 270 307 268 301 c 0
 267 298 243 268 219 268 c 0
EndSplineSet
Fore
SplineSet
233 265 m 0
 193 265 178 297 174 297 c 0
 165 297 145 265 88 265 c 0
 59 265 24 300 24 326 c 0
 24 353 31 370 64 382 c 2
 146 410 l 1
 172 416 164 417 164 431 c 2
 164 454 l 2
 164 471 155 488 138 488 c 0
 127 488 110 481 107 474 c 1
 106 476 106 452 106 452 c 2
 106 439 40 430 37 430 c 0
 31 430 28 432 28 438 c 0
 28 449 41 470 60 483 c 0
 83 500 137 526 177 526 c 0
 213 526 249 502 249 471 c 2
 249 347 l 2
 249 331 234 311 262 311 c 0
 275 311 277 321 279 321 c 0
 281 321 286 314 286 302 c 0
 286 294 258 265 233 265 c 0
109 342 m 0
 109 323 122 311 131 311 c 0
 141 311 152 322 159 330 c 0
 162 333 164 337 164 350 c 2
 164 378 l 2
 164 387 162 390 154 387 c 0
 118 373 109 352 109 342 c 0
51 199 m 2
 271 199 l 2
 277 199 287 195 287 185 c 0
 287 182 286 181 286 181 c 1
 286 180 l 1
 278 166 268 158 252 158 c 2
 40 158 l 2
 33 158 24 163 24 173 c 0
 24 186 37 199 51 199 c 2
EndSplineSet
EndChar
StartChar: logicalnot
Encoding: 1090 172 1089
GlifName: logicalnot
Width: 626
VWidth: 0
Flags: W
LayerCount: 2
Back
SplineSet
65 322 m 258
 477 322 l 258
 487 322 491 314 491 304 c 258
 491 57 l 258
 491 50 497 43 503 43 c 256
 512 43 551 46 551 67 c 258
 551 368 l 258
 551 375 545 382 538 382 c 258
 75 382 l 258
 54 382 51 343 51 334 c 256
 51 328 58 322 65 322 c 258
EndSplineSet
Fore
SplineSet
497 42 m 256
 515 42 556 51 556 76 c 257
 556 368 l 257
 556 380 552 389 538 389 c 258
 65 389 l 257
 40 389 30 348 30 330 c 256
 30 323 40 315 50 315 c 258
 467 315 l 258
 478 315 482 308 482 299 c 258
 482 62 l 258
 482 51 490 42 497 42 c 256
EndSplineSet
Validated: 9
PickledDataWithLists: "(dp0
Vpublic.markColor
p1
V0.67,0.95,0.38,1
p2
s."
Substitution2: "'smcp' Lowercase to Small Capitals lookup 22 subtable" logicalnot.sc
Substitution2: "'c2sc' Capitals to Small Capitals lookup 21 subtable" logicalnot.sc
Comment: "+AAoA-logicalnot+AAoA"
EndChar
StartChar: registered
Encoding: 1350 174 1349
GlifName: registered
Width: 690
VWidth: 0
Flags: W
LayerCount: 2
Back
SplineSet
345 24 m 256
 512 24 649 160 649 327 c 256
 649 494 513 630 346 630 c 256
 179 630 43 494 43 327 c 256
 43 160 178 24 345 24 c 256
345 58 m 256
 199 58 83 181 83 327 c 256
 83 472 201 590 346 590 c 256
 491 590 609 472 609 327 c 256
 609 180 492 58 345 58 c 256
490 173 m 256
 509 173 534 182 534 200 c 256
 534 208 522 204 518 204 c 256
 506 204 498 205 482 225 c 258
 408 320 l 258
 402 327 399 334 408 337 c 256
 438 348 470 376 470 417 c 256
 470 470 418 498 366 496 c 256
 335 495 305 491 274 491 c 256
 257 491 239 495 222 496 c 256
 209 497 202 492 202 484 c 256
 202 476 207 472 221 468 c 256
 241 462 244 467 244 426 c 258
 244 231 l 258
 244 209 235 204 219 199 c 256
 210 196 200 191 200 183 c 256
 200 177 210 172 216 172 c 256
 248 172 249 176 277 176 c 256
 305 176 310 172 342 172 c 256
 348 172 358 177 358 183 c 256
 358 191 348 196 339 199 c 256
 323 204 305 209 305 231 c 257
 304 309 l 257
 304 316 312 320 320 320 c 256
 345 320 356 308 369 290 c 258
 432 203 l 258
 447 183 466 173 490 173 c 256
331 347 m 256
 317 347 304 348 304 367 c 258
 304 437 l 258
 304 455 312 467 342 467 c 256
 377 467 406 445 406 413 c 256
 406 374 370 347 331 347 c 256
EndSplineSet
Fore
SplineSet
344 15 m 256
 516 15 657 155 657 327 c 256
 657 499 517 639 345 639 c 256
 173 639 33 499 33 327 c 256
 33 155 172 15 344 15 c 256
344 68 m 256
 204 68 92 186 92 327 c 256
 92 466 205 580 345 580 c 256
 485 580 598 466 598 327 c 256
 598 185 486 68 344 68 c 256
469 170 m 256
 517 170 537 184 537 202 c 256
 537 208 534 211 530 211 c 256
 503 211 445 241 409 327 c 256
 408 330 407 333 410 334 c 257
 440 348 471 368 471 413 c 256
 471 467 426 493 341 493 c 256
 301 493 292 489 267 489 c 256
 240 489 226 493 192 493 c 256
 186 493 182 489 182 486 c 256
 182 479 185 476 193 475 c 256
 217 469 224 462 224 441 c 258
 224 227 l 258
 224 207 217 202 190 195 c 257
 183 194 178 190 178 182 c 256
 178 176 185 169 189 169 c 256
 212 169 246 172 267 172 c 256
 288 172 333 169 355 169 c 256
 361 169 366 175 366 182 c 256
 366 191 360 194 354 195 c 257
 324 202 313 207 313 227 c 258
 313 309 l 258
 313 315 315 318 319 318 c 256
 324 318 329 314 332 308 c 256
 366 233 428 170 469 170 c 256
330 355 m 256
 317 355 310 360 310 370 c 258
 310 438 l 258
 310 450 316 456 336 456 c 256
 371 456 388 441 388 402 c 256
 388 376 370 355 330 355 c 256
EndSplineSet
Validated: 9
PickledDataWithLists: "(dp0
Vpublic.markColor
p1
V0.67,0.95,0.38,1
p2
s."
Substitution2: "'smcp' Lowercase to Small Capitals lookup 22 subtable" registered.sc
Substitution2: "'c2sc' Capitals to Small Capitals lookup 21 subtable" registered.sc
Substitution2: "'sups' Superscript lookup 9 subtable" registered.sups
Comment: "+AAoA-registered+AAoA"
EndChar
StartChar: macron
Encoding: 175 175 95
Width: 250
VWidth: 0
Flags: HW
HStem: 58 50<-151.896 99.5259>
VStem: -155 260<60.8279 107.814>
LayerCount: 3
Fore
SplineSet
242 55 m 2
 -80 55 l 2
 -90 55 -102 60 -102 70 c 0
 -102 81 -93 111 -65 111 c 2
 269 111 l 2
 277 111 290 107 290 97 c 0
 290 85 269 55 242 55 c 2
EndSplineSet
EndChar
StartChar: degree
Encoding: 729 176 728
GlifName: degree
Width: 359
VWidth: 0
Flags: W
LayerCount: 2
Back
SplineSet
145 402 m 256
 208 402 265 464 265 528 c 256
 265 592 208 645 145 645 c 256
 82 645 25 590 25 526 c 256
 25 462 82 402 145 402 c 256
145 444 m 256
 103 444 68 481 68 523 c 256
 68 567 103 602 145 602 c 256
 187 602 222 567 222 523 c 256
 222 481 187 444 145 444 c 256
EndSplineSet
Fore
SplineSet
181 376 m 256
 272 376 334 452 334 531 c 256
 334 610 272 675 181 675 c 256
 88 675 25 610 25 531 c 256
 25 452 88 376 181 376 c 256
180 436 m 256
 133 436 96 473 96 525 c 256
 96 577 133 613 180 613 c 256
 225 613 263 577 263 525 c 256
 263 473 225 436 180 436 c 256
EndSplineSet
Validated: 9
PickledDataWithLists: "(dp0
Vpublic.markColor
p1
V0.67,0.95,0.38,1
p2
s."
Substitution2: "'smcp' Lowercase to Small Capitals lookup 22 subtable" degree.sc
Substitution2: "'c2sc' Capitals to Small Capitals lookup 21 subtable" degree.sc
Comment: "+AAoA-degree+AAoA"
EndChar
StartChar: plusminus
Encoding: 1295 177 1294
GlifName: plusminus
Width: 602
VWidth: 0
Flags: W
LayerCount: 2
Back
SplineSet
285 121 m 256
 294 121 323 127 323 145 c 258
 323 347 l 258
 323 350 324 351 327 351 c 258
 512 351 l 258
 531 351 537 370 543 387 c 257
 543 388 544 389 544 390 c 256
 544 396 536 401 530 401 c 258
 327 401 l 258
 324 401 323 400 323 407 c 258
 323 598 l 258
 323 605 316 611 309 611 c 256
 303 611 273 599 273 580 c 258
 273 409 l 258
 273 403 272 401 266 401 c 258
 77 401 l 258
 59 401 53 372 53 363 c 256
 53 357 60 351 67 351 c 258
 269 351 l 258
 272 351 273 349 273 346 c 258
 273 135 l 258
 273 128 279 121 285 121 c 256
67 38 m 258
 512 38 l 258
 531 38 537 57 543 74 c 257
 543 75 544 76 544 77 c 256
 544 83 536 88 530 88 c 258
 77 88 l 258
 59 88 53 59 53 50 c 256
 53 44 60 38 67 38 c 258
EndSplineSet
Fore
SplineSet
284 126 m 256
 299 126 330 134 330 155 c 258
 330 344 l 258
 330 353 334 357 343 357 c 258
 536 357 l 258
 555 357 570 383 570 400 c 256
 570 410 559 416 547 416 c 258
 343 416 l 258
 334 416 330 420 330 430 c 258
 330 611 l 258
 330 623 324 634 314 634 c 256
 297 634 271 619 271 600 c 258
 271 430 l 258
 271 420 270 416 257 416 c 258
 59 416 l 258
 38 416 30 385 30 370 c 256
 30 364 38 357 47 357 c 258
 258 357 l 258
 268 357 271 351 271 344 c 258
 271 143 l 258
 271 134 278 126 284 126 c 256
49 29 m 258
 534 29 l 258
 555 29 572 56 572 75 c 256
 572 85 560 93 545 93 c 258
 63 93 l 258
 39 93 30 58 30 44 c 256
 30 38 39 29 49 29 c 258
EndSplineSet
Guideline: "" "" 30 370 90 0 0
Guideline: "" "" 570 400 90 0 0
Validated: 9
PickledDataWithLists: "(dp0
Vpublic.markColor
p1
V0.67,0.95,0.38,1
p2
s."
Substitution2: "'smcp' Lowercase to Small Capitals lookup 22 subtable" plusminus.sc
Substitution2: "'c2sc' Capitals to Small Capitals lookup 21 subtable" plusminus.sc
Comment: "+AAoA-plusminus+AAoA"
EndChar
StartChar: uni00B2
Encoding: 178 178 100
Width: 270
VWidth: 0
Flags: HMW
LayerCount: 3
Fore
SplineSet
27 435 m 0
 24 434 22 436 22 443 c 0
 22 448 24 453 26 456 c 2
 53 496 l 2
 65 512 131 590 131 652 c 0
 131 686 113 713 92 713 c 0
 67 713 55 705 36 676 c 1
 32 666 24 668 24 683 c 0
 24 707 68 773 132 773 c 0
 179 773 217 731 217 677 c 0
 217 641 198 621 181 596 c 0
 159 564 89 508 78 497 c 1
 81 496 87 495 89 495 c 2
 155 495 l 2
 184 495 212 515 226 544 c 0
 228 550 235 554 241 553 c 0
 244 553 246 550 246 545 c 0
 246 541 245 541 245 541 c 1
 245 540 l 1
 234 504 226 480 221 449 c 0
 219 437 216 434 213 434 c 2
 210 434 l 1
 165 437 165 437 136 437 c 0
 94 437 72 437 27 435 c 0
EndSplineSet
EndChar
StartChar: uni00B3
Encoding: 179 179 101
Width: 286
VWidth: 0
Flags: HMW
LayerCount: 3
Fore
SplineSet
108 431 m 0
 82 431 45 434 45 466 c 0
 45 476 52 497 59 497 c 0
 64 497 67 493 69 491 c 0
 78 483 95 470 117 470 c 0
 127 470 160 480 160 534 c 0
 160 564 139 588 109 588 c 0
 101 588 89 584 80 581 c 1
 75.8682 578.245 63.8631 590.863 70 597 c 1
 80 612 94 615 103 622 c 0
 126 641 139 654 139 685 c 0
 139 703 120 721 108 721 c 0
 93 721 76 714 61 690 c 0
 60 688 57 684 55 684 c 0
 54 684 43 692 49 700 c 1
 64 732 95 773 144 773 c 0
 190 773 225 753 225 698 c 0
 225 669 190 646 139 628 c 0
 137 627 136 626 136 626 c 1
 136 626 138 625 139 625 c 0
 196 625 240 590 240 548 c 0
 240 464 157 431 108 431 c 0
EndSplineSet
EndChar
StartChar: acute
Encoding: 180 180 76
Width: 469
VWidth: 0
Flags: HMW
LayerCount: 3
Fore
SplineSet
350 650 m 0
 376 650 404 647 404 629 c 0
 404 606 323 576 204 466 c 0
 196 459 177 444 163 444 c 0
 150 444 142 448 142 460 c 0
 142 478 243 598 274 632 c 0
 291 651 317 650 350 650 c 0
EndSplineSet
EndChar
StartChar: mu
Encoding: 1133 181 1132
GlifName: mu
Width: 564
VWidth: 0
Flags: W
LayerCount: 2
Back
SplineSet
138 -285 m 256
 176 -285 230 -233 230 -200 c 256
 230 -171 122 -136 122 -94 c 256
 122 -60 117 35 117 59 c 256
 117 77 122 84 131 84 c 256
 138 84 155 63 164 54 c 256
 189 29 230 -13 262 -13 c 256
 295 -13 382 116 389 132 c 257
 392 131 l 257
 391 120 390 110 391 99 c 256
 396 39 429 -14 470 -15 c 256
 520 -16 583 34 583 127 c 256
 583 133 576 139 570 139 c 256
 563 139 535 110 500 110 c 256
 457 110 421 135 421 173 c 257
 454 247 485 317 485 379 c 256
 485 408 451 436 371 436 c 256
 354 436 345 429 341 408 c 256
 335 384 336 340 334 266 c 257
 303 148 247 98 207 98 c 256
 184 98 157 114 157 149 c 256
 157 177 210 315 210 390 c 256
 210 426 179 436 124 436 c 256
 71 436 65 417 65 382 c 256
 65 268 72 224 72 0 c 256
 74 -75 73 -184 75 -208 c 256
 78 -240 100 -285 138 -285 c 256
EndSplineSet
Fore
SplineSet
138 -285 m 256
 176 -285 230 -233 230 -200 c 256
 230 -171 122 -136 122 -94 c 256
 122 -60 117 35 117 59 c 256
 117 77 122 84 131 84 c 256
 138 84 155 63 164 54 c 256
 189 29 222 -13 254 -13 c 256
 287 -13 358 116 365 132 c 257
 368 131 l 257
 367 120 366 110 367 99 c 256
 372 39 405 -14 446 -15 c 256
 496 -16 559 34 559 127 c 256
 559 133 552 139 546 139 c 256
 539 139 511 110 476 110 c 256
 433 110 397 135 397 173 c 257
 430 247 461 317 461 379 c 256
 461 408 427 436 347 436 c 256
 330 436 321 429 317 408 c 256
 312 384 312 340 310 266 c 257
 279 148 243 98 203 98 c 256
 180 98 157 114 157 149 c 256
 157 177 210 315 210 390 c 256
 210 426 179 436 124 436 c 256
 71 436 65 417 65 382 c 256
 65 268 72 224 72 0 c 256
 74 -75 73 -184 75 -208 c 256
 78 -240 100 -285 138 -285 c 256
EndSplineSet
Validated: 41
PickledDataWithLists: "(dp0
Vpublic.markColor
p1
V0.67,0.95,0.38,1
p2
s."
Comment: "+AAoA-mu+AAoA"
EndChar
StartChar: uni00B5
Encoding: 181 181 123
Width: 510
VWidth: 0
Flags: HMW
LayerCount: 3
Fore
SplineSet
325 110 m 1
 324 108 322 104 320 100 c 0
 319 99 319 97 318 95 c 0
 298 59 251 -16 210 -16 c 0
 162 -16 138 4 98 36 c 0
 88 44 77 60 70 60 c 0
 64 60 61 49 61 28 c 0
 61 0 67 -42 73 -77 c 0
 86 -154 138 -233 138 -254 c 0
 138 -277 128 -288 109 -288 c 0
 77 -288 57 -268 45 -236 c 0
 35 -211 30 -75 30 0 c 0
 30 18 37 61 37 92 c 0
 37 125 30 288 30 332 c 0
 30 376 44 420 83 420 c 0
 112 420 123 392 123 343 c 0
 123 299 92 170 92 132 c 0
 92 109 125 52 169 52 c 0
 234.789 52 270.66 99.1494 293 155 c 0
 295 159 297 164 298 168 c 0
 316 221 316 269 316 332 c 0
 316 373 332 418 366 418 c 0
 400 418 406 375 406 352 c 0
 406 312 358 213 358 162 c 0
 358 127 420 66 420 66 c 1
 457 66 484 111 493 111 c 0
 498 111 505 109 505 100 c 0
 505 22 449 -18 406 -18 c 0
 373 -18 358 -2 338 46 c 1
 338 46 l 1
 336 52 327 90 325 110 c 1
EndSplineSet
EndChar
StartChar: paragraph
Encoding: 1244 182 1243
GlifName: paragraph
Width: 635
VWidth: 0
Flags: W
LayerCount: 2
Back
SplineSet
319 -317 m 256
 388 -317 462 -267 462 -140 c 258
 462 562 l 258
 462 571 470 580 480 580 c 256
 531 580 579 564 585 564 c 256
 593 564 599 585 599 594 c 256
 599 603 594 612 584 614 c 257
 569 616 499 620 444 620 c 256
 220 620 82 543 82 355 c 256
 82 174 231 91 410 91 c 256
 421 91 423 76 423 66 c 258
 423 -140 l 258
 423 -247 372 -282 323 -282 c 256
 279 -282 237 -253 237 -214 c 256
 237 -180 257 -163 273 -163 c 256
 294 -163 300 -191 328 -191 c 256
 351 -191 371 -171 371 -142 c 256
 371 -112 350 -89 305 -89 c 256
 250 -89 195 -140 195 -207 c 256
 195 -275 255 -317 319 -317 c 256
EndSplineSet
Fore
SplineSet
314 -317 m 256
 422 -317 464 -229 464 -168 c 258
 464 559 l 258
 464 572 473 586 485 586 c 256
 544 586 597 570 604 570 c 256
 613 570 620 595 620 609 c 256
 620 622 614 636 603 639 c 257
 585 642 510 648 446 648 c 256
 181 648 10 575 10 349 c 256
 10 169 196 54 396 54 c 256
 409 54 412 37 412 26 c 258
 412 -171 l 258
 412 -243 363 -275 319 -275 c 256
 249 -275 219 -233 219 -196 c 256
 219 -161 238 -142 254 -142 c 256
 261 -142 270 -152 281 -163 c 256
 293 -175 306 -187 323 -187 c 256
 350 -187 374 -161 374 -125 c 256
 374 -84 338 -66 296 -65 c 256
 240 -64 166 -108 166 -187 c 256
 166 -262 228 -317 314 -317 c 256
EndSplineSet
Validated: 41
PickledDataWithLists: "(dp0
Vpublic.markColor
p1
V0.67,0.95,0.38,1
p2
s."
Substitution2: "'smcp' Lowercase to Small Capitals lookup 22 subtable" paragraph.sc
Substitution2: "'c2sc' Capitals to Small Capitals lookup 21 subtable" paragraph.sc
Substitution2: "'ordn' Ordinals lookup 15 subtable" paragraph.ordn
Substitution2: "'sups' Superscript lookup 9 subtable" paragraph.sups
Substitution2: "'sinf' Scientific Inferiors lookup 8 subtable" paragraph.sinf
Substitution2: "'subs' Subscript lookup 7 subtable" paragraph.subs
Comment: "+AAoA-paragraph+AAoA"
EndChar
StartChar: uni00B9
Encoding: 185 185 102
Width: 292
VWidth: 0
Flags: HMW
LayerCount: 3
Fore
SplineSet
186 784 m 0
 193 784 199 778 197 767 c 1
 197 767 247 1033 197 767 c 1
 197 767 268 1075 197 767 c 1
 196 754 196 736 196 714 c 0
 196 669 194 614 194 586 c 0
 194 556 194 532 195 508 c 0
 196 471 199 470 229 464 c 0
 234 463 238 458 238 449 c 0
 238 440 234 434 226 434 c 0
 171 434 178 439 147 439 c 0
 116 439 120 434 68 434 c 0
 61 434 57 441 57 451 c 0
 57 460 59 464 65 464 c 0
 84 466 103 470 103 508 c 2
 103 661 l 2
 103 684 77 699 65 705 c 0
 59 708 57 713 57 721 c 0
 57 731 61 736 65 737 c 0
 121 742 179 784 186 784 c 0
EndSplineSet
EndChar
StartChar: ordmasculine
Encoding: 1229 186 1228
GlifName: ordmasculine
Width: 331
VWidth: 0
Flags: W
LayerCount: 2
Fore
SplineSet
301 206 m 258
 45 206 l 258
 29 206 14 186 14 175 c 256
 14 168 23 159 32 159 c 258
 278 159 l 258
 297 159 309 170 318 186 c 257
 318 188 319 189 319 190 c 256
 319 199 309 206 301 206 c 258
EndSplineSet
Refer: 1173 -1 N 1 0 0 1 0 -7 2
Guideline: "" "" 12 276 90 0 0
Guideline: "" "" 320 269 90 0 0
Guideline: "" "" 164 267 0 0 0
Validated: 9
PickledDataWithLists: "(dp0
Vpublic.markColor
p1
V0.67,0.95,0.38,1
p2
s."
Substitution2: "'smcp' Lowercase to Small Capitals lookup 22 subtable" ordmasculine.sc
Comment: "+AAoA-ordmasculine+AAoA"
EndChar
StartChar: onequarter
Encoding: 188 188 120
Width: 641
VWidth: 0
Flags: HMW
LayerCount: 3
Fore
SplineSet
51 583 m 0
 46 582 40 577 40 567 c 0
 40 559 44 555 52 552 c 0
 70 546 105 530 105 507 c 2
 105 354 l 2
 105 316 79 310 52 310 c 0
 44 310 40 306 40 297 c 0
 40 287 45 280 52 280 c 0
 106 280 102 286 134 286 c 0
 166 286 159 280 216 280 c 0
 224 280 229 286 229 295 c 0
 229 304 224 309 216 310 c 0
 172 316 167 317 167 354 c 2
 167 354 166 403 166 433 c 0
 166 464 167 500 167 544 c 0
 167 576 170 599 171 613 c 0
 172 624 167 630 161 630 c 0
 148 630 108 594 51 583 c 0
553 352 m 1
 559 352 561 347 561 342 c 0
 561 317 563 229 563 156 c 0
 563 154 563 153 563 151 c 1
 563 151 563 150 565 150 c 2
 583 150 l 2
 597 150 608 150 624 150 c 0
 627 150 632 150 632 143 c 0
 632 127 622 104 618 104 c 0
 607 104 594 106 584 106 c 0
 578 106 566 104 563 102 c 1
 563 19 l 2
 563 0 522 -12 519 -12 c 0
 514 -12 509 -11 509 -2 c 2
 509 99 l 1
 508 101 502 102 501 102 c 0
 452 102 418 99 355 99 c 0
 352 99 349 111 349 111 c 1
 391 167 436 221 480 275 c 0
 492 290 514 316 538 340 c 0
 543 345 549 351 553 352 c 1
504 148 m 2
 506 148 508 150 509 151 c 1
 509 250 l 1
 508 251 507 251 506 250 c 0
 479 212 462 183 441 148 c 1
 504 148 l 2
164 -11 m 2
 452 638 l 2
 458 652 468 655 480 655 c 0
 485 655 494 642 490 633 c 2
 201 -16 l 0
 195 -30 186 -31 176 -31 c 0
 168 -31 159 -21 164 -11 c 2
EndSplineSet
EndChar
